<?xml version="1.0" standalone="no"?>
<!DOCTYPE svg PUBLIC "-//W3C//DTD SVG 1.1//EN" "http://www.w3.org/Graphics/SVG/1.1/DTD/svg11.dtd" >
<svg xmlns="http://www.w3.org/2000/svg" xmlns:xlink="http://www.w3.org/1999/xlink" version="1.1">
<metadata>
Created by FontForge 20190801 at Tue Nov 23 23:09:29 1926
 By www-data
(c) VNLabs 1992
</metadata>
<defs>
<font id="CYCR" horiz-adv-x="850" >
  <font-face 
    font-family="CYCR"
    font-weight="400"
    font-stretch="normal"
    units-per-em="1000"
    panose-1="0 0 0 0 0 0 0 0 0 0"
    ascent="800"
    descent="-200"
    x-height="508"
    cap-height="712"
    bbox="-101 -207 1285 966"
    underline-thickness="90"
    underline-position="-138"
    unicode-range="U+0020-F01D"
  />
<missing-glyph horiz-adv-x="793" 
d="M49 0v793h695v-793h-695zM695 49v695h-597v-695h597z" />
    <glyph glyph-name=".notdef" horiz-adv-x="793" 
d="M49 0v793h695v-793h-695zM695 49v695h-597v-695h597z" />
    <glyph glyph-name=".null" horiz-adv-x="0" 
 />
    <glyph glyph-name="nonmarkingreturn" horiz-adv-x="315" 
 />
    <glyph glyph-name="space" unicode=" " horiz-adv-x="315" 
 />
    <glyph glyph-name="exclam" unicode="!" horiz-adv-x="324" 
d="M273 97q0 -46 -32.5 -78.5t-78.5 -32.5t-78.5 32.5t-32.5 78.5t32.5 78.5t78.5 32.5t78.5 -32.5t32.5 -78.5zM282 562q0 -50 -15.5 -101.5t-35.5 -90.5q-13 -27 -28 -49q-24 -35 -41 -35q-16 0 -40 35q-18 26 -29 49q-22 43 -36.5 95t-14.5 97q0 62 28 104q33 49 92 49
q60 0 92 -48q28 -42 28 -105z" />
    <glyph glyph-name="quotedbl" unicode="&#x22;" horiz-adv-x="587" 
d="M157 715q54 0 83 -44q25 -38 25 -94q0 -43 -12 -89.5t-33 -84.5q-21 -35 -26 -42q-23 -32 -37 -32q-11 0 -27 19t-35.5 55.5t-32.5 84t-13 89.5q0 57 25 94q29 44 83 44zM430 715q54 0 83 -44q25 -38 25 -94q0 -43 -12 -89.5t-33 -84.5q-21 -35 -26 -42q-23 -32 -37 -32
q-11 0 -27 19t-35.5 55.5t-32.5 84t-13 89.5q0 57 25 94q29 44 83 44z" />
    <glyph glyph-name="numbersign" unicode="#" horiz-adv-x="696" 
d="M465 197q-16 -20 -16 -48q0 -12 3 -30q7 -41 7 -51q0 -14 -3.5 -24t-12.5 -20.5t-13.5 -15t-16 -9.5t-23.5 -5q-9 0 -17 4.5t-13 11.5t-9 13q-9 13 -9 30q0 19 20.5 58t20.5 58q0 16 -6.5 26.5t-9 15t-12 10t-18.5 5.5q-11 0 -20.5 -5t-16 -12.5t-10.5 -11.5
q-9 -11 -12.5 -22t-3.5 -27q0 -14 4.5 -41t4.5 -37q0 -15 -3 -25t-12.5 -21t-14 -15.5t-16 -9.5t-23.5 -5q-9 0 -17.5 5t-13.5 11q-1 1 -9 13.5t-8 29.5t28 72q14 28 14 44t-6.5 26.5t-9 15t-9 9t-13.5 4.5q-5 0 -15.5 -3.5t-15.5 -3.5t-11 3q-15 8 -22 21t-7 24t7 24.5
t22 21.5q7 4 15 4q4 0 24 -5q8 -2 15 -2t14.5 3.5t9.5 5.5q8 5 14 17q9 14 9 29q0 7 -3.5 18.5t-17.5 19.5q-5 4 -12 4q-5 0 -15.5 -3.5t-15.5 -3.5t-11 3q-14 8 -21.5 21.5t-7.5 23.5q0 4 2 10t5 13q8 15 22 23q7 4 15 4q5 0 25 -5q8 -2 15 -2t13 3t13 10q3 3 11 11.5
t12 18.5t4 27q0 11 -3 27q-7 38 -7 48q0 25 16 42q6 6 12 12.5t15 9.5q16 7 25 7q10 0 20 -7q7 -4 10 -7.5t10.5 -15t7.5 -25.5q0 -17 -12 -41q-28 -55 -28 -68q0 -15 9.5 -29.5t18.5 -20t17 -5.5q11 0 20.5 4.5t16.5 12t11 12.5q9 10 12 20.5t3 24.5q0 11 -4 35t-4 37
t3.5 23t12.5 21q5 6 11 12.5t15 9.5q16 7 25 7q11 0 21 -7q6 -4 9 -7.5t10.5 -15t7.5 -26.5q0 -19 -19.5 -55t-19.5 -53q0 -15 9.5 -29.5t15.5 -19t13 -4.5q4 0 14.5 3.5t16.5 3.5q5 0 11 -3q15 -8 22 -21.5t7 -24.5t-7 -24t-22 -21q-7 -4 -15 -4q-6 0 -19 4t-20 4
q-3 0 -13 -4q-16 -9 -25 -25t-9 -28q0 -4 4 -16.5t18 -20.5q5 -4 12 -4q4 0 14.5 3.5t16.5 3.5q5 0 11 -3q15 -8 22 -21.5t7 -24.5t-7 -24t-22 -21q-7 -4 -16 -4q-6 0 -19 4t-20 4q-8 0 -15.5 -4.5t-12.5 -10.5q-10 -11 -11 -12zM330 311q10 -5 19 -5t23.5 6t23.5 21.5
t9 30.5q0 6 -3 14q-6 15 -17.5 22t-20.5 7q-10 0 -21 -5t-14.5 -8.5t-10.5 -15.5q-10 -18 -10 -30q0 -8 4 -16q4 -13 18 -21z" />
    <glyph glyph-name="dollar" unicode="$" horiz-adv-x="630" 
d="M504 570q32 -10 53 -38q25 -33 25 -77q0 -26 -14 -43t-39 -17q-11 0 -100 68q-43 33 -85 33q-23 0 -38.5 -11.5t-15.5 -34.5q0 -36 79 -61q116 -37 147 -57q79 -51 79 -151q0 -89 -80 -153q-68 -54 -135 -54q-12 0 -16.5 -3t-4.5 -19v-12q0 -36 -7 -42t-45 -6h-25
q-20 0 -26.5 7.5t-6.5 36.5q1 11 1 16q0 20 -16 21q-57 7 -73 12q-47 13 -72 43q-32 38 -43.5 73t-11.5 70q0 19 8.5 33t27.5 14q24 0 73 -70t137 -70q22 0 50 12q35 15 35 37t-19.5 33.5t-103 41t-130.5 70.5q-62 54 -62 127t51 128.5t125 70.5q18 3 20.5 8t2.5 27
q0 37 6.5 42.5t45.5 5.5h25q20 0 26.5 -7.5t6.5 -36.5q-1 -11 -1 -17q0 -18 14 -21q13 -1 24 -1.5t27 -1.5q9 0 34 -9t47 -17z" />
    <glyph glyph-name="percent" unicode="%" horiz-adv-x="894" 
d="M855 183q0 -82 -68 -136q-64 -51 -149 -51q-79 0 -125 36q-51 40 -51 117q0 91 61 147t150 56q68 0 125 -51t57 -118zM558 469q-16 -29 -31 -57q-39 -71 -73 -129q-48 -82 -86 -138q-14 -21 -40 -73q-39 -77 -68 -77q-18 0 -38.5 6t-20.5 20q0 16 43 81q49 73 103 164
q19 34 38 69q43 77 88 153q59 98 101 159q13 21 27 43q18 25 40 25q19 0 33 -4t14 -19q0 -17 -27 -58q-60 -92 -103 -165zM424 548q0 -84 -61 -138.5t-144 -54.5q-79 0 -131 42q-57 46 -57 123q0 90 68 143q62 48 155 48q68 0 119 -47t51 -116zM696 125q0 43 -13 86
q-18 61 -50 61q-14 0 -22 -12t-8 -26q0 -53 21 -105q18 -44 43 -44q12 0 20.5 9t8.5 31zM277 484q0 43 -13 86q-18 61 -50 61q-14 0 -22 -12t-8 -26q0 -53 21 -105q18 -44 43 -44q12 0 20.5 9t8.5 31z" />
    <glyph glyph-name="ampersand" unicode="&#x26;" horiz-adv-x="913" 
d="M471 215q-21 0 -33 24t-12 47q0 88 77 139q31 21 143 62q78 29 78 60q0 9 -18.5 21t-29.5 12q-2 0 -15 -5q-5 -2 -11 -2q-21 0 -21 22q0 37 50 61q42 20 83 20q53 0 82 -35t29 -106v-17q-2 -13 -2 -19q-4 -42 -38 -75.5t-69 -67.5q0 -2 34.5 -28.5t34.5 -103.5
q0 -90 -103 -159q-117 -79 -307 -79q-195 0 -290 56.5t-95 165.5q0 61 27 121q29 52 59 105q-14 29 -25 57t-11 49q0 80 75.5 134t173.5 54q60 0 109 -20q67 -27 67 -77q0 -21 -17.5 -39.5t-39.5 -18.5q-8 0 -56 28q-24 14 -45 14q-28 0 -44.5 -20t-16.5 -49q0 -52 54.5 -61
t54.5 -40q0 -32 -70.5 -78.5t-70.5 -88.5q0 -7 1 -11q9 -72 77 -117q63 -42 145 -42q56 0 101 31q51 36 51 90q0 26 -19.5 43.5t-47.5 17.5q-36 0 -61.5 -37.5t-37.5 -37.5z" />
    <glyph glyph-name="quotesingle" unicode="'" horiz-adv-x="315" 
d="M157 715q54 0 83 -44q25 -38 25 -94q0 -43 -12 -89.5t-33 -84.5q-21 -35 -26 -42q-23 -32 -37 -32q-11 0 -27 19t-35.5 55.5t-32.5 84t-13 89.5q0 57 25 94q29 44 83 44z" />
    <glyph glyph-name="parenleft" unicode="(" horiz-adv-x="524" 
d="M46 350q0 177 78 304q92 150 254 150q68 0 93 -16q19 -12 19 -36q0 -21 -9 -35.5t-29 -14.5q-24 0 -35.5 1.5t-20.5 3.5q-92 0 -122 -206q-11 -76 -11 -151q0 -120 21 -210q34 -147 112 -147q13 2 27.5 3.5t28.5 1.5q19 0 28.5 -14.5t9.5 -35.5q0 -23 -18 -35
q-26 -17 -94 -17q-162 0 -253 149q-79 129 -79 305z" />
    <glyph glyph-name="parenright" unicode=")" horiz-adv-x="524" 
d="M478 350q0 -177 -78 -304q-92 -150 -254 -150q-68 0 -93 16q-19 12 -19 36q0 21 9 35.5t29 14.5q24 0 35.5 -1.5t20.5 -3.5q92 0 122 206q11 76 11 151q0 120 -21 210q-34 147 -112 147q-13 -2 -27.5 -3.5t-28.5 -1.5q-19 0 -28.5 14.5t-9.5 35.5q0 23 18 35q26 17 94 17
q162 0 253 -149q79 -129 79 -305z" />
    <glyph glyph-name="asterisk" unicode="*" horiz-adv-x="601" 
d="M467 577q16 0 30 -36q11 -29 11 -43q0 -19 -42 -32l-64 -18q-14 -4 -14 -11q0 -9 33.5 -47.5t33.5 -51.5t-27.5 -35.5t-44.5 -22.5q-14 0 -39 36q-4 6 -32 50q-8 10 -12 10t-12 -10q-15 -25 -30 -49q-25 -37 -41 -37t-43.5 22t-27.5 36q0 5 5.5 14.5t13.5 20.5l41 53
q3 3 4 6.5t2 4.5q0 7 -59 23t-59 38q0 12 7.5 35t10.5 28q8 16 22 16q6 0 12 -1.5t21 -6.5q22 -10 36 -15q28 -11 38 -11q8 0 8 13l-2 76q0 29 8.5 37.5t39.5 8.5q40 0 49.5 -7.5t9.5 -38.5l-3 -76q0 -13 8 -13q11 0 37 10q30 13 36 15.5t17 5.5t18 3z" />
    <glyph glyph-name="plus" unicode="+" horiz-adv-x="658" 
d="M539 186q-9 -2 -24 -2q-11 0 -27.5 1.5t-17.5 1.5q-8 -1 -12 -1q-30 -3 -43 -20q-4 -6 -18 -41q-4 -11 -4 -21q0 -7 3 -22t3 -23q0 -5 -2 -15q-5 -29 -10 -57q-11 -28 -60 -28q-57 0 -65 39q-3 30 -4.5 42t-1.5 26q0 6 1 20t1 22q0 11 -1 17q-6 55 -61 61q-9 1 -17.5 1
h-12.5q-11 0 -23.5 -0.5t-27.5 -0.5q-10 0 -19 -1t-15 -1q-23 0 -32 12q-12 15 -12 60q0 44 12.5 57.5t38.5 13.5q18 -1 27 -1q13 0 32.5 -2.5t21.5 -2.5q14 0 27 5q27 11 39 21q16 14 22 40q2 6 2 11.5v8.5q0 8 -2 22t-2 22q0 5 3.5 25.5t8.5 50.5q11 26 60 26q50 0 63 -27
q7 -14 7 -58q0 -12 -1 -29.5t-1 -24.5v-13q2 -9 2 -14q7 -54 61 -61q7 -1 15.5 -1.5t11.5 -0.5q5 0 21.5 1t32.5 1q43 0 56 -6q29 -14 29 -64q0 -56 -40 -64q-30 -3 -45 -6z" />
    <glyph glyph-name="comma" unicode="," horiz-adv-x="335" 
d="M154 -185q-17 0 -33.5 11.5t-16.5 27.5q20 38 35 68t15 49q0 11 -55 42t-55 101q0 48 34.5 84.5t82.5 36.5q63 0 100 -54q33 -48 33 -114q0 -77 -40 -159q-45 -93 -100 -93z" />
    <glyph glyph-name="hyphen" unicode="-" horiz-adv-x="385" 
d="M318 194q-7 -13 -20.5 -19.5t-48.5 -6.5l-73 3l-102 1q-12 0 -21 8t-9 22q0 24 4.5 63t10.5 51q11 21 23 32q16 14 36 14q15 0 33 -2q55 -6 60 -6q45 0 65 1t37 3q11 0 23 -13t12 -27q0 -19 -11 -63t-19 -61z" />
    <glyph glyph-name="period" unicode="." horiz-adv-x="350" 
d="M300 107q0 -51 -35 -86t-86 -35t-86 35t-35 86t35 86t86 35t86 -35t35 -86z" />
    <glyph glyph-name="slash" unicode="/" horiz-adv-x="496" 
d="M390 455l-249 -511l-34 -72q-13 -20 -42 -20q-30 0 -52 6q-34 9 -34 31q0 14 32 71q53 95 74 138l249 511l34 72q13 20 42 20q30 0 58 -7.5t28 -29.5q0 -14 -32 -71q-53 -95 -74 -138z" />
    <glyph glyph-name="zero" unicode="0" horiz-adv-x="630" 
d="M26 293q0 130 74.5 213t204.5 83q126 0 212.5 -90.5t86.5 -217.5q0 -137 -96 -221q-85 -74 -195 -74q-126 0 -206.5 89.5t-80.5 217.5zM380 217q0 64 -16 129q-23 94 -66 94q-28 0 -40 -28q-8 -19 -8 -52q0 -60 17 -129q24 -96 66 -96q20 0 33.5 20t13.5 62z" />
    <glyph glyph-name="one" unicode="1" horiz-adv-x="630" 
d="M193 235v136q0 36 -9 49.5t-44 13.5l-37 -2q-40 0 -40 33q0 49 125 86.5t248 37.5q36 0 53 -6q30 -10 30 -39q0 -19 -37.5 -37t-37.5 -71l-2 -120q0 -58 1.5 -98.5t9 -80t68.5 -44.5t61 -38q0 -23 -19 -36q-12 -8 -44 -15.5t-94 -12.5t-105 -5q-79 0 -152 11
q-127 19 -127 63q0 17 13.5 28.5t31.5 11.5q9 0 26 -3t26 -3q30 0 42.5 28.5t12.5 112.5z" />
    <glyph glyph-name="two" unicode="2" horiz-adv-x="644" 
d="M574 206q25 0 35 -23t10 -52q0 -76 -41 -131q-36 -48 -71 -48q-22 0 -35 24t-63 24h-330q-33 0 -45.5 6t-12.5 20q0 13 8.5 23.5t64.5 63.5q60 57 105 113q67 84 67 131q0 57 -56 57q-28 0 -52 -18q-53 -40 -67 -40q-23 0 -44 18t-21 40q0 63 106.5 119t204.5 56
q118 0 183 -49q56 -42 56 -108q0 -62 -52 -124q-58 -64 -116 -127q0 -16 13.5 -25.5t30.5 -9.5q40 0 75 30t47 30z" />
    <glyph glyph-name="three" unicode="3" horiz-adv-x="651" 
d="M218 192q-22 0 -41 -4t-31 -6q-16 0 -29 30t-13 49q0 14 67 45t67 85q0 27 -24 47t-54 20q-26 0 -49 -10q-26 -13 -52 -25q-14 0 -25 19.5t-11 36.5q0 39 83.5 74.5t173.5 35.5q117 0 187 -42q57 -34 57 -89q0 -42 -23 -72q-26 -28 -52 -55q0 -1 84 -37t84 -140
q0 -106 -91 -178q-104 -82 -290 -82q-70 0 -131 14q-95 22 -95 68q0 24 16 39t40 15q31 -6 62.5 -12t61.5 -6q53 0 91 24q43 27 43 72q0 41 -31 62.5t-75 21.5z" />
    <glyph glyph-name="four" unicode="4" horiz-adv-x="630" 
d="M537 561v-331q0 -27 3.5 -33.5t25.5 -6.5q26 0 32 -6t6 -35v-80q0 -22 -4 -31.5t-23.5 -11.5t-23.5 -8t-4 -33v-18q1 -21 1 -29q0 -19 -8 -27t-35 -8h-151q-30 0 -36 6t-6 31v23v17q0 31 -6 38q-9 10 -43 10h-175q-44 0 -59 11q-19 14 -19 55q0 55 16.5 87.5t85.5 116.5
l231 266q33 32 67.5 48t77.5 16q31 0 41 -20q6 -12 6 -47zM219 176h31q53 0 61.5 7.5t8.5 55.5q0 14 1.5 42.5t1.5 29.5q0 31 -5.5 49t-21.5 18q-15 -1 -25 -9t-20 -22q-49 -58 -77 -95.5t-28 -53.5q0 -13 19 -17.5t42 -4.5h12z" />
    <glyph glyph-name="five" unicode="5" horiz-adv-x="630" 
d="M496 402h-210q-26 0 -38.5 -4.5t-12.5 -26.5q0 -18 25 -23q6 -1 26 -3q172 -19 252 -91q59 -53 59 -121q0 -99 -103 -170.5t-261 -71.5q-108 0 -156 27q-36 20 -36 54q0 16 7 36.5t21 20.5q27 -8 59 -14t54 -6q39 0 64 14q33 18 33 54q0 42 -53 70q-37 19 -94 28.5
t-58 9.5q-41 12 -41 40q0 40 37 153q15 45 30 86q33 89 50 106q12 12 54 12h341q29 0 38 -7t9 -37q0 -47 -20 -85q-27 -51 -76 -51z" />
    <glyph glyph-name="six" unicode="6" horiz-adv-x="665" 
d="M632 261q0 -110 -78 -189q-85 -86 -216 -86q-137 0 -222.5 84.5t-85.5 214.5q0 113 92 252q87 131 139 131q21 3 81.5 -18t60.5 -41q0 -8 -10 -21q-6 -7 -16 -19q-31 -35 -49 -63q-21 -34 -21 -57q0 -19 16 -19q32 11 62 19t56 8q80 0 135.5 -57.5t55.5 -138.5zM412 171
q0 42 -23 87q-28 54 -67 54q-25 0 -36.5 -18t-11.5 -44q0 -36 28.5 -80.5t62.5 -44.5q47 0 47 46z" />
    <glyph glyph-name="seven" unicode="7" horiz-adv-x="630" 
d="M259 596l250 -14q27 0 57 -12q39 -16 39 -40q0 -12 -8.5 -66t-13.5 -74q-32 -110 -77 -229q-30 -78 -76 -184q-33 -76 -34 -76q-9 -23 -16 -28.5t-42 -5.5q-73 0 -119 22q-37 18 -37 34q0 4 4.5 13l5.5 11l180 344q12 24 16 33q11 25 11 35q0 19 -25.5 26t-61.5 7h-31
q-95 0 -135 -42q-19 -20 -52 -20q-41 0 -60 37q-15 29 -15 74q0 71 27 120t63 49q4 0 70 -9q37 -5 80 -5z" />
    <glyph glyph-name="eight" unicode="8" horiz-adv-x="665" 
d="M621 487q0 -41 -27 -71q-30 -27 -60 -53q0 -5 9 -13q2 -2 15 -11q33 -23 53 -59.5t20 -77.5q0 -77 -62 -138q-79 -78 -223 -78q-118 0 -207 42q-116 55 -116 160q0 45 26 77q29 28 58 57q-27 27 -46 59q-22 36 -22 77q0 88 85 142q79 50 191 50q107 0 190 -31
q116 -44 116 -132zM342 555q-21 0 -37 -10t-16 -29q0 -26 39.5 -55.5t65.5 -29.5q15 0 25 20.5t10 37.5q0 32 -26.5 49t-60.5 17zM319 90q30 0 47 10q23 13 23 41q0 22 -11.5 35t-57.5 37q-27 14 -49 23q-35 14 -51 14q-13 0 -19.5 -12.5t-6.5 -27.5q0 -48 38 -84t87 -36z
" />
    <glyph glyph-name="nine" unicode="9" horiz-adv-x="658" 
d="M506 38q-35 -48 -87 -100q-70 -70 -104 -70q-25 0 -77.5 25t-52.5 45q0 7 7 14t15 11q35 18 67 62.5t32 74.5q0 19 -21 19l-48 -3q-101 0 -160 77q-52 68 -52 163q0 111 95 176q84 57 201 57q124 0 207 -58q95 -66 95 -185q0 -82 -33 -163q-28 -69 -84 -145zM399 304
q0 43 -19 84q-25 54 -64 54q-23 0 -37 -20t-14 -45q0 -45 21 -83q25 -46 66 -46q22 0 34.5 16.5t12.5 39.5z" />
    <glyph glyph-name="colon" unicode=":" horiz-adv-x="336" 
d="M290 418q0 -51 -35 -86t-86 -35t-86 35t-35 86t35 86t86 35t86 -35t35 -86zM290 107q0 -51 -35 -86t-86 -35t-86 35t-35 86t35 86t86 35t86 -35t35 -86z" />
    <glyph glyph-name="semicolon" unicode=";" horiz-adv-x="329" 
d="M294 67q0 -77 -40 -159q-45 -93 -100 -93q-17 0 -33.5 11.5t-16.5 27.5q20 38 35 68t15 49q0 11 -55 42t-55 101q0 48 34.5 84.5t82.5 36.5q63 0 100 -54q33 -48 33 -114zM286 432q0 -51 -35 -86t-86 -35t-86 35t-35 86t35 86t86 35t86 -35t35 -86z" />
    <glyph glyph-name="less" unicode="&#x3c;" horiz-adv-x="602" 
d="M543 198q11 -28 11 -54q0 -24 -11 -55q-4 -11 -28 -11q-46 0 -154 41q-95 36 -190.5 85t-114.5 73q-12 14 -17.5 27t-5.5 27q0 30 30 63q22 24 122.5 75.5t195.5 89.5q110 44 147 44q12 0 15 -4q8 -10 12 -22t4 -24q0 -25 -15 -62t-105 -65q-79 -21 -157 -41
q-82 -24 -82 -52q0 -24 80.5 -44t160.5 -38q90 -24 102 -53z" />
    <glyph glyph-name="equal" unicode="=" horiz-adv-x="756" 
d="M590 355h-424h-19q-35 0 -45 9q-14 13 -14 61q0 46 12.5 57.5t46.5 11.5h19h424q49 0 59 -6q19 -12 19 -63q0 -52 -18 -63q-11 -7 -60 -7zM590 120h-424h-19q-35 0 -45 9q-14 13 -14 61q0 46 12.5 57.5t46.5 11.5h19h424q49 0 59 -6q19 -12 19 -63q0 -52 -18 -63
q-11 -7 -60 -7z" />
    <glyph glyph-name="greater" unicode="&#x3e;" horiz-adv-x="602" 
d="M57 198q12 28 101 52q79 18 160.5 38.5t81.5 44.5q0 28 -81 52q-79 20 -157 41q-91 28 -105 63q-6 16 -11 33.5t-5 31.5q0 26 16 45q3 4 16 4q58 0 242.5 -85t221.5 -124q30 -33 30 -63q0 -15 -5.5 -27.5t-17.5 -26.5q-31 -38 -210.5 -118.5t-249.5 -80.5q-23 0 -27 11
q-11 31 -11 56q0 12 1.5 23t9.5 30z" />
    <glyph glyph-name="question" unicode="?" horiz-adv-x="560" 
d="M219 559q-5 -50 -34.5 -78.5t-78.5 -28.5q-32 0 -53.5 20.5t-21.5 52.5q0 71 62 127q70 63 180 63q90 0 162 -42q85 -50 85 -132q0 -79 -38 -112q-53 -29 -83.5 -47.5t-56.5 -71.5q-18 -36 -75 -36q-34 0 -49 16q-18 19 -18 64q0 42 43 100t43 102q0 20 -7 33
q-10 18 -28 18q-15 0 -22 -9t-10 -39zM370 97q0 -46 -32.5 -78.5t-78.5 -32.5t-78.5 32.5t-32.5 78.5t32.5 78.5t78.5 32.5t78.5 -32.5t32.5 -78.5z" />
    <glyph glyph-name="at" unicode="@" horiz-adv-x="840" 
d="M739 143q2 -12 2 -14q0 -3 -5 -17.5t-19.5 -27t-17.5 -15.5q-60 -49 -112 -66t-138 -17q-417 0 -417 343q0 167 116.5 276.5t295.5 109.5q157 0 258.5 -84t101.5 -214q0 -110 -83 -186.5t-196 -76.5q-73 0 -79 43q-1 9 -1 18q-2 7 -7 7q-28 -26 -63 -46t-69 -20
q-45 0 -74 42t-29 100q0 114 62 180.5t161 66.5q21 0 58 -13q20 -7 28 -7t25 12t37 12q22 0 44.5 -11t22.5 -26q0 -31 -14 -83q-33 -123 -33 -156q0 -26 27 -26q45 0 74 56q24 47 24 99q0 106 -73.5 171.5t-195.5 65.5q-142 0 -228.5 -85.5t-86.5 -224.5q0 -130 65 -188
q92 -79 250 -79q86 0 134.5 29.5t98.5 59.5q8 4 22 4q13 0 22.5 -3.5t11.5 -8.5zM460 347q9 19 13.5 44.5t4.5 41.5q0 9 -4 17t-9 7q-31 -3 -55.5 -33t-38.5 -73q-3 -9 -3 -23q0 -21 7 -36t20 -15q12 0 31.5 19.5t33.5 50.5z" />
    <glyph glyph-name="A" unicode="A" horiz-adv-x="869" 
d="M141 224q16 32 33 69t30 68q24 61 48 150q17 63 24 86q18 59 33 80q29 41 88 41q70 0 130 -76q17 -21 51 -79q60 -122 107 -216q52 -102 76 -138q30 -42 61 -83q26 -38 26 -74q0 -40 -70 -64q-55 -19 -108 -19q-107 0 -164.5 23t-57.5 64q0 15 19 25q42 22 42 36
q0 33 -32 41t-154 8q-46 0 -64.5 -8.5t-18.5 -42.5q0 -17 32 -27t32 -38q0 -47 -59 -64q-34 -10 -89 -10q-87 0 -120 24q-22 16 -22 48q0 27 34 43q23 11 35 26q16 20 36 61zM339 289h75h23q17 3 17 13q0 13 -21 53q-13 23 -16 28q-15 26 -19 32q-15 21 -29 21
q-15 0 -30 -31q-2 -4 -15 -40q-8 -18 -12 -30q-9 -24 -9 -32q0 -14 26 -14h10z" />
    <glyph glyph-name="B" unicode="B" horiz-adv-x="754" 
d="M680 544q0 -35 -14.5 -69t-40.5 -55q-11 -9 -12 -11q-6 -7 -6 -16q0 -10 10 -16q4 -2 11 -6q37 -14 65 -49q35 -43 35 -100q0 -92 -52 -151q-67 -76 -204 -76q-34 0 -100 5.5t-86 5.5q-34 0 -79 -5q-107 -12 -133 -12q-23 0 -40 12.5t-17 35.5q0 7 1 11q5 22 27 35
q40 24 40 130q6 38 8 63q9 81 9 137v12q0 40 -4.5 66t-56.5 99q-21 29 -21 62q0 26 21 41t47 15q44 0 122 -3.5t100 -3.5q28 0 77 3.5t63 3.5q124 0 183 -53q47 -42 47 -111zM334 545v-81v-35q3 -23 29 -23q41 0 59 28q15 24 15 69q0 41 -14 67q-18 34 -56 34q-17 0 -25 -8
t-8 -37v-14zM334 270v-50q0 -80 13 -103q9 -16 37 -16q40 0 58.5 24.5t18.5 66.5q0 53 -17 80q-22 35 -71 35q-22 0 -30.5 -9.5t-8.5 -27.5z" />
    <glyph glyph-name="C" unicode="C" horiz-adv-x="756" 
d="M29 348q0 151 117 259t268 108q48 0 95 -15l92 -34q13 0 26 3.5t19 3.5q34 0 62.5 -48t28.5 -126q0 -46 -22 -75.5t-66 -29.5q-42 0 -99.5 88.5t-155.5 88.5q-52 0 -83 -43q-26 -37 -26 -84q0 -115 57 -192q61 -82 162 -82q63 0 102 20q34 23 69 46q21 0 32.5 -15.5
t11.5 -45.5q0 -35 -20 -63t-83 -68q-47 -30 -98.5 -44t-111.5 -14q-158 0 -267.5 105.5t-109.5 256.5z" />
    <glyph glyph-name="D" unicode="D" horiz-adv-x="843" 
d="M102 190q8 34 12.5 69t4.5 64q0 42 -6.5 95t-13.5 109q-3 24 -33 59t-30 69q0 31 31 44q21 9 57 9h326q193 0 284 -108q75 -89 75 -244q0 -154 -81 -250q-93 -111 -271 -111q-56 0 -123.5 2.5t-72.5 2.5q-36 0 -91.5 -2.5t-68.5 -2.5q-31 0 -53 11q-29 14 -29 41
q0 28 22 55q57 69 61 88zM344 544v-373q0 -42 11.5 -57t50.5 -15q84 0 121 77q27 57 27 152q0 159 -53 223q-39 48 -112 48q-29 0 -37 -12t-8 -43z" />
    <glyph glyph-name="E" unicode="E" horiz-adv-x="726" 
d="M139 701q59 -6 128 -6q52 0 91 2t69 4q67 0 108 6q30 7 61 14q49 0 68 -32q14 -23 14 -67q0 -12 -0.5 -22.5t-0.5 -20.5q0 -29 -11 -48q-14 -24 -41 -24q-31 0 -49 30q-41 66 -156 66q-69 0 -84.5 -15.5t-15.5 -74.5v-45q0 -44 9 -52t55 -8q39 0 50 52.5t40 52.5
q38 0 53 -58q9 -34 9 -88q0 -49 -13 -93q-18 -62 -54 -62q-22 0 -33 49.5t-68 49.5q-27 0 -36 -23q-5 -14 -5 -47q0 -105 18 -124q14 -15 97 -15q123 0 166 89q20 42 55 42q17 0 24 -18.5t7 -45.5q0 -11 0.5 -27t1.5 -37q0 -52 -13 -76q-19 -34 -68 -34q-10 0 -81 2.5
t-92 2.5h-122h-174q-59 0 -85.5 5t-26.5 28q0 29 34 80q16 24 16 72q0 95 2 145q6 150 6 175q0 38 -46 96q-22 28 -22 59q0 26 15.5 36t41.5 10q19 0 34 -2t24 -3z" />
    <glyph glyph-name="F" unicode="F" horiz-adv-x="695" 
d="M102 270v139v73v19q0 29 -3 52q-6 46 -34 61.5t-28 39.5q0 27 17 40.5t44 13.5q6 0 123 -5t166 -5h230q29 0 44.5 -29.5t15.5 -82.5q0 -28 -16 -50.5t-43 -22.5q-26 0 -41 25q-34 57 -154 57q-53 0 -66 -15q-21 -25 -21 -125q0 -18 7 -24q13 -11 52 -11t53 41.5t48 41.5
q29 0 43.5 -34t14.5 -105q0 -83 -19 -122.5t-54 -39.5q-26 0 -36 53.5t-69 53.5q-27 0 -33 -10.5t-6 -58.5v-42q0 -85 66 -102q31 -8 31 -40q0 -40 -55.5 -56t-178.5 -16q-111 0 -148 17q-28 13 -28 49q0 25 15 38q45 38 50.5 53t9 57t3.5 72z" />
    <glyph glyph-name="G" unicode="G" horiz-adv-x="834" 
d="M641 676q48 -22 73.5 -54.5t25.5 -71.5t-21 -64.5t-61 -25.5q-45 0 -102 65t-130 65q-65 0 -104 -49t-39 -129q0 -138 68 -217q54 -63 116 -63q27 0 44 17t17 45q0 43 -47.5 58t-47.5 46q0 42 61 58q39 10 108 10h23q123 0 162 -25q22 -14 22 -47q0 -18 -9 -30t-27 -23
q-12 -7 -21 -21q-14 -20 -22 -51q-27 -101 -116 -146q-74 -37 -193 -37q-163 0 -275 101q-117 105 -117 267q0 157 112 259t276 102q95 0 144 -10q32 -7 80 -29z" />
    <glyph glyph-name="H" unicode="H" 
d="M756 425v-260q0 -24 6 -36.5t24.5 -23t24.5 -16.5q10 -10 10 -26q0 -26 -25 -39q-45 -24 -174 -35q-8 -1 -16 -1.5t-20 -0.5q-51 0 -79 13q-37 17 -37 57q0 16 15 30q35 32 35 165q0 38 -10.5 45t-51.5 7q-91 0 -109 -8.5t-18 -51.5v-34q0 -81 28 -118q14 -19 14 -44
q0 -45 -69 -58q-31 -6 -105 -6h-22t-25 -1q-56 0 -84 9q-44 14 -44 49q0 15 9.5 31t22.5 26q28 21 33.5 48.5t5.5 179.5q0 196 -4 222.5t-32 41.5q-11 6 -17 14.5t-6 22.5q0 49 83 71q54 14 125 14q61 0 92 -7q61 -14 61 -53q0 -22 -8.5 -36t-27.5 -25t-24.5 -30t-5.5 -85
q0 -32 13 -42q9 -7 38 -7h23h51q47 0 55.5 7t8.5 34q0 56 -3 74t-17 39q-14 17 -28 35q-9 14 -9 26q0 30 17 42q39 28 168 28q93 0 136.5 -17.5t43.5 -53.5q0 -31 -31 -47q-26 -11 -32 -29q-9 -29 -9 -140z" />
    <glyph glyph-name="I" unicode="I" horiz-adv-x="450" 
d="M102 301v99q0 88 -5.5 122.5t-15.5 47.5q-5 7 -39 31q-23 17 -23 39q0 46 104 63q54 9 120 9q76 0 114 -9q69 -16 69 -61q0 -21 -22 -34q-34 -20 -39 -26q-12 -14 -16 -62.5t-4 -119.5v-99q0 -122 8 -155q5 -19 23 -30t35 -20q15 -11 15 -32q0 -34 -24 -48
q-47 -27 -189 -27q-92 0 -137.5 16t-45.5 49q0 21 26 38q20 13 24 18q10 12 16 55t6 136z" />
    <glyph glyph-name="J" unicode="J" horiz-adv-x="659" 
d="M582 521q-11 -36 -15 -71t-4 -71q0 -28 1.5 -70.5t1.5 -43.5v-23q-2 -16 -2 -24q-9 -108 -125 -178q-90 -54 -157 -54q-106 0 -180 39q-94 50 -94 147q0 53 24.5 89t72.5 36q46 0 76 -24t30 -70l3 -52q0 -22 22 -31q14 -6 27 -6q44 4 62 46q15 35 15 105q0 35 -6 118
t-6 127q0 63 -42.5 86.5t-42.5 42.5q0 37 25 51q41 22 173 22q124 0 171 -24q30 -15 30 -45q0 -19 -15 -44q-43 -71 -45 -78z" />
    <glyph glyph-name="K" unicode="K" horiz-adv-x="869" 
d="M332 152q-1 -3 -1 -6.5v-4.5q0 -16 41 -60q20 -21 20 -39q0 -29 -32 -41q-44 -17 -164 -17q-108 0 -143 17q-25 12 -25 44q0 16 30 54q16 21 22 57.5t8 85.5t2 93v48q0 41 -2 78t-8 69q-6 41 -32.5 65.5t-26.5 42.5q0 8 3 22q11 41 23 45q22 7 177 7q64 0 88 -6
q54 -14 54 -59q0 -21 -14 -37q-32 -36 -32 -105q0 -13 2.5 -27.5t16.5 -14.5q19 0 62.5 53.5t43.5 72.5q0 9 -4 20q-9 24 -9 33q0 48 70 63q32 7 107 7q92 0 128 -14.5t36 -51.5q0 -47 -63.5 -51.5t-75.5 -16.5q-37 -30 -60 -53q-45 -44 -45 -70q0 -17 14 -38q4 -6 26 -32
q40 -49 64 -79q75 -92 120 -145q55 -40 75.5 -60.5t20.5 -50.5q0 -33 -27 -48q-15 -8 -58 -17q-32 -6 -52 -6t-41 2.5t-50 6t-58 30.5q-17 17 -35.5 34.5t-44.5 51.5q-8 11 -22 31q-22 34 -39 56q-33 43 -56 43q-7 0 -13 -3q-12 -7 -17 -26t-5 -39v-8t1 -6z" />
    <glyph glyph-name="L" unicode="L" horiz-adv-x="685" 
d="M445 0q-26 -1 -43 -2q-125 -7 -188 -7h-14h-12q-46 0 -75 3.5t-56 5.5q-24 6 -24 34q0 15 35.5 49.5t35.5 101.5q0 32 5 117q2 34 2 64q0 36 -3.5 95.5t-3.5 76.5q0 45 -40 58t-40 39q0 47 79 66q46 11 117 11q134 0 180 -21q30 -14 30 -47q0 -26 -53 -66
q-26 -19 -26 -42q0 -51 -1 -82q-4 -122 -4 -131q0 -26 1 -52.5t5 -66t15 -59.5q19 -34 67 -34q98 0 123.5 68t43.5 71q31 4 47 -25q13 -23 13 -58q0 -71 -13 -117q-17 -59 -49 -59h-39h-17h-13q-7 2 -10 2q-16 3 -32.5 5t-42.5 2z" />
    <glyph glyph-name="M" unicode="M" horiz-adv-x="929" 
d="M278 281q-7 13 -13 26q-10 17 -22 17t-17.5 -28.5t-5.5 -66.5q0 -16 0.5 -33.5t1.5 -36.5q0 -62 43 -80q21 -9 21 -31q0 -37 -58 -51q-33 -8 -88 -8q-51 0 -73 5q-48 11 -48 45q0 26 29.5 39.5t35 70t10.5 137.5t5 172q0 83 -15 114q-3 6 -30 25.5t-27 43.5q0 39 51 57
q40 14 112 14q80 0 105 -16q12 -8 40 -55q42 -86 67 -135q47 -92 74 -98q19 -4 52 62l56 118q46 84 61 97q32 27 123 27q50 0 88 -12q56 -18 56 -54q0 -19 -14 -34q-40 -43 -41 -48q-5 -16 -10 -86.5t-5 -104.5l10 -218q0 -39 39 -72q19 -16 19 -35q0 -36 -52 -50
q-34 -9 -94 -9h-30h-19q-62 0 -99 9q-60 15 -60 51q0 18 24.5 38t27 31.5t6 49.5t3.5 68q0 34 -4.5 54.5t-15.5 20.5q-15 0 -34 -30q-7 -10 -53 -109q-16 -60 -27 -92q-20 -59 -63 -59q-32 0 -90 130q-19 43 -52 130z" />
    <glyph glyph-name="N" unicode="N" horiz-adv-x="873" 
d="M327 658l222 -198q15 -14 28 -23q22 -16 34 -16q13 0 19.5 13.5t6.5 44.5q0 19 -5.5 43t-12.5 45t-32.5 38t-25.5 46q0 41 56 54q29 7 88 7q60 0 90 -8q58 -16 58 -61q0 -31 -21 -45q-27 -18 -35 -40.5t-12.5 -62.5t-4.5 -75l-5 -249v-22t1 -25q0 -59 -9 -89
q-14 -46 -48 -46q-15 0 -30 7t-27 18l-309 277q-14 13 -28 23q-20 14 -33 14q-24 0 -30 -49q-2 -16 -2 -37q0 -30 1.5 -51t5.5 -40q8 -33 38 -49.5t30 -39.5q0 -44 -57 -66q-44 -17 -93 -17t-91 16q-58 22 -58 65q0 26 31.5 45t36.5 49.5t7 73t2 79.5v27q0 74 -3 115t-8 75
q-9 55 -46 72.5t-37 43.5q0 36 41.5 54t128.5 18q45 0 74.5 -12t63.5 -42z" />
    <glyph glyph-name="O" unicode="O" horiz-adv-x="818" 
d="M399 -14q-160 0 -267.5 101.5t-107.5 260.5t111 263t276 104q128 0 220 -66q77 -55 120 -148q37 -80 37 -153q0 -157 -118 -262q-113 -100 -271 -100zM536 242q0 94 -41 196q-51 128 -130 128q-39 0 -61.5 -33t-22.5 -74q0 -88 43 -194q53 -130 125 -130q43 0 65 31.5
t22 75.5z" />
    <glyph glyph-name="P" unicode="P" horiz-adv-x="730" 
d="M107 158q7 47 12.5 103t5.5 106q0 43 -4 84.5t-14 82.5q-4 17 -66 64q-27 21 -27 49q0 27 22.5 37.5t52.5 10.5l79 3q73 0 139.5 3t130.5 7q111 0 182 -54q80 -60 80 -168q0 -107 -78 -170q-73 -59 -182 -59q-20 0 -33 1q-51 4 -54 4q-16 0 -16 -16q0 -6 -0.5 -14
t-0.5 -20q0 -17 2 -31t52 -72q23 -26 23 -52q0 -42 -77 -63q-55 -15 -112 -15q-59 0 -110 13q-80 21 -80 63q0 25 21 43q50 43 52 60zM474 482q0 50 -25 82.5t-74 32.5q-26 0 -32 -7t-6 -25v-150q-1 -11 -1 -16q0 -14 9 -21t37 -7q47 0 69.5 30.5t22.5 80.5z" />
    <glyph glyph-name="Q" unicode="Q" horiz-adv-x="830" 
d="M36 -10q0 30 24 47.5t55 17.5q4 0 14.5 3t21.5 6q-49 44 -86 114q-41 78 -41 175q0 158 111 260t276 102q128 0 221 -67q78 -56 123 -151q38 -81 38 -154q0 -115 -62.5 -199t-175.5 -130q-13 -5 -13 -14q0 -20 13 -29q25 -17 101 -17q24 0 49.5 5t53.5 10q26 0 36 -11
t8 -34q0 -50 -56.5 -77.5t-175.5 -27.5q-54 0 -102 10q-17 4 -65 17q-77 32 -154 63q-84 22 -149 46t-65 35zM536 242q0 94 -41 196q-51 128 -130 128q-39 0 -61.5 -33t-22.5 -74q0 -88 43 -194q53 -130 125 -130q43 0 65 31.5t22 75.5z" />
    <glyph glyph-name="R" unicode="R" horiz-adv-x="825" 
d="M90 208q6 51 9 84.5t3 61.5q0 35 -5 81q-1 9 -7 58q-1 9 -46 80q-20 32 -20 73q0 36 39 51q28 11 69 11q21 0 64.5 -3.5t58.5 -3.5q33 0 72 2q97 5 122 5q96 0 164 -44q80 -52 80 -144q0 -46 -21.5 -83t-63.5 -57q-5 -3 -10.5 -6.5t-5.5 -13.5q0 -12 11 -18q1 -1 14 -6
q52 -19 78.5 -59.5t36.5 -120.5q7 -51 37 -63.5t30 -34.5q0 -32 -32 -53q-39 -25 -117 -25q-109 0 -154 62q-28 38 -57 162q-13 56 -33 73.5t-50 17.5q-18 0 -24 -10.5t-6 -55.5q0 -32 1 -51t5.5 -42.5t42.5 -53.5q17 -13 17 -30q0 -32 -32 -47q-45 -21 -155 -21
q-94 0 -142 20t-48 58q0 24 21 52q51 69 54 94zM326 544l-4 -95q-1 -14 -1 -21q0 -14 5 -20.5t22 -6.5q47 0 66.5 24.5t19.5 73.5q0 44 -13 68q-17 31 -57 31q-25 0 -31.5 -12.5t-6.5 -41.5z" />
    <glyph glyph-name="S" unicode="S" horiz-adv-x="690" 
d="M138 305q-43 34 -69 79.5t-26 97.5q0 87 74 155q85 78 220 78q32 0 61.5 -4.5t59.5 -9.5q7 0 27 -7q28 -11 57 -21q39 -10 67 -38q38 -38 38 -95q0 -28 -16 -48t-43 -20q-29 0 -91 57t-119 57q-27 0 -45.5 -12t-18.5 -38q0 -45 80 -73q128 -45 168 -72q50 -33 72 -65
q26 -38 26 -91q0 -99 -77 -168q-90 -81 -252 -81q-66 0 -123 9q-78 12 -113 39q-43 33 -57 55q-17 27 -17 70q0 20 3 48.5t10 42.5q11 22 32 22q22 0 79.5 -79.5t163.5 -79.5q25 0 49 12q33 16 33 42q0 36 -123 74q-82 26 -130 64z" />
    <glyph glyph-name="T" unicode="T" horiz-adv-x="760" 
d="M258 701h246q24 0 42 1.5t31 4.5t24.5 4t21.5 1q34 0 69 -45q41 -53 41 -127q0 -43 -14 -68q-17 -30 -53 -30q-48 0 -82 63t-55 63q-25 0 -32 -29q-3 -12 -3 -36v-307q0 -71 62 -98q30 -13 30 -34q0 -33 -32 -51q-50 -29 -174 -29q-118 0 -177 19t-59 58q0 21 45 43
q26 13 33.5 28.5t12 50.5t4.5 57l8 221q0 70 -10 93q-6 14 -21 14q-18 0 -58 -58t-85 -58q-27 0 -42 23.5t-15 53.5q0 64 38.5 123.5t80.5 59.5q7 0 14 -0.5t17.5 -2.5t41.5 -5t50 -3z" />
    <glyph glyph-name="U" unicode="U" horiz-adv-x="862" 
d="M629 279v249q0 59 -43 80t-43 44q0 39 63 53q33 7 94 7q54 0 83 -7q55 -13 55 -51q0 -24 -20 -36q-45 -28 -45 -77q1 -16 1 -27q4 -78 4 -126v-15v-13v-12q0 -20 -1 -39.5t-4 -37.5q-13 -117 -19 -136q-21 -71 -86 -106q-80 -43 -240 -43q-223 0 -299 74q-52 51 -52 169
v36.5t1 36.5q0 33 6.5 84t6.5 68q0 24 -2.5 39.5t-9.5 36.5t-36 57q-24 30 -24 55q0 21 5 28q28 42 185 42q113 0 159 -20q37 -16 37 -49q0 -24 -39 -41t-39 -86v-184q0 -93 36.5 -144t114.5 -51t117 42q34 37 34 100z" />
    <glyph glyph-name="V" unicode="V" horiz-adv-x="844" 
d="M712 507l-215 -431q-22 -44 -35 -59q-24 -28 -60 -28q-40 0 -61 22q-13 13 -34 58l-199 440q-20 45 -29 55q-4 4 -34 23q-13 8 -22.5 23.5t-7.5 30.5q5 36 51 53.5t144 17.5q107 0 154.5 -15.5t47.5 -49.5q0 -13 -31 -43q-16 -16 -16 -32q0 -11 5.5 -27.5t22.5 -48.5
q27 -51 34.5 -68t15.5 -34q12 -22 26 -22q24 0 45 41q8 17 17 34q20 37 32 61q24 47 25.5 58t1.5 16.5v7.5q0 32 -23.5 41t-23.5 25q0 41 72 52q27 4 67 4h22q86 0 111 -14q16 -9 16 -34q0 -22 -13 -31q-5 -4 -21 -12q-30 -16 -51 -48q-7 -11 -34 -66z" />
    <glyph glyph-name="W" unicode="W" horiz-adv-x="1093" 
d="M439 78q-17 -43 -22 -51q-22 -38 -74 -38q-38 0 -59 23q-14 16 -30 58q-13 42 -25 84q-30 95 -65 190q-44 120 -86 201q-4 8 -37 46q-21 24 -21 60q0 45 67 56q29 5 66 5h28q104 0 137.5 -15t33.5 -49q0 -13 -12.5 -27.5t-12.5 -25.5q0 -4 2 -12l35 -114q10 -31 18 -49
q17 -37 32 -37q17 0 40 64q16 45 25 62q0 12 -7 36.5t-24 46.5q-18 18 -26 27q-16 17 -16 32q0 31 30 43q46 18 150 18q125 0 165 -22q20 -11 20 -35q0 -16 -29 -49q-13 -15 -11 -23q20 -80 49 -134.5t48 -54.5q22 0 51 84q26 75 26 95t-32.5 36t-32.5 45q0 40 56 52
q27 6 87 6q42 0 61 -9q30 -14 30 -52q0 -26 -17 -47q-25 -32 -37 -64l-162 -445q-24 -64 -47 -85t-54 -21q-35 0 -54 18q-14 13 -28.5 46.5t-48.5 115t-45 105.5q-22 45 -29 45q-12 0 -46.5 -81.5t-66.5 -159.5z" />
    <glyph glyph-name="X" unicode="X" horiz-adv-x="835" 
d="M610 532q-18 -17 -46 -55q-9 -12 -23 -33q-5 -6 -8 -10q-6 -8 -6 -11q0 -4 6 -12t8 -10q15 -21 30 -41q19 -26 71.5 -94t80.5 -100q13 -15 44 -34q48 -30 48 -67v-12q0 -30 -33 -45q-54 -24 -195 -24h-20q-70 0 -105 8q-64 15 -64 53q0 21 20.5 38.5t20.5 25.5
q0 17 -22 52q-11 17 -34 48q-5 7 -8 10.5t-9 3.5q-10 0 -42 -47t-32 -58q0 -9 13.5 -35t13.5 -51q0 -24 -26 -33.5t-126 -9.5q-96 0 -127 21q-20 13 -20 47q0 19 25 37.5t54 25.5t35 15q17 25 44 59l92 115q5 6 9.5 12t4.5 9q0 4 -5 10.5t-9 11.5q-30 42 -48 67
q-56 76 -94 117q-13 14 -48 33q-53 29 -53 65q0 32 26 47q53 31 211 31q100 0 130 -15q24 -12 24 -48q0 -26 -14 -43q-7 -8 -7 -16q0 -12 21.5 -36.5t30.5 -24.5q10 0 31 26t21 35q0 5 -15 30q-8 14 -8 31q0 31 23 43q34 18 134 18q60 0 88 -7q58 -15 58 -56q0 -30 -23 -41
q-13 -6 -49 -9q-21 0 -39 -12q-5 -3 -60 -55z" />
    <glyph glyph-name="Y" unicode="Y" horiz-adv-x="819" 
d="M697 572q-31 -28 -81 -85q-16 -18 -42 -50q-31 -39 -39 -68.5t-8 -86.5q0 -72 3 -103t11 -48q5 -10 38 -28q29 -15 29 -42q0 -46 -85 -63q-46 -9 -122 -9q-129 0 -184 26q-38 18 -38 46q0 30 30 42q37 15 45 33.5t12 55t4 110.5q0 36 -13 65q-19 34 -31 56
q-19 35 -51 67.5t-62 63.5q-47 36 -65.5 54t-18.5 41q-2 12 -2 18q0 20 31 30q47 15 167 15q136 0 181 -22q25 -12 25 -39q0 -13 -18 -36q-10 -13 -10 -21q0 -18 24 -51.5t41 -33.5q14 0 33 18q35 33 35 58q0 9 -19 36q-10 14 -10 32q0 29 38.5 44t115.5 15q89 0 116 -12
t27 -47q0 -30 -56 -53q-36 -15 -51 -28z" />
    <glyph glyph-name="Z" unicode="Z" horiz-adv-x="721" 
d="M623 584l-200 -345q-15 -25 -25 -44q-19 -36 -19 -47q0 -12 16.5 -17.5t52.5 -5.5q102 0 130 57q36 73 49.5 78.5t23.5 5.5q24 0 36 -27.5t12 -63.5q0 -75 -28.5 -129.5t-57.5 -54.5l-148 4q-23 -1 -40 -2q-119 -7 -184 -7h-14h-12q-47 0 -67.5 2.5t-28 2.5h-11.5
q-45 0 -58 5q-28 10 -28 47q0 11 22 51t44 79q31 59 84 149q47 81 82 137.5t36 56.5q10 15 11 18q7 13 7 20q0 17 -20 23t-46 6q-70 0 -101 -65t-60 -65t-44 25t-15 58q0 58 21.5 106.5t47 54.5t45.5 6q10 0 52 -2t83 -2t132 4q205 9 208 9q51 0 51 -46q0 -12 -16 -42
q-8 -14 -23 -40z" />
    <glyph glyph-name="bracketleft" unicode="[" horiz-adv-x="499" 
d="M427 -101q21 0 33.5 -9t12.5 -25q0 -32 -38.5 -43.5t-143.5 -11.5q-113 0 -134 14q-34 22 -34 141v511v44q0 112 29 137q24 21 133 21q107 0 146 -11t39 -41q0 -36 -51 -36l-61 3q-36 0 -44 -12t-8 -67v-512v-37q0 -46 10 -58t52 -12q10 0 34 2t25 2z" />
    <glyph glyph-name="backslash" unicode="\" horiz-adv-x="472" 
d="M462 -34q20 -37 31 -59q21 -42 21 -55q0 -18 -22.5 -30t-55.5 -12q-27 0 -38.5 14.5t-37.5 84.5l-48 115l-176 400q-33 67 -55 111q-42 85 -42 104q0 17 21.5 28t57.5 11q24 0 34 -8.5t20 -36.5l68 -170l176 -402z" />
    <glyph glyph-name="bracketright" unicode="]" horiz-adv-x="499" 
d="M376 11v-43q0 -111 -24.5 -134.5t-138.5 -23.5q-110 0 -147.5 10.5t-37.5 40.5q0 37 52 37l60 -3q37 0 45 12t8 67v511v38q0 47 -10.5 58.5t-52.5 11.5q-9 0 -32.5 -2t-25.5 -2q-21 0 -33.5 9t-12.5 25q0 32 38.5 43.5t143.5 11.5q112 0 133 -14q35 -24 35 -141v-512z
" />
    <glyph glyph-name="asciicircum" unicode="^" horiz-adv-x="501" 
d="M306 667l193 -300h-109l-140 210l-140 -210h-109l192 300h113z" />
    <glyph glyph-name="underscore" unicode="_" horiz-adv-x="501" 
d="M501 -67v-119h-501v119h501z" />
    <glyph glyph-name="grave" unicode="`" horiz-adv-x="501" 
d="M342 615q19 -14 23 -18q12 -12 12 -27q0 -36 -51 -36q-89 0 -163 57q-41 33 -41 53q0 23 32 39t81 16q39 0 61 -8t22 -21q0 -3 -4 -10t-4 -11q0 -10 12 -20q15 -10 20 -14z" />
    <glyph glyph-name="a" unicode="a" horiz-adv-x="596" 
d="M522 339v-100q0 -61 35 -100q16 -18 16 -40q0 -43 -43.5 -78t-98.5 -35q-46 0 -73.5 25.5t-32.5 25.5q-33 -21 -67 -36t-78 -15q-68 0 -111 34q-49 39 -49 109q0 62 53 106q64 53 185 53q28 0 34 3q11 6 11 31q0 56 -11.5 79t-35.5 23q-26 0 -52 -34q-57 -74 -103 -74
q-24 0 -40 15t-16 40q0 59 90 100q82 37 174 37q68 0 128 -32q85 -45 85 -137zM279 215q-29 0 -43 -19t-14 -45q0 -22 11 -38t32 -16q25 0 36 21q8 16 8 44q0 23 -4 34q-7 19 -26 19z" />
    <glyph glyph-name="b" unicode="b" horiz-adv-x="665" 
d="M298 658q0 -55 -2 -95.5t-4 -97.5q0 -16 7 -16q29 24 69 43t83 19q81 0 135.5 -61.5t54.5 -159.5q0 -130 -83 -217t-211 -87q-62 0 -97 14q-36 18 -71 36q-16 0 -31 -22.5t-46 -22.5q-25 0 -36 7q-17 10 -17 37v11q2 7 2 10q6 47 13 100.5t7 77.5q0 39 2 70q6 94 6 103
q0 34 -1.5 48t-6 43t-41.5 57q-16 12 -16 37q0 31 97.5 70t161.5 39q17 0 21 -11.5t4 -31.5zM422 203q0 54 -14 94q-21 60 -65 60q-30 0 -39.5 -18.5t-9.5 -51.5q0 -141 9.5 -175.5t41.5 -34.5q44 0 63 44q14 32 14 82z" />
    <glyph glyph-name="c" unicode="c" horiz-adv-x="553" 
d="M20 250q0 109 83 185t207 76q105 0 169 -51q57 -45 57 -105q0 -42 -26 -69t-69 -27q-57 0 -79 62t-58 62q-31 0 -49.5 -26t-18.5 -59q0 -58 38.5 -103.5t95.5 -45.5q30 0 55.5 8.5t51.5 17.5q20 0 31.5 -18t11.5 -39q0 -48 -62 -88q-69 -44 -168 -44q-115 0 -192.5 74.5
t-77.5 189.5z" />
    <glyph glyph-name="d" unicode="d" horiz-adv-x="683" 
d="M620 647q0 -76 -4 -133q-12 -172 -12 -189q0 -73 11 -161q2 -19 26.5 -41.5t24.5 -41.5q0 -7 -3 -16q-12 -39 -60 -59q-42 -17 -105 -17q-46 0 -69.5 27.5t-33.5 27.5q-31 -23 -67 -40.5t-78 -17.5q-94 0 -158 82q-60 77 -60 175q0 105 63 184q67 84 168 84q35 0 65 -9
q27 -11 54 -21q10 0 15.5 16.5t5.5 27.5q0 32 -29 47t-29 41q0 46 119 72q39 8 119 16q21 0 29 -15t8 -39zM399 278q0 50 -7 76q-13 48 -51 48q-43 0 -64 -63q-15 -46 -15 -99q0 -50 13 -82q19 -47 61 -47t56 67q7 35 7 100z" />
    <glyph glyph-name="e" unicode="e" horiz-adv-x="557" 
d="M474 237q-27 -8 -48.5 -11t-41.5 -3q-5 0 -47.5 3.5t-72.5 3.5h-18q-9 -2 -9 -14q0 -36 37 -64t75 -28q36 0 68.5 14.5t64.5 30.5q14 0 26.5 -17.5t12.5 -32.5q0 -54 -81 -95q-75 -38 -150 -38q-126 0 -196 81q-62 72 -62 178q0 116 76 191t190 75q115 0 180 -68
q52 -55 52 -124q0 -45 -15 -62q-10 -12 -41 -20zM292 323q31 0 40 3q19 6 19 30q0 28 -16 46t-43 18q-24 0 -42 -20.5t-18 -45.5q0 -15 8 -23t35 -8h17z" />
    <glyph glyph-name="f" unicode="f" horiz-adv-x="446" 
d="M86 145q7 28 10.5 44.5t3.5 51.5q1 13 1 20q0 15 -5.5 25.5t-23.5 16.5q-19 4 -32 7t-17.5 13.5t-8.5 23t-4 22.5q0 21 16 37q2 2 22.5 4t20.5 12q-18 33 -31 62q-16 34 -16 63q0 81 74 124q61 35 149 35q108 0 161 -48q40 -36 40 -81q0 -31 -22 -54t-54 -23
q-45 0 -103 61q-27 29 -52 29q-15 0 -24.5 -10.5t-9.5 -25.5q0 -38 44 -73q34 -28 69 -55q3 -4 14.5 -10.5t17.5 -6.5q16 0 36.5 2.5t21.5 2.5q11 0 18 -2t15 -10q15 -12 15 -36q0 -26 -14 -43q-5 -7 -19 -10.5t-28 -3.5q-43 0 -50 -9t-7 -59q0 -24 2 -45.5t9.5 -46.5
t47.5 -40t40 -47q0 -30 -29 -45q-53 -28 -198 -28q-66 0 -102 9q-66 17 -66 62q0 30 29 46q34 19 39 39z" />
    <glyph glyph-name="g" unicode="g" horiz-adv-x="607" 
d="M198 147q0 -20 25 -30q18 -7 42 -7q18 0 69.5 1t112.5 3q76 0 111 -33q29 -27 29 -78q0 -81 -67 -136q-85 -70 -251 -70q-128 0 -194 43q-56 36 -56 91q0 34 25 53t25 21t-20.5 30.5t-20.5 54.5q0 35 21 61q23 22 47 45q-27 30 -46 63q-22 38 -22 74q0 82 88 131
q74 41 164 41q23 0 57 -4q76 -9 83 -9q38 0 59 10q22 16 45 33q15 5 23 5q24 0 31 -27q3 -11 3 -39t-12 -50q-14 -21 -28 -41l3 -31q0 -93 -86 -141q-72 -40 -181 -40q-31 0 -55 -6.5t-24 -17.5zM162 -50q0 -35 44 -53q34 -14 73 -14q40 0 66 8q42 13 42 43q0 15 -11.5 22.5
t-27.5 7.5q-14 0 -25 -1q-54 -5 -61 -5q-13 0 -48 4t-40 4q-12 0 -12 -16zM350 317q0 45 -11 73q-16 42 -54 42q-27 0 -41.5 -22t-14.5 -50q0 -42 11 -74q16 -47 50 -47q32 0 46 22t14 56z" />
    <glyph glyph-name="h" unicode="h" horiz-adv-x="713" 
d="M650 310q0 -24 -0.5 -45.5t-0.5 -41.5q0 -16 1 -34t4.5 -44t25.5 -74q8 -18 8 -40q0 -29 -39 -40q-28 -8 -78 -8q-12 0 -23 0.5t-20 0.5q-49 0 -77 6q-55 12 -55 45q0 14 11 36t15.5 47t5.5 46t1 55q0 60 -9 90q-16 54 -63 54q-45 0 -53 -47q-4 -34 -6.5 -55t-2.5 -38
q0 -16 1.5 -42.5t1.5 -30.5q0 -19 20 -64q10 -23 10 -38q0 -38 -56 -56q-40 -13 -86 -13q-99 0 -135 14q-27 10 -31 37q-3 19 7 34q34 53 40 77t8.5 97.5t2.5 132.5q0 24 -2 78.5t-2 57.5q0 38 -23.5 55t-23.5 38q0 49 123 80q41 10 123 21q19 0 24 -12q5 -18 9.5 -30
t7 -25.5t2.5 -29.5q0 -17 -11 -77q-6 -33 -6 -54q0 -25 3.5 -38t20.5 -13q31 34 64 60q37 29 91 29q122 0 155 -62q17 -32 17 -139z" />
    <glyph glyph-name="i" unicode="i" horiz-adv-x="375" 
d="M305 464q-5 -33 -8 -67t-3 -66q0 -30 3 -67t7 -70t24 -72.5t20 -67.5q0 -44 -61 -58q-30 -7 -95 -7q-113 0 -151 22q-22 13 -22 41q0 16 19 34q23 22 29 38.5t11 52t5 73.5q0 30 -4.5 55t-31 47t-26.5 60q0 35 77 61q102 35 176 35q17 0 24.5 -9.5t7.5 -23.5q0 -8 -1 -11
zM300 638q0 -51 -75 -78q-56 -20 -118 -20q-35 0 -56.5 16t-21.5 52q0 44 68 71q55 22 106 22q39 0 63 -12q34 -17 34 -51z" />
    <glyph glyph-name="j" unicode="j" horiz-adv-x="375" 
d="M311 638q0 -51 -75 -78q-56 -20 -118 -20q-36 0 -59 15q-28 18 -28 53q0 44 72 71q58 22 111 22q39 0 63 -12q34 -17 34 -51zM78 -33q3 34 6 69.5t3 52.5q0 48 -1 73q-4 99 -4 128q0 21 -30 48t-30 55q0 59 133 90q44 10 134 20q48 -9 48 -35q0 -12 -7 -39
q-10 -37 -13 -68.5t-3 -71.5q0 -29 9 -147q5 -66 5 -117q0 -58 -7 -96.5t-31.5 -68.5t-68 -46.5t-87.5 -16.5q-10 0 -34 -2t-26 -2q-20 0 -34 5.5t-24.5 19t-17 31.5t-6.5 33q0 24 16 33q28 8 57 15q13 8 13 37z" />
    <glyph glyph-name="k" unicode="k" horiz-adv-x="771" 
d="M461 33q-28 19 -50 55q-30 50 -43 64q-14 18 -20 26q-11 14 -18 14q-4 0 -7 -7.5t-3 -20.5q0 -51 24 -82q12 -16 12 -34q0 -29 -20 -40q-34 -19 -138 -19h-43q-80 0 -103.5 14t-23.5 44q0 19 25.5 37t25.5 65q0 32 7 110q4 45 4 69t2.5 57t2.5 36q0 11 -1 23.5t-3.5 26.5
t-46.5 67q-20 24 -20 43q0 6 1 10q12 51 119 84q83 26 145 26q18 0 28.5 -17t8.5 -33q-3 -36 -4 -81.5t-1 -50.5v-80q0 -10 -1 -23t-2 -25q0 -13 3.5 -21t12.5 -8q20 0 58 26q22 15 22 23q0 7 -7.5 22t-7.5 25q0 26 38.5 40.5t108.5 14.5q58 0 89 -8q58 -15 51 -55
q-11 -57 -58 -62l-44 -4q-17 -5 -33 -16.5t-16 -20.5q0 -17 57 -98q52 -74 73 -94q47 -40 61 -54q23 -22 23 -48q0 -27 -38 -40q-20 -7 -40 -13q-30 -11 -61 -11q-23 0 -54 6t-50.5 13.5t-44.5 24.5z" />
    <glyph glyph-name="l" unicode="l" horiz-adv-x="387" 
d="M318 393q0 -36 -1 -55q-4 -77 -4 -89q0 -30 0.5 -59t3 -54.5t29.5 -49.5t27 -46q0 -31 -35 -44q-25 -9 -73 -9q-12 0 -32 1t-25 1h-36q-61 0 -93 9q-51 14 -51 52q0 15 12 25q34 27 38 39q8 25 10.5 90t2.5 125v56v13q0 55 -7.5 91.5t-35 53.5t-27.5 45q0 43 79 74
q100 39 184 39q24 0 33 -13t9 -39z" />
    <glyph glyph-name="m" unicode="m" horiz-adv-x="1025" 
d="M70 187q0 13 1 32.5t1 27.5v11v10q-2 7 -2 11q-23 63 -45 127q0 46 122 79q40 10 123 23q17 0 22 -11t5 -32v-12q0 -16 3 -25t14 -9q34 34 76 60q48 29 105 29t91 -28q25 -31 50 -61q35 34 78 60q48 29 98 29q67 0 108 -44q36 -39 46 -106q2 -9 2 -25t1 -25q0 -20 -3 -57
t-3 -57q0 -21 3 -47q16 -49 32 -97q0 -40 -59 -56q-37 -10 -89 -10q-51 0 -82 7q-57 13 -57 47q0 19 6 38q18 57 20 76t2 38q0 18 -3.5 50.5t-6.5 73.5q-9 44 -45 44q-40 0 -44.5 -39t-6.5 -60.5t-2 -27.5q0 -10 1 -23t1 -17q0 -27 8 -63q18 -80 18 -86q0 -43 -55 -59
q-32 -9 -91 -9q-101 0 -128 18q-15 10 -15 45q-1 6 -1 10q0 22 10 47q24 59 24 81v21.5t1 20.5q0 9 -1 15q-4 41 -7 83q-9 43 -45 43q-40 0 -44.5 -39.5t-6.5 -65.5q-3 -17 -3 -29q0 -11 1.5 -30t1.5 -22q0 -30 8.5 -75t8.5 -57q0 -25 -26 -40q-37 -21 -119 -21
q-77 0 -109.5 12t-32.5 40q0 23 10 52q28 81 30 104z" />
    <glyph glyph-name="n" unicode="n" horiz-adv-x="705" 
d="M315 425q10 0 21.5 13.5t23.5 28.5q19 19 39 28q28 13 68 13q89 0 133 -51q50 -58 50 -222q0 -21 -0.5 -41.5t-0.5 -40.5q0 -44 24 -76q12 -16 12 -33q0 -28 -16 -39q-37 -26 -158 -26q-52 0 -77 6q-50 12 -50 48q0 15 16.5 37t16.5 57q0 23 1 37q5 69 5 76q0 55 -12 82
q-16 36 -55 36q-46 0 -50.5 -42.5t-7.5 -67.5t-3 -40q0 -17 2.5 -41t24.5 -88q10 -29 10 -45q0 -39 -69 -53q-35 -7 -100 -7h-17q-51 0 -74 7q-41 12 -41 48q0 26 15.5 64t18.5 58.5t4 43t1 24.5q0 19 -0.5 36t-0.5 33v14q0 21 -21.5 45.5t-21.5 51.5q0 41 68 70
q90 39 166 39q15 0 25.5 -11.5t10.5 -27.5q0 -3 7 -18q11 -22 12 -26z" />
    <glyph glyph-name="o" unicode="o" horiz-adv-x="633" 
d="M292 -14q-116 0 -187 60q-76 64 -76 179q0 130 93 210q88 76 218 76q123 0 198 -84q66 -74 66 -177q0 -116 -101 -193q-93 -71 -211 -71zM385 174q0 60 -18 126q-26 93 -70 93q-23 0 -36 -18t-13 -42q0 -70 19 -134q26 -87 72 -87q26 0 36 17t10 45z" />
    <glyph glyph-name="p" unicode="p" horiz-adv-x="699" 
d="M321 455q25 11 50 23q62 33 110 33q92 0 147 -80q49 -71 49 -168q0 -111 -55 -191q-63 -91 -166 -91q-24 0 -55.5 9.5t-62.5 20.5q-9 0 -12.5 -10.5t-3.5 -21.5q0 -41 26 -63t26 -43q0 -36 -68 -50q-39 -8 -97 -8q-96 0 -142.5 24.5t-46.5 65.5q0 25 20 41q26 21 34.5 37
t11.5 39.5t3 52.5q0 14 -0.5 28.5t-0.5 30.5v9v55q0 12 1 33t1 30q0 20 -1.5 28t-7.5 23q-26 16 -40.5 32.5t-14.5 45.5q0 46 95 83q84 33 151 33q36 0 49 -51zM435 236q0 64 -19.5 90.5t-53.5 26.5q-29 0 -37 -25q-11 -35 -11 -162q0 -50 51 -50q41 0 58 42q12 29 12 78z
" />
    <glyph glyph-name="q" unicode="q" horiz-adv-x="681" 
d="M32 250q0 128 68.5 194.5t191.5 66.5q37 0 79 -4.5t87 -9.5q21 0 67 7t66 7q16 0 30 -22.5t14 -55.5v-15q-3 -12 -4 -18q-8 -34 -11.5 -90t-3.5 -214l3 -104q0 -66 28 -88q14 -11 14 -34q0 -41 -49 -59q-35 -13 -83 -13q-76 0 -120 10q-82 19 -82 69q0 21 27.5 46.5
t27.5 69.5q0 27 -14 27q-30 -13 -59.5 -23.5t-63.5 -10.5q-104 0 -162 81q-51 72 -51 183zM391 241v17t1 20q0 52 -9 79q-14 42 -50 42q-30 0 -47.5 -34.5t-17.5 -88.5q0 -75 24 -118t56 -43q26 0 36 31q7 21 7 62v33z" />
    <glyph glyph-name="r" unicode="r" horiz-adv-x="567" 
d="M81 237q0 7 1 20t1 18q0 15 -5 28q-12 36 -36 66q-20 25 -20 41q0 36 72 63q94 35 165 35q27 0 33.5 -8t9.5 -36q0 -20 4 -27.5t13 -7.5q29 30 59 53q34 26 75 26q48 0 73.5 -33.5t25.5 -85.5q0 -49 -38 -80t-91 -31q-37 0 -64.5 25.5t-35.5 25.5q-13 0 -18 -19t-5 -45
v-21q0 -49 8 -110q3 -21 34 -42t31 -46q0 -37 -36 -49q-25 -8 -99 -8h-46h-21q-64 0 -97 9q-56 15 -56 55q0 20 12 34q36 42 37 46q6 20 10 47t4 57z" />
    <glyph glyph-name="s" unicode="s" horiz-adv-x="501" 
d="M76 23q-21 20 -37 50.5t-16 57.5q0 24 9 40t29 13q13 -2 83 -69q31 -30 57 -30q17 0 28 7.5t11 24.5q0 16 -98 73t-98 153q0 67 45 115q35 37 81 52q18 6 45 9t47 3q17 0 33.5 -2t45.5 -7t43 -11q33 -14 61 -50.5t28 -67.5q0 -21 -13 -37t-33 -16q-30 0 -71 37t-62 37
q-15 0 -25.5 -7.5t-10.5 -21.5q0 -24 57 -54q78 -42 105 -64q58 -48 58 -113q0 -66 -60 -109q-53 -38 -135 -50q-24 -4 -54 -4q-51 0 -92 11t-61 30z" />
    <glyph glyph-name="t" unicode="t" horiz-adv-x="495" 
d="M321 353q-3 -21 -5 -39.5t-2 -37.5q0 -34 6 -68.5t18 -54.5t32 -20q18 0 44.5 11.5t31.5 11.5q11 0 17 -11.5t6 -26.5q0 -8 -1 -11q-11 -51 -69 -86t-134 -35q-52 0 -101 39q-63 51 -63 139v197q0 26 -3 31q-7 13 -38 16q-14 0 -29.5 1.5t-19.5 36.5q-2 13 2.5 27.5
t11.5 20t66 30.5q25 11 45 23.5t57 46.5q20 18 37 30q11 7 16.5 9t35.5 2q32 0 37 -4t5 -38q0 -56 7 -66q17 -8 32 -16q9 -5 20 -5q5 0 23 3.5t27 1.5q25 -6 30 -9q13 -9 13 -39q0 -38 -13 -50q-9 -8 -31 -8q-13 0 -24.5 1t-22.5 2q-14 0 -24 -6q-35 -18 -40 -49z" />
    <glyph glyph-name="u" unicode="u" horiz-adv-x="714" 
d="M301 470q7 -46 7 -90q0 -31 -3.5 -88t-3.5 -79q0 -57 14.5 -78t42.5 -21q30 0 46 23.5t16 87.5v31v40v44q-3 17 -4 24q-4 25 -28 42t-24 38q0 29 66 46.5t168 17.5q51 0 51 -56l-2 -95q0 -27 -1.5 -59.5t-2.5 -70.5v-42q3 -20 4 -29t35 -50q14 -17 14 -39q0 -53 -123 -71
q-48 -7 -97 -7q-44 0 -55 37q-5 18 -22 18q-33 -21 -68.5 -38t-77.5 -17q-86 0 -127 42q-47 48 -47 197v61q0 92 -38 117q-19 12 -19 38q0 40 121 56q61 8 127 8q14 0 20.5 -6.5t10.5 -31.5z" />
    <glyph glyph-name="v" unicode="v" horiz-adv-x="669" 
d="M245 59q-58 114 -76 148q-32 60 -76 133q-6 11 -44 55q-26 31 -26 55v16q0 23 24 31q35 11 147 11h20t24 1q46 0 76 -8.5t30 -34.5q0 -16 -9.5 -36t-9.5 -39q0 -20 22 -59t40 -39q28 0 56 63q13 29 13 42q0 10 -13 34q-7 13 -7 25q0 25 31.5 38t94.5 13q38 0 55 -5
q34 -10 34 -39q0 -28 -27 -52q-40 -36 -47 -45q-53 -74 -93 -150q-12 -22 -76 -154q-15 -31 -40.5 -56.5t-42.5 -25.5q-26 0 -47 24q-14 16 -33 54z" />
    <glyph glyph-name="w" unicode="w" horiz-adv-x="1039" 
d="M519 214q-11 0 -18.5 -7t-25.5 -38q-9 -16 -35 -63q-18 -34 -38.5 -65t-25.5 -36q-15 -16 -36 -16q-23 0 -42 22q-22 31 -34 46q-53 64 -94 126q-15 22 -81 133q-1 3 -45 60q-25 33 -25 63q0 41 69 58q44 11 104 11q63 0 89 -5q61 -12 61 -50q0 -15 -3 -30.5t-6 -34.5
q0 -15 27 -53t44 -38q12 0 29 27t17 39q0 24 -35 55q-17 15 -17 30q0 25 22 37q43 23 169 23q61 0 86 -5q59 -12 59 -48q0 -20 -21 -48q-11 -15 -11 -24q0 -17 22 -52.5t38 -35.5q19 0 45 39q23 34 23 44q0 12 -5 28q-13 41 -13 56q0 29 28.5 37.5t69.5 8.5h14q43 0 61 -5
q37 -10 37 -43q0 -36 -47 -88q-35 -38 -45 -55q-22 -36 -60 -107q-34 -63 -58 -103q-44 -74 -47 -78q-29 -40 -58 -40q-25 0 -60 44q-14 17 -44 66q-8 10 -49 74q-27 41 -35 41z" />
    <glyph glyph-name="x" unicode="x" horiz-adv-x="632" 
d="M482 231q18 -29 41 -61q13 -19 27 -37q37 -33 51.5 -49.5t14.5 -35.5q0 -30 -17 -39q-37 -20 -168 -20h-31q-59 0 -88 8q-49 13 -49 49q0 19 20.5 30.5t20.5 25.5q0 15 -20.5 45.5t-33.5 30.5t-36.5 -38.5t-23.5 -53.5q0 -6 15 -28q8 -12 8 -25q0 -28 -42 -38
q-24 -6 -65 -6q-40 0 -59 5q-34 9 -34 35q0 25 22 46q29 23 59 46q27 45 41 66q27 42 40 66l9 13.5t3 8.5q0 6 -6.5 12.5t-8.5 9.5q-13 19 -26.5 38.5t-32.5 35.5q-12 10 -44 24q-47 20 -47 52t51 46.5t154 14.5q65 0 91 -4q67 -10 67 -46q0 -10 -6 -21q-14 -25 -14 -28
q0 -10 15.5 -31.5t24.5 -21.5t27 24t18 34q0 7 -10.5 22.5t-10.5 24.5q0 23 25.5 35t80.5 12q53 0 69 -13q11 -9 11 -33q0 -20 -26 -40q-37 -28 -46 -39.5t-28 -39.5q-22 -33 -27 -41t-12 -17q-13 -18 -13 -22q0 -3 7 -13t12 -19z" />
    <glyph glyph-name="y" unicode="y" horiz-adv-x="651" 
d="M504 232q-12 -30 -22 -57q-30 -84 -37 -101q-32 -82 -59 -126q-37 -61 -85 -92q-55 -35 -132 -35q-61 0 -103 28q-49 33 -49 92q0 38 23.5 62.5t60.5 24.5q52 0 73 -50.5t35 -50.5q18 0 28.5 15.5t10.5 33.5q0 27 -8 64t-29 87q-29 70 -59 121q-21 35 -76 112
q-9 12 -29 27q-32 24 -32 52q0 31 27 45q48 24 187 24q64 0 88.5 -13.5t24.5 -42.5q0 -12 -4 -28q-9 -37 -9 -46q0 -27 24 -70t37 -43q20 0 38 42t18 66t-13.5 42.5t-13.5 33.5q0 34 49 49q33 10 76 10q36 0 58 -8q34 -13 34 -43q0 -33 -39 -63q-27 -21 -41 -44t-27 -54.5
t-25 -63.5z" />
    <glyph glyph-name="z" unicode="z" horiz-adv-x="540" 
d="M483 410q-62 -113 -124 -225q-4 -10 -13 -27.5t-9 -24.5q0 -14 10 -19.5t26 -5.5q46 0 69.5 40.5t40.5 40.5q23 0 31 -26q4 -14 4 -50q0 -54 -33 -94q-29 -35 -57 -35q-12 0 -42 3q-80 8 -94 8q-54 0 -118 -2.5t-86 -2.5q-39 4 -52.5 16t-13.5 32q0 14 9 31l18 34
q17 37 43 76q71 106 78 119q15 26 30 53q9 17 9 23q0 13 -13 17t-31 4q-39 0 -56.5 -34.5t-41.5 -34.5q-20 0 -30 21t-10 46q0 48 24 83t49 35q3 0 106 -9q57 -5 88 -5h111h25.5t25.5 1q27 0 34 -4q17 -9 17 -29q0 -12 -8 -26.5t-16 -28.5z" />
    <glyph glyph-name="braceleft" unicode="{" horiz-adv-x="499" 
d="M419 -101q54 0 54 -36q0 -31 -39.5 -42t-151.5 -11q-82 0 -118 29q-41 33 -41 115v153q0 69 -44 87t-44 49q0 32 27 43q61 26 61 94v154q0 81 39 112.5t120 31.5q111 0 151 -11t40 -43q0 -35 -54 -35l-32 1q-51 0 -66 -11t-15 -50v-38v-121q0 -48 -16 -80
q-18 -23 -35 -45q21 -19 36 -50.5t15 -77.5v-122v-37q0 -38 15 -49t66 -11z" />
    <glyph glyph-name="bar" unicode="|" horiz-adv-x="501" 
d="M298 156v-333h-96v511v334h96v-512z" />
    <glyph glyph-name="braceright" unicode="}" horiz-adv-x="499" 
d="M430 290q34 -11 34 -47q0 -17 -9 -29t-25 -17q-33 -10 -44 -27.5t-11 -62.5v-153q0 -80 -38 -112t-120 -32q-111 0 -151 11t-40 42q0 36 53 36l30 -1q47 0 61 7q23 12 23 53v37v122q0 81 35 108q8 5 10 7q6 5 6 10q-1 4 -3 7t-5 6q-23 21 -33 50t-10 65v121v38
q0 38 -15.5 49.5t-65.5 11.5l-21 -1q-30 0 -42 4q-23 8 -23 31q0 32 38.5 43t152.5 11q82 0 118 -29q40 -33 40 -115v-154q0 -44 11 -62t44 -28z" />
    <glyph glyph-name="asciitilde" unicode="~" horiz-adv-x="602" 
d="M500 540l54 -61q-78 -129 -140 -129q-39 0 -107 41t-106 41q-25 0 -44.5 -18.5t-45.5 -67.5l-54 63q45 80 70 108q35 40 74 40t112.5 -47.5t98.5 -47.5t42.5 15.5t45.5 62.5z" />
    <glyph glyph-name="c128" horiz-adv-x="1024" 
d="M718 96q7 20 12 46t5 50q0 52 -18 80q-23 35 -74 35q-22 0 -30.5 -9.5t-8.5 -27.5v-126q0 -71 28 -86q14 -8 14 -25q0 -23 -29 -35t-61 -12h-90t-90 -1q-42 0 -67 14t-25 45q0 18 24 32q55 31 55 137q5 40 7 65q7 77 7 139q0 37 -2.5 67t-4.5 56q-8 29 -42 44
q-12 4 -22 4q-23 0 -56 -10q-13 -4 -40 -14q-18 -7 -34.5 -28.5t-55.5 -32.5q-6 -2 -15.5 -3.5t-18.5 -1.5q-39 0 -62 42q-10 17 -10 37q0 52 71 89.5t185 37.5q57 4 88 4q44 0 122 -3.5t100 -3.5q28 0 72.5 3.5t59.5 3.5q113 0 182.5 -37t69.5 -90q0 -20 -10 -37
q-23 -42 -62 -42q-19 0 -34 5q-39 11 -54 31q-18 23 -36 30q-32 12 -64 25q-33 11 -67 11q-17 0 -25 -8t-8 -37v-14v-81q0 -37 5.5 -51.5t27.5 -14.5q29 4 60.5 9t55.5 5q25 0 38 -2q47 -6 72 -13q38 -11 72.5 -35.5t48.5 -52t14 -87.5q0 -77 -34 -135q-43 -74 -133 -95
q-30 -7 -33 -7q-27 -5 -47 -5q-24 0 -37.5 5t-18 14.5t-5.5 15t-1 9.5q0 12 10 31q14 28 19 41z" />
    <glyph glyph-name="c129" horiz-adv-x="695" 
d="M337 198q0 -85 66 -102q31 -8 31 -40q0 -40 -55.5 -56t-178.5 -16q-111 0 -148 17q-28 13 -28 49q0 25 15 38q45 38 50.5 53t9 57t3.5 72v139v73v19q0 29 -3 52q-6 46 -34 61.5t-28 39.5q0 27 17 40.5t44 13.5q6 0 123 -5t166 -5h230q29 0 44.5 -29.5t15.5 -82.5
q0 -28 -16 -50.5t-43 -22.5q-26 0 -41 25q-34 57 -154 57q-42 0 -64 -44q-18 -35 -22.5 -87.5t-4.5 -95.5q0 -36 2.5 -92.5t2.5 -77.5zM327 793q-32 0 -43 9.5t-11 27.5q0 19 22 37q48 40 48 46q0 4 -4 11t-4 12q0 19 50 27q19 3 34 3q39 0 72 -10q50 -15 50 -46
q0 -28 -56 -68q-68 -49 -158 -49z" />
    <glyph glyph-name="c141" horiz-adv-x="869" 
d="M332 152q-1 -3 -1 -6.5v-4.5q0 -16 41 -60q20 -21 20 -39q0 -29 -32 -41q-44 -17 -164 -17q-108 0 -143 17q-25 12 -25 44q0 16 30 54q16 21 22 57.5t8 85.5t2 93v48q0 41 -2 78t-8 69q-6 41 -32.5 65.5t-26.5 42.5q0 8 3 22q11 41 23 45q22 7 177 7q64 0 88 -6
q54 -14 54 -59q0 -21 -14 -37q-32 -36 -32 -105q0 -13 2.5 -27.5t16.5 -14.5q19 0 62.5 53.5t43.5 72.5q0 9 -4 20q-9 24 -9 33q0 48 70 63q32 7 107 7q92 0 128 -14.5t36 -51.5q0 -47 -63.5 -51.5t-75.5 -16.5q-37 -30 -60 -53q-45 -44 -45 -70q0 -17 14 -38q4 -6 26 -32
q40 -49 64 -79q75 -92 120 -145q55 -40 75.5 -60.5t20.5 -50.5q0 -33 -27 -48q-15 -8 -58 -17q-32 -6 -52 -6t-41 2.5t-50 6t-58 30.5q-17 17 -35.5 34.5t-44.5 51.5q-8 11 -22 31q-22 34 -39 56q-33 43 -56 43q-7 0 -13 -3q-12 -7 -17 -26t-5 -39v-8t1 -6zM418 779
q-32 0 -43 9.5t-11 27.5q0 19 22 37q48 40 48 46q0 4 -4 11t-4 12q0 19 50 27q19 3 34 3q39 0 72 -10q50 -15 50 -46q0 -28 -56 -68q-68 -49 -158 -49z" />
    <glyph glyph-name="c142" horiz-adv-x="1080" 
d="M996 162q0 -24 6 -36.5t24.5 -23t24.5 -16.5q10 -10 10 -26q0 -26 -25 -39q-45 -24 -174 -35q-17 -2 -27.5 -2.5t-24.5 -0.5q-44 0 -67 10q-30 13 -30 43q0 17 14.5 32.5t14.5 45.5v16v11q0 14 -0.5 27t-0.5 24q0 51 -21 80q-25 35 -77 35q-22 0 -30.5 -9.5t-8.5 -27.5
v-102q0 -65 28 -93q14 -14 14 -42q0 -23 -29 -35t-61 -12h-90t-90 -1q-42 0 -67 14t-25 45q0 18 24 32q55 31 55 137q1 60 1.5 133.5t0.5 142.5q0 6 1 19t1 20q0 19 -8 32.5t-31 23.5q-12 4 -22 4q-23 0 -56 -10q-13 -4 -40 -14q-18 -7 -34.5 -28.5t-55.5 -32.5
q-6 -2 -15.5 -3.5t-18.5 -1.5q-39 0 -62 42q-10 17 -10 37q0 52 71 89.5t185 37.5q57 4 88 4q44 0 122 -3.5t100 -3.5q28 0 72.5 3.5t59.5 3.5q113 0 182.5 -37t69.5 -90q0 -20 -10 -37q-23 -42 -62 -42q-19 0 -34 5q-39 11 -54 31q-18 23 -36 30q-32 12 -64 25
q-33 11 -67 11q-17 0 -25 -8t-8 -37v-14v-81q0 -37 5.5 -51.5t27.5 -14.5q29 4 60.5 9t55.5 5q25 0 38 -2q47 -6 72 -13q38 -11 71 -34.5t47.5 -71.5t14.5 -129z" />
    <glyph glyph-name="c143" 
d="M722 -12q-8 0 -82 -3t-91 -3q-28 0 -61 -75t-59 -75q-19 0 -42 78t-51 78l-92 4q-64 5 -127 10q-85 15 -85 61q0 27 12 40q5 5 25 16t23 38t3 225q0 150 -5.5 178.5t-33.5 49.5q-12 9 -22 25.5t-10 31.5q0 26 25 40q32 18 103 18q13 0 24.5 -0.5t22.5 -0.5q79 0 105 -5
q69 -13 69 -59q0 -16 -7 -36q-18 -53 -19.5 -64t-4.5 -169t-3 -193q0 -61 28 -77q15 -9 71 -9q42 0 66 17q28 20 28 59q0 100 -2.5 230.5t-7.5 154t-38 53.5q-14 13 -14 33q0 38 54 52q32 8 98 8q125 0 171 -26q28 -16 28 -44q0 -17 -8 -26.5t-26.5 -19.5t-24.5 -23.5
t-6 -36.5v-260q0 -108 10 -136q4 -11 31 -33q10 -9 15 -15q16 -19 16 -32q0 -31 -29.5 -55t-76.5 -24z" />
    <glyph glyph-name="c144" horiz-adv-x="800" 
d="M755 310q6 -20 9 -43.5t3 -42.5q0 -45 -12 -87q-15 -52 -39 -83q-19 -24 -53.5 -46t-70.5 -35t-65 -13q-20 0 -38 8q-22 11 -22 21q0 6 23 29q15 15 23 29t12.5 30t9.5 50q2 8 2 16.5v12.5q0 14 -1.5 37.5t-1.5 25.5q0 54 -10 81q-17 45 -64 45q-29 0 -40.5 -20
t-15.5 -52.5t-4 -49.5q0 -16 1.5 -42.5t1.5 -30.5q0 -19 20 -64q10 -23 10 -38q0 -38 -56 -56q-40 -13 -86 -13q-99 0 -135 14q-27 10 -31 37q-3 19 7 34q34 53 40 77t8.5 97.5t2.5 132.5q0 6 1 28t1 34q0 23 -3.5 30.5t-19.5 10.5t-37 3q-25 0 -49 -1t-25 -1q-32 7 -32 31
q0 3 3.5 11.5t16.5 13.5q18 4 23.5 5.5t14.5 1.5q8 0 52 -5q17 -2 30 -2t16 4q7 12 -18 27t-25 38q0 49 123 80q41 10 123 21q20 0 28 -9q4 -5 7.5 -21t4.5 -21t1 -13t-2 -18q-5 -23 -6 -33l-1 -40q4 -4 19 -4q8 0 50.5 4t56.5 4q42 0 72.5 -6.5t41.5 -17.5q8 -7 8 -16
q0 -8 -6 -15t-10 -8q-16 -5 -127 -8t-111 -6q0 -25 3.5 -38t20.5 -13q31 15 67.5 27t89.5 12q71 0 114 -44q36 -36 56 -107z" />
    <glyph glyph-name="c157" horiz-adv-x="771" 
d="M312 380q0 -22 3.5 -34t18.5 -12q12 0 46 33t34 44q0 7 -7.5 22t-7.5 25q0 26 38.5 40.5t108.5 14.5h23q56 0 87 -8q50 -13 50 -47t-31 -48q-22 -10 -55 -10q-20 0 -58.5 -29t-38.5 -52q0 -31 61 -95q67 -63 77 -73q48 -39 63 -52q25 -21 25 -46q0 -27 -38 -40
q-20 -7 -40 -13q-30 -11 -61 -11q-23 0 -54 6t-50.5 13.5t-46 25.5t-48.5 54q-30 50 -43 64q-14 18 -20 26q-11 14 -18 14t-10.5 -15t-3.5 -25q0 -52 26 -74q14 -12 14 -30q0 -29 -20 -40q-34 -19 -138 -19h-43q-80 0 -103.5 14t-23.5 44q0 19 31.5 39t31.5 67
q0 48 1.5 103.5t1.5 60.5q0 40 -35 71.5t-30 52.5q10 44 66 60q35 10 101 10h29q38 0 74 -10q55 -15 55 -44q0 -27 -21 -44t-21 -33zM380 567q-32 0 -43 9.5t-11 27.5q0 19 22 37q48 40 48 46q0 4 -4 11t-4 12q0 19 50 27q19 3 34 3q39 0 72 -10q50 -15 50 -46
q0 -28 -56 -68q-68 -49 -158 -49z" />
    <glyph glyph-name="c158" horiz-adv-x="825" 
d="M755 310q0 -24 -0.5 -45.5t-0.5 -41.5q0 -16 1 -34t4.5 -44t25.5 -74q8 -18 8 -40q0 -29 -39 -40q-28 -8 -78 -8q-12 0 -23 0.5t-20 0.5q-49 0 -77 6q-55 12 -55 45q0 14 11 36t15.5 47t5.5 46t1 55q0 54 -10 81q-17 45 -64 45q-29 0 -40.5 -20t-15.5 -52.5t-4 -49.5
q0 -16 1.5 -42.5t1.5 -30.5q0 -19 20 -64q10 -23 10 -38q0 -38 -56 -56q-40 -13 -86 -13q-99 0 -135 14q-27 10 -31 37q-3 19 7 34q34 53 40 77t8.5 97.5t2.5 132.5q0 6 1 28t1 34q0 23 -3.5 30.5t-19.5 10.5t-37 3q-25 0 -49 -1t-25 -1q-32 7 -32 31q0 3 3.5 11.5
t16.5 13.5q18 4 23.5 5.5t14.5 1.5q8 0 52 -5q17 -2 30 -2t16 4q7 12 -18 27t-25 38q0 49 123 80q41 10 123 21q20 0 28 -9q4 -5 7.5 -21t4.5 -21t1 -13t-2 -18q-5 -23 -6 -33l-1 -40q4 -4 19 -4q8 0 50.5 4t56.5 4q42 0 72.5 -6.5t41.5 -17.5q8 -7 8 -16q0 -8 -6 -15
t-10 -8q-16 -5 -127 -8t-111 -6q0 -25 3.5 -38t20.5 -13q31 15 67.5 27t89.5 12q79 0 124.5 -38t45.5 -113z" />
    <glyph glyph-name="nonbreakingspace" unicode="&#xa0;" horiz-adv-x="500" 
 />
    <glyph glyph-name="exclamdown" unicode="&#xa1;" horiz-adv-x="450" 
d="M102 301v99q0 88 -5.5 122.5t-15.5 47.5q-5 7 -39 31q-23 17 -23 39q0 46 104 63q54 9 120 9q76 0 114 -9q69 -16 69 -61q0 -21 -22 -34q-34 -20 -39 -26q-12 -14 -16 -62.5t-4 -119.5v-99q0 -122 8 -155q5 -19 23 -30t35 -20q15 -11 15 -32q0 -34 -24 -48
q-47 -27 -189 -27q-92 0 -137.5 16t-45.5 49q0 21 26 38q20 13 24 18q10 12 16 55t6 136zM212 876q0 -51 -75 -78q-56 -20 -118 -20q-35 0 -56.5 16t-21.5 52q0 44 68 71q55 22 106 22q39 0 63 -12q34 -17 34 -51zM562 876q0 -51 -75 -78q-56 -20 -118 -20q-35 0 -56.5 16
t-21.5 52q0 44 68 71q55 22 106 22q39 0 63 -12q34 -17 34 -51z" />
    <glyph glyph-name="cent" unicode="&#xa2;" horiz-adv-x="375" 
d="M305 464q-5 -33 -8 -67t-3 -66q0 -30 3 -67t7 -70t24 -72.5t20 -67.5q0 -44 -61 -58q-30 -7 -95 -7q-113 0 -151 22q-22 13 -22 41q0 16 19 34q23 22 29 38.5t11 52t5 73.5q0 30 -4.5 55t-31 47t-26.5 60q0 35 77 61q102 35 176 35q17 0 24.5 -9.5t7.5 -23.5q0 -8 -1 -11
zM170 638q0 -51 -75 -78q-56 -20 -118 -20q-35 0 -56.5 16t-21.5 52q0 44 68 71q55 22 106 22q39 0 63 -12q34 -17 34 -51zM520 638q0 -51 -75 -78q-56 -20 -118 -20q-35 0 -56.5 16t-21.5 52q0 44 68 71q55 22 106 22q39 0 63 -12q34 -17 34 -51z" />
    <glyph glyph-name="sterling" unicode="&#xa3;" horiz-adv-x="730" 
d="M107 158q7 47 12.5 103t5.5 106q0 43 -4 84.5t-14 82.5q-4 17 -66 64q-27 21 -27 49q0 27 22.5 37.5t52.5 10.5l79 3q73 0 139.5 3t130.5 7q111 0 182 -54q80 -60 80 -168q0 -107 -78 -170q-73 -59 -182 -59q-20 0 -33 1q-51 4 -54 4q-16 0 -16 -16q0 -6 -0.5 -14
t-0.5 -20q0 -17 2 -31t52 -72q23 -26 23 -52q0 -42 -77 -63q-55 -15 -112 -15q-59 0 -110 13q-80 21 -80 63q0 25 21 43q50 43 52 60zM474 482q0 50 -25 82.5t-74 32.5q-26 0 -32 -7t-6 -25v-150q-1 -11 -1 -16q0 -14 9 -21t37 -7q47 0 69.5 30.5t22.5 80.5z" />
    <glyph glyph-name="currency" unicode="&#xa4;" horiz-adv-x="581" 
d="M500 613q20 0 34 -14t14 -34q0 -14 -13 -23q-40 -26 -42 -31q-6 -14 -6 -22q0 -11 28 -46t28 -82q0 -40 -27.5 -77t-27.5 -51q0 -13 5 -23.5t29.5 -25.5t24.5 -33q0 -16 -13 -28t-32 -14q-14 -1 -23 13q-26 42 -34 46t-18 4t-44 -30t-85 -30q-55 0 -87 30t-42 30t-21 -5
t-25 -31.5t-32 -26.5q-17 0 -29.5 13.5t-12.5 34.5q0 14 24 27t29.5 25t5.5 22q0 9 -27.5 42.5t-27.5 87.5q0 46 28 81t28 47q0 10 -6 22t-30.5 25t-24.5 29q0 20 14 34t34 14q16 0 34 -32q10 -18 23 -23.5t18 -5.5q4 0 32 28t95 28q51 0 78 -17q24 -20 49 -39q5 0 18 5.5
t27 30.5t30 25zM162 361q0 -64 39 -103t104 -39t100 38t35 104q0 63 -38.5 101.5t-103.5 38.5q-64 0 -100 -38t-36 -102z" />
    <glyph glyph-name="yen" unicode="&#xa5;" horiz-adv-x="695" 
d="M493 703q61 6 86 56q12 24 35 24q27 0 43 -24t16 -53q0 -52 -15.5 -82t-44.5 -30l-190 1q-42 0 -64 -44q-18 -35 -22.5 -87.5t-4.5 -95.5q0 -36 2.5 -92.5t2.5 -77.5q0 -85 66 -102q31 -8 31 -40q0 -40 -55.5 -56t-178.5 -16q-111 0 -148 17q-28 13 -28 49q0 25 15 38
q45 38 50.5 53t9 57t3.5 72v139v73v19q0 29 -3 52q-6 46 -34 61.5t-28 39.5q0 27 17 40.5t44 13.5q83 -3 175.5 -5.5t131.5 -2.5h13h11q41 0 64 3z" />
    <glyph glyph-name="brokenbar" unicode="&#xa6;" horiz-adv-x="300" 
d="M201 291l-1 -293h-99l1 293h99zM102 384l-1 292h99l1 -292h-99z" />
    <glyph glyph-name="section" unicode="&#xa7;" horiz-adv-x="556" 
d="M481 596q1 -5 1 -14q0 -26 -16 -41t-43 -15q-17 0 -37 8t-35.5 46.5t-67.5 38.5q-32 0 -55 -11.5t-23 -34.5q0 -22 12.5 -37.5t47.5 -37.5l146 -90q50 -31 73 -65q28 -41 28 -99q0 -54 -43 -96q-18 -18 -81 -57q38 -41 48 -54q25 -34 25 -67q0 -73 -58 -119
q-53 -42 -123 -42q-108 0 -166 48q-47 39 -47 91q0 20 10 37q14 23 39 23q18 0 41 -13t39 -38q25 -40 72 -40q39 0 52 5q25 10 25 42q1 11 1 15q0 16 -7 25.5t-29 26.5l-202 156q-34 26 -49.5 60.5t-15.5 61.5q0 59 28 98q22 31 72 60q-26 28 -36.5 50t-10.5 50q0 65 40 112
q50 58 140 58q89 0 147 -47q49 -40 58 -94zM346 293l-118 91q-29 -15 -40 -33t-11 -46q0 -21 21 -41q11 -10 35 -25q16 -16 26 -23q31 -24 52 -24q7 0 19 -2t17 -2q12 0 20 8t12 26.5t4 27.5q0 13 -9 22z" />
    <glyph glyph-name="dieresis" unicode="&#xa8;" horiz-adv-x="726" 
d="M139 701q59 -6 128 -6q52 0 91 2t69 4q67 0 108 6q30 7 61 14q49 0 68 -32q14 -23 14 -67q0 -12 -0.5 -22.5t-0.5 -20.5q0 -29 -11 -48q-14 -24 -41 -24q-31 0 -49 30q-41 66 -156 66q-69 0 -84.5 -15.5t-15.5 -74.5v-45q0 -44 9 -52t55 -8q39 0 50 52.5t40 52.5
q38 0 53 -58q9 -34 9 -88q0 -49 -13 -93q-18 -62 -54 -62q-22 0 -33 49.5t-68 49.5q-27 0 -36 -23q-5 -14 -5 -47q0 -105 18 -124q14 -15 97 -15q123 0 166 89q20 42 55 42q17 0 24 -18.5t7 -45.5q0 -11 0.5 -27t1.5 -37q0 -52 -13 -76q-19 -34 -68 -34q-10 0 -81 2.5
t-92 2.5h-122h-174q-59 0 -85.5 5t-26.5 28q0 29 34 80q16 24 16 72q0 95 2 145q6 150 6 175q0 38 -46 96q-22 28 -22 59q0 26 15.5 36t41.5 10q19 0 34 -2t24 -3zM317 883q0 -51 -75 -78q-56 -20 -118 -20q-35 0 -56.5 16t-21.5 52q0 44 68 71q55 22 106 22q39 0 63 -12
q34 -17 34 -51zM667 883q0 -51 -75 -78q-56 -20 -118 -20q-35 0 -56.5 16t-21.5 52q0 44 68 71q55 22 106 22q39 0 63 -12q34 -17 34 -51z" />
    <glyph glyph-name="copyright" unicode="&#xa9;" horiz-adv-x="858" 
d="M430 -19q-159 0 -270 107q-114 110 -114 272q0 161 113 269t271 108q157 0 269.5 -108.5t112.5 -268.5q0 -163 -111.5 -271t-270.5 -108zM153 360q0 -122 80 -203t197 -81t196 81t79 203q0 120 -79 201t-196 81q-118 0 -197.5 -80.5t-79.5 -201.5zM206 353q0 90 70 155
t161 65q28 0 57 -9q27 -10 55 -20q17 4 27 4q20 0 37 -28.5t17 -75.5q0 -29 -12.5 -46t-39.5 -17q-25 0 -60 53t-93 53q-32 0 -49 -23.5t-17 -52.5q0 -70 35.5 -117.5t96.5 -47.5q38 0 61 12q20 14 41 28q27 0 27 -34q-3 -29 -23 -51q-11 -12 -39 -30q-21 -13 -42 -21
q-39 -14 -84 -14q-94 0 -160 63t-66 154z" />
    <glyph glyph-name="ordfeminine" unicode="&#xaa;" horiz-adv-x="705" 
d="M589 194q31 0 58.5 -26.5t27.5 -63.5q0 -25 -14 -49q-26 -42 -99 -58q-52 -11 -146 -11q-158 0 -271 100q-118 105 -118 262q0 74 36 152q43 92 120 148q93 67 221 67q96 0 184 -59t88 -123q0 -26 -17 -47q-11 -14 -22 -20t-23 -6q-30 0 -92 57t-92 57q-49 0 -89 -45
t-40 -107q0 -8 20.5 -17.5t47.5 -9.5q12 0 18 1q33 7 49 9q29 5 46 5q22 0 34 -9t12 -30q0 -20 -15 -28.5t-40 -8.5q-19 0 -52.5 4.5t-36.5 4.5h-48q-37 -2 -49 -24q-6 -11 -8 -26t-2 -16q0 -7 1 -19t1 -16q0 -51 14 -84q19 -44 61 -51q23 -3 38 -3q46 0 90 45t107 45z" />
    <glyph glyph-name="guillemotleft" unicode="&#xab;" horiz-adv-x="796" 
d="M407 142q9 -23 9 -40q0 -19 -9 -42q-3 -8 -19 -8q-52 0 -187 63t-159 93q-8 11 -12.5 20.5t-4.5 20.5t5.5 23t16.5 24q28 29 167.5 96t181.5 67q8 0 11 -3q13 -16 13 -34q0 -9 -3.5 -21.5t-9.5 -26.5q-11 -29 -181 -79q-76 -22 -76 -45q0 -21 123 -51.5t134 -56.5z
M747 142q9 -23 9 -40q0 -19 -9 -42q-3 -8 -19 -8q-52 0 -187 63t-159 93q-8 11 -12.5 20.5t-4.5 20.5t5.5 23t16.5 24q28 29 167.5 96t181.5 67q8 0 11 -3q13 -16 13 -34q0 -9 -3.5 -21.5t-9.5 -26.5q-11 -29 -181 -79q-76 -22 -76 -45q0 -21 123 -51.5t134 -56.5z" />
    <glyph glyph-name="logicalnot" unicode="&#xac;" horiz-adv-x="595" 
d="M58 164q30 15 65 15q27 0 45 -10q21 -20 43 -39q26 -24 67 -24q19 0 37 2.5t29 48.5q7 30 7 69h-23q-35 -5 -51 -5q-37 0 -56 15q-5 3 -13 14t-8 20q0 8 9.5 14t74 13.5t64.5 18.5q0 44 -29 65q-23 16 -56 16q-18 0 -53.5 -27t-47 -28.5t-25.5 -1.5q-75 0 -82 70
q-7 58 81 83q63 18 162 18q123 0 198 -84q66 -74 66 -177q0 -116 -101 -193q-93 -71 -211 -71q-75 0 -136 23.5t-84 65.5q-7 11 -7 29q0 41 35 60zM236 561q-32 0 -43 9.5t-11 27.5q0 19 22 37q48 40 48 46q0 4 -4 11t-4 12q0 19 50 27q19 3 34 3q39 0 72 -10q50 -15 50 -46
q0 -28 -56 -68q-68 -49 -158 -49z" />
    <glyph glyph-name="minus" unicode="&#xad;" horiz-adv-x="990" 
d="M390 299q13 103 103 160q82 52 201 52q123 0 198 -84q66 -74 66 -177q0 -116 -101 -193q-93 -71 -211 -71q-107 0 -185 69.5t-78 151.5q0 4 -21 10t-37 6q-24 0 -24 -12q0 -28 7 -55.5t25 -52.5q15 -20 15 -49q0 -44 -61 -58q-30 -7 -95 -7q-113 0 -151 22q-22 13 -22 41
q0 16 19 34q23 22 29 38.5t11 52t5 73.5q0 30 -4.5 55t-31 47t-26.5 60q0 35 77 61q102 35 176 35q17 0 24.5 -9.5t7.5 -23.5q0 -8 -1 -11q-4 -23 -6 -57.5t-2 -57.5v-39q0 -8 22 -13t45 -5q25 0 26 7zM434 567q-32 0 -43 9.5t-11 27.5q0 19 22 37q48 40 48 46q0 4 -4 11
t-4 12q0 19 50 27q19 3 34 3q39 0 72 -10q50 -15 50 -46q0 -28 -56 -68q-68 -49 -158 -49zM739 174q0 60 -18 126q-26 93 -70 93q-23 0 -36 -18t-13 -42q0 -70 19 -134q26 -87 72 -87q26 0 36 17t10 45z" />
    <glyph glyph-name="registered" unicode="&#xae;" horiz-adv-x="632" 
d="M263 46q0 19 20.5 30.5t20.5 25.5q0 15 -20.5 45.5t-33.5 30.5t-36.5 -38.5t-23.5 -53.5q0 -6 15 -28q8 -12 8 -25q0 -28 -42 -38q-24 -6 -65 -6q-40 0 -59 5q-34 9 -34 35q0 25 22 46q29 23 59 46q27 45 41 66q27 42 40 66l9 13.5t3 8.5q0 6 -6.5 12.5t-8.5 9.5
q-13 19 -26.5 38.5t-32.5 35.5q-12 10 -44 24q-47 20 -47 52t51 46.5t154 14.5q65 0 91 -4q67 -10 67 -46q0 -10 -6 -21q-14 -25 -14 -28q0 -10 15.5 -31.5t24.5 -21.5t27 24t18 34q0 7 -10.5 22.5t-10.5 24.5q0 23 25.5 35t80.5 12q53 0 69 -13q11 -9 11 -33q0 -20 -26 -40
q-37 -28 -46 -39.5t-28 -39.5q-22 -33 -27 -41t-12 -17q-13 -18 -13 -22q0 -3 7 -13t12 -19q18 -29 41 -61q13 -19 27 -37q37 -33 51.5 -49.5t14.5 -35.5v-19q-3 -11 -16 -18.5t-30.5 -22t-28.5 -31t-11 -27.5t11 -20q4 -4 11 -4q5 0 16 2.5t14 2.5q10 0 17.5 -6.5
t13.5 -26.5q6 -21 -35 -36q-25 -8 -36 -11.5t-45 -3.5q-30 0 -54.5 5.5t-31 16.5t-9 18.5t-2.5 18.5q0 10 1.5 19t11.5 23q7 10 32 29t25 25q0 4 -11 7q-83 4 -123 8q-73 8 -73 49z" />
    <glyph glyph-name="macron" unicode="&#xaf;" horiz-adv-x="819" 
d="M212 1q-42 -11 -91 -11q-37 0 -61 8t-34 27q-15 28 -15 50q0 20 13 34t35.5 18.5t34.5 4.5q20 0 36 -10q34 -22 53 -22q15 0 23.5 1t33 8.5t38 39.5t13.5 80q0 34 -5.5 68t-16.5 58q-2 4 -49 77q-21 32 -49 63.5t-55 61.5q-7 9 -54 43q-33 24 -33 49q-3 13 -3 20
q0 19 33 29q47 14 166 14q136 0 181 -22q25 -12 25 -39q0 -13 -18 -36q-10 -13 -10 -21q0 -18 24 -51.5t41 -33.5q14 0 33 18q35 33 35 58q0 9 -19 36q-10 14 -10 32q0 29 38.5 44t115.5 15q89 0 116 -12t27 -47q0 -30 -56 -53q-36 -15 -51 -28q-42 -37 -66 -63
q-30 -32 -56 -70.5t-48 -90.5q-35 -83 -36 -84q-45 -90 -95 -147q-80 -90 -184 -116zM661 939q18 0 18 -16q0 -35 -56 -88q-67 -63 -146 -63t-146 63q-56 53 -56 88q0 16 18 16q45 -24 91 -42.5t93 -18.5q48 0 95 19q44 21 89 42z" />
    <glyph glyph-name="degree" unicode="&#xb0;" horiz-adv-x="400" 
d="M346 557q0 -62 -42 -104t-104 -42t-104 42t-42 104t42 104t104 42t104 -42t42 -104zM200 660q-40 0 -69 -31t-29 -72q0 -40 29.5 -71.5t68.5 -31.5q40 0 69 31t29 72q0 40 -29.5 71.5t-68.5 31.5z" />
    <glyph glyph-name="plusminus" unicode="&#xb1;" horiz-adv-x="785" 
d="M178 290q0 24 -51 36q-37 7 -73 14q-19 6 -30 18.5t-11 31.5q0 9 4.5 21t18.5 15.5t38 3.5q13 0 26 -0.5t27 -0.5q26 0 39 3.5t15 21t2 44.5v26q-3 19 -4 29q-6 46 -34 61.5t-28 39.5q0 27 17 40.5t44 13.5q6 0 123 -5t166 -5h230q29 0 44.5 -29.5t15.5 -82.5
q0 -28 -16 -50.5t-43 -22.5q-26 0 -41 25q-34 57 -154 57q-53 0 -66 -15q-21 -25 -21 -125q0 -18 7 -24q13 -11 52 -11t53 41.5t48 41.5q29 0 43.5 -34t14.5 -105q0 -83 -19 -122.5t-54 -39.5q-26 0 -36 53.5t-69 53.5q-27 0 -33 -10.5t-6 -58.5v-42q0 -85 66 -102
q31 -8 31 -40q0 -40 -55.5 -56t-178.5 -16q-111 0 -148 17q-28 13 -28 49q0 25 15 38q45 38 50 50.5t7 46t2 105.5z" />
    <glyph glyph-name="twosuperior" unicode="&#xb2;" horiz-adv-x="1024" 
d="M718 96q7 20 12 46t5 50q0 52 -18 80q-23 35 -74 35q-22 0 -30.5 -9.5t-8.5 -27.5v-126q0 -71 28 -86q14 -8 14 -25q0 -23 -29 -35t-61 -12h-90t-90 -1q-42 0 -67 14t-25 45q0 18 24 32q55 31 55 137q5 40 7 65q7 77 7 139q0 37 -2.5 67t-4.5 56q-8 29 -42 44
q-12 4 -22 4q-23 0 -56 -10q-13 -4 -40 -14q-18 -7 -34.5 -28.5t-55.5 -32.5q-6 -2 -15.5 -3.5t-18.5 -1.5q-39 0 -62 42q-10 17 -10 37q0 52 71 89.5t185 37.5q57 4 88 4q44 0 122 -3.5t100 -3.5q28 0 72.5 3.5t59.5 3.5q113 0 182.5 -37t69.5 -90q0 -20 -10 -37
q-23 -42 -62 -42q-19 0 -34 5q-39 11 -54 31q-18 23 -36 30q-32 12 -64 25q-33 11 -67 11q-17 0 -25 -8t-8 -37v-14v-81q0 -37 5.5 -51.5t27.5 -14.5q29 4 60.5 9t55.5 5q25 0 38 -2q47 -6 72 -13q38 -11 72.5 -35.5t48.5 -52t14 -87.5q0 -77 -34 -135q-43 -74 -133 -95
q-30 -7 -33 -7q-27 -5 -47 -5q-24 0 -37.5 5t-18 14.5t-5.5 15t-1 9.5q0 12 10 31q14 28 19 41z" />
    <glyph glyph-name="threesuperior" unicode="&#xb3;" horiz-adv-x="800" 
d="M755 310q6 -20 9 -43.5t3 -42.5q0 -45 -12 -87q-15 -52 -39 -83q-19 -24 -53.5 -46t-70.5 -35t-65 -13q-20 0 -38 8q-22 11 -22 21q0 6 23 29q15 15 23 29t12.5 30t9.5 50q2 8 2 16.5v12.5q0 14 -1.5 37.5t-1.5 25.5q0 54 -10 81q-17 45 -64 45q-29 0 -40.5 -20
t-15.5 -52.5t-4 -49.5q0 -16 1.5 -42.5t1.5 -30.5q0 -19 20 -64q10 -23 10 -38q0 -38 -56 -56q-40 -13 -86 -13q-99 0 -135 14q-27 10 -31 37q-3 19 7 34q34 53 40 77t8.5 97.5t2.5 132.5q0 6 1 28t1 34q0 23 -3.5 30.5t-19.5 10.5t-37 3q-25 0 -49 -1t-25 -1q-32 7 -32 31
q0 3 3.5 11.5t16.5 13.5q18 4 23.5 5.5t14.5 1.5q8 0 52 -5q17 -2 30 -2t16 4q7 12 -18 27t-25 38q0 49 123 80q41 10 123 21q20 0 28 -9q4 -5 7.5 -21t4.5 -21t1 -13t-2 -18q-5 -23 -6 -33l-1 -40q4 -4 19 -4q8 0 50.5 4t56.5 4q42 0 72.5 -6.5t41.5 -17.5q8 -7 8 -16
q0 -8 -6 -15t-10 -8q-16 -5 -127 -8t-111 -6q0 -25 3.5 -38t20.5 -13q31 15 67.5 27t89.5 12q71 0 114 -44q36 -36 56 -107z" />
    <glyph glyph-name="acute" unicode="&#xb4;" horiz-adv-x="592" 
d="M566 440q0 -24 -28.5 -32t-80.5 -8h-32t-32 1h-9q-40 0 -66 -7.5t-31 -31.5q-1 -46 -1.5 -105t-0.5 -65v-41q0 -58 22 -85q11 -13 11 -31q0 -34 -65 -43q-29 -4 -61 -4h-21h-32q-67 0 -93.5 10.5t-26.5 31.5q0 10 8.5 22t17.5 19q22 15 26.5 35.5t4.5 128.5v62
q0 91 -3.5 104t-23.5 23t-20 27q0 36 66 52q42 10 100 10q32 0 81 1.5t115 4.5q30 0 54 21q35 31 41 34q12 6 22 6q27 0 42.5 -41t15.5 -99z" />
    <glyph glyph-name="mu" unicode="&#xb5;" horiz-adv-x="716" 
d="M635 144q0 -25 28.5 -45.5t28.5 -54.5q0 -26 -46.5 -40.5t-129.5 -14.5q-101 0 -127.5 8t-26.5 40q0 22 20 42q25 25 29.5 37.5t4.5 29.5v21q0 30 -4.5 36t-19.5 6q-31 0 -48 -20q-11 -13 -21 -44q-24 -88 -47 -115q-37 -44 -127 -44q-66 0 -100.5 17.5t-34.5 41.5
q0 15 25.5 24.5t30.5 45.5q10 67 17 83q13 28 53 41q5 1 13 4t8 13q0 7 -13 14q-47 20 -64 34q-30 26 -30 73q0 83 91 112q56 18 162 18q37 0 92.5 -2.5t62.5 -2.5q16 0 50 4q77 9 89 9q31 0 62 -14.5t31 -41.5q0 -30 -18 -52q-41 -50 -41 -73v-190zM386 573q-32 0 -43 9.5
t-11 27.5q0 19 22 37q48 40 48 46q0 4 -4 11t-4 12q0 19 50 27q19 3 34 3q39 0 72 -10q50 -15 50 -46q0 -28 -56 -68q-68 -49 -158 -49zM420 382q0 20 -7 31.5t-28 11.5q-78 0 -78 -63q0 -38 24.5 -57.5t67.5 -19.5q21 0 21 18q-1 10 -1 16z" />
    <glyph glyph-name="paragraph" unicode="&#xb6;" horiz-adv-x="616" 
d="M202 -5q-17 -2 -24 18.5t-7 58.5q0 67 21 181q7 38 22 103q-88 48 -137 91q-53 47 -53 99q0 88 63 137q40 31 144 65q60 19 124 19q47 0 91 -9t83 -28q26 -13 39 -91.5t13 -192.5q0 -152 -17 -293t-33.5 -146t-31 -9t-27.5 -4q-16 0 -21.5 2.5t-16 11t-15.5 39t-5 75.5
q0 68 7 156t15 179.5t8 133.5q0 50 -9 58q-17 14 -39 14q-20 0 -31 -14q-3 -4 -4 -33.5t-1 -40.5q0 -69 2.5 -143t5.5 -167t3 -140q0 -117 -11 -123.5t-25 -8.5t-31 -2q-21 0 -35 1q-54 4 -55 4q-8 -1 -12 -1z" />
    <glyph glyph-name="periodcentered" unicode="&#xb7;" horiz-adv-x="246" 
d="M203 364q0 -30 -21 -51t-52 -21q-30 0 -51 21t-21 51q0 29 21 51t51 22t51.5 -21.5t21.5 -51.5z" />
    <glyph glyph-name="periodcentered" unicode="&#x2219;" horiz-adv-x="246" 
d="M203 364q0 -30 -21 -51t-52 -21q-30 0 -51 21t-21 51q0 29 21 51t51 22t51.5 -21.5t21.5 -51.5z" />
    <glyph glyph-name="cedilla" unicode="&#xb8;" horiz-adv-x="557" 
d="M474 237q-27 -8 -48.5 -11t-41.5 -3q-5 0 -47.5 3.5t-72.5 3.5h-18q-9 -2 -9 -14q0 -36 37 -64t75 -28q36 0 68.5 14.5t64.5 30.5q14 0 26.5 -17.5t12.5 -32.5q0 -54 -81 -95q-75 -38 -150 -38q-126 0 -196 81q-62 72 -62 178q0 116 76 191t190 75q115 0 180 -68
q52 -55 52 -124q0 -45 -15 -62q-10 -12 -41 -20zM248 662q0 -51 -75 -78q-56 -20 -118 -20q-35 0 -56.5 16t-21.5 52q0 44 68 71q55 22 106 22q39 0 63 -12q34 -17 34 -51zM598 662q0 -51 -75 -78q-56 -20 -118 -20q-35 0 -56.5 16t-21.5 52q0 44 68 71q55 22 106 22
q39 0 63 -12q34 -17 34 -51zM292 323q31 0 40 3q19 6 19 30q0 28 -16 46t-43 18q-24 0 -42 -20.5t-18 -45.5q0 -15 8 -23t35 -8h17z" />
    <glyph glyph-name="onesuperior" unicode="&#xb9;" horiz-adv-x="1221" 
d="M327 658l132 -198q15 -14 28 -23q22 -16 34 -16q13 0 19.5 13.5t6.5 44.5q0 19 -5.5 43t-12.5 45t-32.5 38t-25.5 46q0 41 56 54q29 7 88 7q60 0 90 -8q58 -16 58 -61q0 -31 -21 -45q-27 -18 -35 -40.5t-12.5 -62.5t-4.5 -75l-5 -249v-22t1 -25q0 -59 -9 -89
q-14 -46 -48 -46q-15 0 -30 7t-27 18l-219 277q-14 13 -28 23q-20 14 -33 14q-24 0 -30 -49q-2 -16 -2 -37q0 -30 1.5 -51t5.5 -40q8 -33 38 -49.5t30 -39.5q0 -44 -57 -66q-44 -17 -93 -17t-91 16q-58 22 -58 65q0 26 31.5 45t36.5 49.5t7 73t2 79.5v27q0 74 -3 115t-8 75
q-9 55 -46 72.5t-37 43.5q0 36 41.5 54t128.5 18q45 0 74.5 -12t63.5 -42zM968 313q-69 0 -113.5 37t-44.5 106q0 78 54.5 125t131.5 47q74 0 119 -50q40 -45 40 -107q0 -70 -60 -116q-55 -42 -127 -42zM828 234q9 8 63.5 12t121.5 4q61 0 95.5 -2.5t40.5 -7.5q10 -9 10 -24
q0 -12 -7 -27q-3 -7 -15 -27q-7 -13 -69.5 -19.5t-137.5 -6.5q-56 0 -91.5 2t-42.5 5.5t-10 8.5t-3 11q0 16 16 39q12 17 29 32zM1023 426q0 35 -11 75q-15 56 -41 56q-14 0 -22 -11t-8 -25q0 -43 11 -80q16 -53 44 -53q16 0 21.5 10t5.5 28z" />
    <glyph glyph-name="ordmasculine" unicode="&#xba;" horiz-adv-x="595" 
d="M532 164q17 -9 26 -25.5t9 -34.5t-7 -29q-23 -42 -84 -65.5t-136 -23.5q-119 0 -211 70q-101 77 -101 194q0 103 66 177q74 84 198 84q127 0 190 -28q53 -23 53 -65v-8q-4 -35 -25.5 -52.5t-56.5 -17.5q-14 0 -23.5 1t-63.5 39q-24 17 -39 17q-35 0 -56 -15
q-29 -20 -29 -66q0 -9 37 -15q98 -15 104.5 -19t6.5 -13t-7 -18.5t-14 -14.5q-19 -15 -56 -15q-23 0 -51 4q-12 0 -23 1q0 -43 6 -69q10 -46 36 -49q9 -2 16.5 -2h15.5q41 0 64 21.5t45 41.5q16 10 46 10q34 0 64 -15z" />
    <glyph glyph-name="guillemotright" unicode="&#xbb;" horiz-adv-x="796" 
d="M388 142q10 25 133.5 55.5t123.5 52.5q0 25 -122 58t-135 66q-5 13 -9 25.5t-4 23.5q0 19 13 33q3 3 11 3q42 0 181.5 -67t167.5 -96q22 -25 22 -47q0 -19 -17 -41q-23 -29 -159.5 -92.5t-186.5 -63.5q-16 0 -19 8q-9 23 -9 42q0 17 9 40zM48 142q10 25 133.5 55.5
t123.5 52.5q0 25 -122 58t-135 66q-5 13 -9 25.5t-4 23.5q0 19 13 33q3 3 11 3q42 0 181.5 -67t167.5 -96q22 -25 22 -47q0 -19 -17 -41q-23 -29 -159.5 -92.5t-186.5 -63.5q-16 0 -19 8q-9 23 -9 42q0 17 9 40z" />
    <glyph glyph-name="onequarter" unicode="&#xbc;" 
d="M722 -12q-8 0 -82 -3t-91 -3q-28 0 -61 -75t-59 -75q-19 0 -42 78t-51 78l-92 4q-64 5 -127 10q-85 15 -85 61q0 27 12 40q5 5 25 16t23 38t3 225q0 150 -5.5 178.5t-33.5 49.5q-12 9 -22 25.5t-10 31.5q0 26 25 40q32 18 103 18q13 0 24.5 -0.5t22.5 -0.5q79 0 105 -5
q69 -13 69 -59q0 -16 -7 -36q-18 -53 -19.5 -64t-4.5 -169t-3 -193q0 -61 28 -77q15 -9 71 -9q42 0 66 17q28 20 28 59q0 100 -2.5 230.5t-7.5 154t-38 53.5q-14 13 -14 33q0 38 54 52q32 8 98 8q125 0 171 -26q28 -16 28 -44q0 -17 -8 -26.5t-26.5 -19.5t-24.5 -23.5
t-6 -36.5v-260q0 -108 10 -136q4 -11 31 -33q10 -9 15 -15q16 -19 16 -32q0 -31 -29.5 -55t-76.5 -24z" />
    <glyph glyph-name="onehalf" unicode="&#xbd;" horiz-adv-x="775" 
d="M20 668q4 20 29 31q14 6 44.5 11t109.5 5q42 0 73.5 -4.5t43.5 -8.5q28 -10 28 -31q0 -12 -19 -33q-11 -12 -14 -33t-3 -44v-25t1 -26q0 -53 17 -80q22 -35 71 -35q21 0 29 9.5t10 27.5l4 52q0 59 -10 94q-13 36 -25 73q0 9 1 14q5 29 13 33.5t54.5 11t94.5 6.5
q66 0 120 -9q32 -6 43 -11q22 -11 22 -33q0 -6 -2 -15t-37 -43q-29 -28 -29 -116q-6 -43 -8 -70q-9 -89 -9 -144q0 -10 0.5 -23t1.5 -29q0 -41 1 -47t16 -44q6 -16 35 -33t29 -37q0 -46 -104 -63q-54 -9 -120 -9q-76 0 -114 9q-69 16 -69 61q0 19 27 31.5t34 16.5
q19 11 25 19.5t6 29.5v81q0 37 -4 48q-7 18 -29 18q-32 -5 -62 -9.5t-54 -4.5h-14h-12q-8 2 -12 2q-68 8 -90.5 16.5t-48.5 30.5q-40 34 -51 53q-17 30 -17 88q0 24 7.5 54t7.5 41v16q-3 9 -5 16.5t-20.5 26.5t-15.5 34z" />
    <glyph glyph-name="threequarters" unicode="&#xbe;" horiz-adv-x="724" 
d="M306 470v-146q0 -44 8 -64q14 -34 53 -34q58 0 58 74v26v20q-3 11 -4 18q-4 23 -21 38q-36 32 -36 49q0 38 102 58q70 14 131 14q26 0 41.5 -21t15.5 -50l-2 -95v-201q0 -31 27.5 -44t27.5 -36q0 -44 -95 -69q-69 -18 -137 -18q-43 0 -45 86t-17 86q-35 -20 -72.5 -38
t-78.5 -22q-11 -1 -23.5 -1.5t-17.5 -0.5q-71 0 -102 30q-35 34 -35 160q0 92 -46 115q-23 11 -23 37q0 38 90 58q66 15 131 15h12q28 0 43 -12t15 -32z" />
    <glyph glyph-name="questiondown" unicode="&#xbf;" horiz-adv-x="651" 
d="M504 232q-12 -30 -22 -57q-30 -84 -37 -101q-32 -82 -59 -126q-37 -61 -85 -92q-55 -35 -132 -35q-61 0 -103 28q-49 33 -49 92q0 38 23.5 62.5t60.5 24.5q52 0 73 -50.5t35 -50.5q18 0 28.5 15.5t10.5 33.5q0 27 -8 64t-29 87q-29 70 -59 121q-21 35 -76 112
q-9 12 -29 27q-32 24 -32 52q0 31 27 45q48 24 187 24q64 0 88.5 -13.5t24.5 -42.5q0 -12 -4 -28q-9 -37 -9 -46q0 -27 24 -70t37 -43q20 0 38 42t18 66t-13.5 42.5t-13.5 33.5q0 34 49 49q33 10 76 10q36 0 58 -8q34 -13 34 -43q0 -33 -39 -63q-27 -21 -41 -44t-27 -54.5
t-25 -63.5zM544 722q10 0 20 -10q5 -5 4 -10q-12 -55 -69 -89q-47 -28 -113 -28q-63 0 -110 27q-64 37 -64 78q0 7 6 20.5t12 13.5q38 -18 78 -31t80 -13q41 0 81 13q37 14 75 29z" />
    <glyph glyph-name="Agrave" unicode="&#xc0;" horiz-adv-x="869" 
d="M141 224q16 32 33 69t30 68q24 61 48 150q17 63 24 86q18 59 33 80q29 41 88 41q70 0 130 -76q17 -21 51 -79q60 -122 107 -216q52 -102 76 -138q30 -42 61 -83q26 -38 26 -74q0 -40 -70 -64q-55 -19 -108 -19q-107 0 -164.5 23t-57.5 64q0 15 19 25q42 22 42 36
q0 33 -32 41t-154 8q-46 0 -64.5 -8.5t-18.5 -42.5q0 -17 32 -27t32 -38q0 -47 -59 -64q-34 -10 -89 -10q-87 0 -120 24q-22 16 -22 48q0 27 34 43q23 11 35 26q16 20 36 61zM339 289h75h23q17 3 17 13q0 13 -21 53q-13 23 -16 28q-15 26 -19 32q-15 21 -29 21
q-15 0 -30 -31q-2 -4 -15 -40q-8 -18 -12 -30q-9 -24 -9 -32q0 -14 26 -14h10z" />
    <glyph glyph-name="Agrave" unicode="&#x410;" horiz-adv-x="869" 
d="M141 224q16 32 33 69t30 68q24 61 48 150q17 63 24 86q18 59 33 80q29 41 88 41q70 0 130 -76q17 -21 51 -79q60 -122 107 -216q52 -102 76 -138q30 -42 61 -83q26 -38 26 -74q0 -40 -70 -64q-55 -19 -108 -19q-107 0 -164.5 23t-57.5 64q0 15 19 25q42 22 42 36
q0 33 -32 41t-154 8q-46 0 -64.5 -8.5t-18.5 -42.5q0 -17 32 -27t32 -38q0 -47 -59 -64q-34 -10 -89 -10q-87 0 -120 24q-22 16 -22 48q0 27 34 43q23 11 35 26q16 20 36 61zM339 289h75h23q17 3 17 13q0 13 -21 53q-13 23 -16 28q-15 26 -19 32q-15 21 -29 21
q-15 0 -30 -31q-2 -4 -15 -40q-8 -18 -12 -30q-9 -24 -9 -32q0 -14 26 -14h10z" />
    <glyph glyph-name="Aacute" unicode="&#xc1;" horiz-adv-x="754" 
d="M660 363q40 -34 51 -53q17 -30 17 -88q0 -92 -52 -151q-67 -76 -204 -76q-34 0 -100 5.5t-86 5.5q-34 0 -79 -5q-107 -12 -133 -12q-23 0 -40 12.5t-17 35.5q0 7 1 11q5 22 27 35q40 24 40 130q6 38 8 63q9 81 9 137v12q0 40 -4.5 66t-56.5 99q-21 29 -21 62q0 26 21 41
t47 15q44 0 122 -3.5t100 -3.5q28 0 77 3.5t63 3.5q113 0 182.5 -37t69.5 -90q0 -20 -10 -37q-23 -42 -62 -42q-19 0 -34 5q-39 11 -54 31q-18 23 -36 30q-50 19 -70 25q-38 11 -73 11q-15 0 -22.5 -6t-7.5 -29q1 -16 1 -24v-81q0 -37 5.5 -51.5t27.5 -14.5q29 4 60.5 9
t55.5 5q25 0 38 -2q68 -8 90.5 -16.5t48.5 -30.5zM334 270v-50q0 -80 13 -103q9 -16 37 -16q40 0 58.5 24.5t18.5 66.5q0 53 -17 80q-22 35 -71 35q-22 0 -30.5 -9.5t-8.5 -27.5z" />
    <glyph glyph-name="Aacute" unicode="&#x411;" horiz-adv-x="754" 
d="M660 363q40 -34 51 -53q17 -30 17 -88q0 -92 -52 -151q-67 -76 -204 -76q-34 0 -100 5.5t-86 5.5q-34 0 -79 -5q-107 -12 -133 -12q-23 0 -40 12.5t-17 35.5q0 7 1 11q5 22 27 35q40 24 40 130q6 38 8 63q9 81 9 137v12q0 40 -4.5 66t-56.5 99q-21 29 -21 62q0 26 21 41
t47 15q44 0 122 -3.5t100 -3.5q28 0 77 3.5t63 3.5q113 0 182.5 -37t69.5 -90q0 -20 -10 -37q-23 -42 -62 -42q-19 0 -34 5q-39 11 -54 31q-18 23 -36 30q-50 19 -70 25q-38 11 -73 11q-15 0 -22.5 -6t-7.5 -29q1 -16 1 -24v-81q0 -37 5.5 -51.5t27.5 -14.5q29 4 60.5 9
t55.5 5q25 0 38 -2q68 -8 90.5 -16.5t48.5 -30.5zM334 270v-50q0 -80 13 -103q9 -16 37 -16q40 0 58.5 24.5t18.5 66.5q0 53 -17 80q-22 35 -71 35q-22 0 -30.5 -9.5t-8.5 -27.5z" />
    <glyph glyph-name="Acircumflex" unicode="&#xc2;" horiz-adv-x="754" 
d="M680 544q0 -35 -14.5 -69t-40.5 -55q-11 -9 -12 -11q-6 -7 -6 -16q0 -10 10 -16q4 -2 11 -6q37 -14 65 -49q35 -43 35 -100q0 -92 -52 -151q-67 -76 -204 -76q-34 0 -100 5.5t-86 5.5q-34 0 -79 -5q-107 -12 -133 -12q-23 0 -40 12.5t-17 35.5q0 7 1 11q5 22 27 35
q40 24 40 130q6 38 8 63q9 81 9 137v12q0 40 -4.5 66t-56.5 99q-21 29 -21 62q0 26 21 41t47 15q44 0 122 -3.5t100 -3.5q28 0 77 3.5t63 3.5q124 0 183 -53q47 -42 47 -111zM334 545v-81v-35q3 -23 29 -23q41 0 59 28q15 24 15 69q0 41 -14 67q-18 34 -56 34q-17 0 -25 -8
t-8 -37v-14zM334 270v-50q0 -80 13 -103q9 -16 37 -16q40 0 58.5 24.5t18.5 66.5q0 53 -17 80q-22 35 -71 35q-22 0 -30.5 -9.5t-8.5 -27.5z" />
    <glyph glyph-name="Acircumflex" unicode="&#x412;" horiz-adv-x="754" 
d="M680 544q0 -35 -14.5 -69t-40.5 -55q-11 -9 -12 -11q-6 -7 -6 -16q0 -10 10 -16q4 -2 11 -6q37 -14 65 -49q35 -43 35 -100q0 -92 -52 -151q-67 -76 -204 -76q-34 0 -100 5.5t-86 5.5q-34 0 -79 -5q-107 -12 -133 -12q-23 0 -40 12.5t-17 35.5q0 7 1 11q5 22 27 35
q40 24 40 130q6 38 8 63q9 81 9 137v12q0 40 -4.5 66t-56.5 99q-21 29 -21 62q0 26 21 41t47 15q44 0 122 -3.5t100 -3.5q28 0 77 3.5t63 3.5q124 0 183 -53q47 -42 47 -111zM334 545v-81v-35q3 -23 29 -23q41 0 59 28q15 24 15 69q0 41 -14 67q-18 34 -56 34q-17 0 -25 -8
t-8 -37v-14zM334 270v-50q0 -80 13 -103q9 -16 37 -16q40 0 58.5 24.5t18.5 66.5q0 53 -17 80q-22 35 -71 35q-22 0 -30.5 -9.5t-8.5 -27.5z" />
    <glyph glyph-name="Atilde" unicode="&#xc3;" horiz-adv-x="695" 
d="M337 198q0 -85 66 -102q31 -8 31 -40q0 -40 -55.5 -56t-178.5 -16q-111 0 -148 17q-28 13 -28 49q0 25 15 38q45 38 50.5 53t9 57t3.5 72v139v73v19q0 29 -3 52q-6 46 -34 61.5t-28 39.5q0 27 17 40.5t44 13.5q6 0 123 -5t166 -5h230q29 0 44.5 -29.5t15.5 -82.5
q0 -28 -16 -50.5t-43 -22.5q-26 0 -41 25q-34 57 -154 57q-42 0 -64 -44q-18 -35 -22.5 -87.5t-4.5 -95.5q0 -36 2.5 -92.5t2.5 -77.5z" />
    <glyph glyph-name="Atilde" unicode="&#x413;" horiz-adv-x="695" 
d="M337 198q0 -85 66 -102q31 -8 31 -40q0 -40 -55.5 -56t-178.5 -16q-111 0 -148 17q-28 13 -28 49q0 25 15 38q45 38 50.5 53t9 57t3.5 72v139v73v19q0 29 -3 52q-6 46 -34 61.5t-28 39.5q0 27 17 40.5t44 13.5q6 0 123 -5t166 -5h230q29 0 44.5 -29.5t15.5 -82.5
q0 -28 -16 -50.5t-43 -22.5q-26 0 -41 25q-34 57 -154 57q-42 0 -64 -44q-18 -35 -22.5 -87.5t-4.5 -95.5q0 -36 2.5 -92.5t2.5 -77.5z" />
    <glyph glyph-name="Adieresis" unicode="&#xc4;" horiz-adv-x="864" 
d="M775 125q38 -9 49 -22q17 -19 17 -73q0 -49 -1 -64q-7 -110 -40 -121q-8 -3 -15 -3q-21 0 -40 25q-15 23 -29 45q-19 26 -37 52q-19 18 -44 23t-48.5 7t-43.5 2q-30 0 -68.5 -3.5t-42.5 -3.5q-47 0 -97.5 -2.5t-88.5 -6.5t-64 -25q-18 -15 -64 -75q-12 -16 -29.5 -28.5
t-32.5 -12.5q-24 0 -31 37q-2 16 -2 54q0 57 6 105t19 58q34 7 58 11q48 9 89 58q20 23 31 83q3 14 14 79q4 24 19 122q10 68 18.5 98t31 67t49.5 59.5t70.5 39t82.5 16.5q33 0 52 -2q44 -6 93.5 -12t104.5 -11q73 -15 67 -60q-3 -19 -17 -35q-4 -5 -14 -12q-26 -21 -30 -32
q-11 -31 -11 -137v-212q0 -5 -1 -19t-1 -22q0 -21 4 -32.5t17 -14.5zM439 139q44 0 58 5q30 11 30 48q0 29 1.5 134.5t3.5 193.5q0 77 -42 77q-5 -1 -8 -1q-30 -4 -52.5 -47.5t-22.5 -82.5q0 -54 -17 -138q-3 -17 -23 -98q-5 -22 -19 -46t-14 -29q0 -10 21 -13t84 -3z" />
    <glyph glyph-name="Adieresis" unicode="&#x414;" horiz-adv-x="864" 
d="M775 125q38 -9 49 -22q17 -19 17 -73q0 -49 -1 -64q-7 -110 -40 -121q-8 -3 -15 -3q-21 0 -40 25q-15 23 -29 45q-19 26 -37 52q-19 18 -44 23t-48.5 7t-43.5 2q-30 0 -68.5 -3.5t-42.5 -3.5q-47 0 -97.5 -2.5t-88.5 -6.5t-64 -25q-18 -15 -64 -75q-12 -16 -29.5 -28.5
t-32.5 -12.5q-24 0 -31 37q-2 16 -2 54q0 57 6 105t19 58q34 7 58 11q48 9 89 58q20 23 31 83q3 14 14 79q4 24 19 122q10 68 18.5 98t31 67t49.5 59.5t70.5 39t82.5 16.5q33 0 52 -2q44 -6 93.5 -12t104.5 -11q73 -15 67 -60q-3 -19 -17 -35q-4 -5 -14 -12q-26 -21 -30 -32
q-11 -31 -11 -137v-212q0 -5 -1 -19t-1 -22q0 -21 4 -32.5t17 -14.5zM439 139q44 0 58 5q30 11 30 48q0 29 1.5 134.5t3.5 193.5q0 77 -42 77q-5 -1 -8 -1q-30 -4 -52.5 -47.5t-22.5 -82.5q0 -54 -17 -138q-3 -17 -23 -98q-5 -22 -19 -46t-14 -29q0 -10 21 -13t84 -3z" />
    <glyph glyph-name="Aring" unicode="&#xc5;" horiz-adv-x="726" 
d="M139 701q59 -6 128 -6q52 0 91 2t69 4q67 0 108 6q30 7 61 14q49 0 68 -32q14 -23 14 -67q0 -12 -0.5 -22.5t-0.5 -20.5q0 -29 -11 -48q-14 -24 -41 -24q-31 0 -49 30q-41 66 -156 66q-69 0 -84.5 -15.5t-15.5 -74.5v-45q0 -44 9 -52t55 -8q39 0 50 52.5t40 52.5
q38 0 53 -58q9 -34 9 -88q0 -49 -13 -93q-18 -62 -54 -62q-22 0 -33 49.5t-68 49.5q-27 0 -36 -23q-5 -14 -5 -47q0 -105 18 -124q14 -15 97 -15q123 0 166 89q20 42 55 42q17 0 24 -18.5t7 -45.5q0 -11 0.5 -27t1.5 -37q0 -52 -13 -76q-19 -34 -68 -34q-10 0 -81 2.5
t-92 2.5h-122h-174q-59 0 -85.5 5t-26.5 28q0 29 34 80q16 24 16 72q0 95 2 145q6 150 6 175q0 38 -46 96q-22 28 -22 59q0 26 15.5 36t41.5 10q19 0 34 -2t24 -3z" />
    <glyph glyph-name="Aring" unicode="&#x415;" horiz-adv-x="726" 
d="M139 701q59 -6 128 -6q52 0 91 2t69 4q67 0 108 6q30 7 61 14q49 0 68 -32q14 -23 14 -67q0 -12 -0.5 -22.5t-0.5 -20.5q0 -29 -11 -48q-14 -24 -41 -24q-31 0 -49 30q-41 66 -156 66q-69 0 -84.5 -15.5t-15.5 -74.5v-45q0 -44 9 -52t55 -8q39 0 50 52.5t40 52.5
q38 0 53 -58q9 -34 9 -88q0 -49 -13 -93q-18 -62 -54 -62q-22 0 -33 49.5t-68 49.5q-27 0 -36 -23q-5 -14 -5 -47q0 -105 18 -124q14 -15 97 -15q123 0 166 89q20 42 55 42q17 0 24 -18.5t7 -45.5q0 -11 0.5 -27t1.5 -37q0 -52 -13 -76q-19 -34 -68 -34q-10 0 -81 2.5
t-92 2.5h-122h-174q-59 0 -85.5 5t-26.5 28q0 29 34 80q16 24 16 72q0 95 2 145q6 150 6 175q0 38 -46 96q-22 28 -22 59q0 26 15.5 36t41.5 10q19 0 34 -2t24 -3z" />
    <glyph glyph-name="AE" unicode="&#xc6;" horiz-adv-x="1304" 
d="M638 -16q-114 0 -147 16q-19 9 -19 40q0 21 30.5 50.5t30.5 48.5q0 7 -1 11q1 8 1 13q0 23 -4 40.5t-18 25.5q-6 3 -13 3q-22 0 -55 -42q-20 -29 -40 -57q-14 -20 -22 -31q-26 -34 -47 -53.5t-43 -40.5q-24 -20 -51 -22.5t-52.5 -5.5t-36.5 -3q-21 0 -51 6q-44 9 -57 16
q-28 15 -28 49q0 40 49 73q35 24 47 38q34 40 80 96q36 44 72 89q16 19 32 39q22 26 26 32q14 20 14 38q0 25 -45 69l-60 54q-10 11 -74.5 15.5t-64.5 52.5q0 40 51 56q33 10 92 10h21q73 0 106 -7q71 -15 71 -63q0 -12 -6.5 -29t-6.5 -24q0 -18 43.5 -72t62.5 -54
q11 0 15 13.5t4 28.5q0 67 -23 95t-23 47q0 44 69 58q34 7 105 7q67 0 97.5 -12.5t30.5 -50.5q0 -21 -14 -37q-32 -36 -32 -105q0 -13 2.5 -27.5t16.5 -14.5q19 0 62.5 53.5t43.5 72.5q0 9 -4 20q-9 24 -9 33q0 48 70 63q32 7 107 7q92 0 128 -14.5t36 -51.5
q0 -47 -63.5 -51.5t-75.5 -16.5q-37 -30 -60 -53q-45 -44 -45 -70q0 -17 14 -38q4 -6 26 -32q40 -49 64 -79q75 -92 120 -145q55 -40 75.5 -60.5t20.5 -50.5q0 -33 -27 -48q-15 -8 -58 -17q-32 -6 -52 -6t-41 2.5t-50 6t-58 30.5q-17 17 -35.5 34.5t-44.5 51.5q-8 11 -22 31
q-22 34 -39 56q-33 43 -56 43q-7 0 -13 -3q-12 -7 -17 -26t-5 -39v-8t1 -6q-1 -3 -1 -6.5v-4.5q0 -16 41 -60q20 -21 20 -39q0 -29 -28 -41q-40 -17 -160 -17z" />
    <glyph glyph-name="AE" unicode="&#x416;" horiz-adv-x="1304" 
d="M638 -16q-114 0 -147 16q-19 9 -19 40q0 21 30.5 50.5t30.5 48.5q0 7 -1 11q1 8 1 13q0 23 -4 40.5t-18 25.5q-6 3 -13 3q-22 0 -55 -42q-20 -29 -40 -57q-14 -20 -22 -31q-26 -34 -47 -53.5t-43 -40.5q-24 -20 -51 -22.5t-52.5 -5.5t-36.5 -3q-21 0 -51 6q-44 9 -57 16
q-28 15 -28 49q0 40 49 73q35 24 47 38q34 40 80 96q36 44 72 89q16 19 32 39q22 26 26 32q14 20 14 38q0 25 -45 69l-60 54q-10 11 -74.5 15.5t-64.5 52.5q0 40 51 56q33 10 92 10h21q73 0 106 -7q71 -15 71 -63q0 -12 -6.5 -29t-6.5 -24q0 -18 43.5 -72t62.5 -54
q11 0 15 13.5t4 28.5q0 67 -23 95t-23 47q0 44 69 58q34 7 105 7q67 0 97.5 -12.5t30.5 -50.5q0 -21 -14 -37q-32 -36 -32 -105q0 -13 2.5 -27.5t16.5 -14.5q19 0 62.5 53.5t43.5 72.5q0 9 -4 20q-9 24 -9 33q0 48 70 63q32 7 107 7q92 0 128 -14.5t36 -51.5
q0 -47 -63.5 -51.5t-75.5 -16.5q-37 -30 -60 -53q-45 -44 -45 -70q0 -17 14 -38q4 -6 26 -32q40 -49 64 -79q75 -92 120 -145q55 -40 75.5 -60.5t20.5 -50.5q0 -33 -27 -48q-15 -8 -58 -17q-32 -6 -52 -6t-41 2.5t-50 6t-58 30.5q-17 17 -35.5 34.5t-44.5 51.5q-8 11 -22 31
q-22 34 -39 56q-33 43 -56 43q-7 0 -13 -3q-12 -7 -17 -26t-5 -39v-8t1 -6q-1 -3 -1 -6.5v-4.5q0 -16 41 -60q20 -21 20 -39q0 -29 -28 -41q-40 -17 -160 -17z" />
    <glyph glyph-name="Ccedilla" unicode="&#xc7;" horiz-adv-x="705" 
d="M299 306q-4 1 -12 1q-13 0 -47 -6t-51 -6q-14 0 -20.5 1t-18 8t-20.5 22.5t-9 30.5q0 22 18 40t108 42q65 18 65 72q0 39 -16.5 50.5t-51.5 11.5q-30 0 -59 -18q-66 -41 -92 -41q-15 0 -30 4q-40 10 -40 48q0 14 4.5 28.5t14.5 34.5q17 34 112.5 59.5t189.5 25.5
q100 0 177 -25q117 -38 117 -121t-65 -137q-30 -25 -30 -50q44 -11 66 -25q67 -44 67 -137q0 -103 -94 -170q-105 -75 -292 -75q-63 0 -151 24q-115 32 -115 78q0 8 -2.5 25.5t-2.5 22.5q0 21 11 32q15 14 50 14q58 0 100 -15q93 -33 99 -33q51 0 77.5 22.5t26.5 78.5
q0 49 -22 65q-13 10 -62 18z" />
    <glyph glyph-name="Ccedilla" unicode="&#x417;" horiz-adv-x="705" 
d="M299 306q-4 1 -12 1q-13 0 -47 -6t-51 -6q-14 0 -20.5 1t-18 8t-20.5 22.5t-9 30.5q0 22 18 40t108 42q65 18 65 72q0 39 -16.5 50.5t-51.5 11.5q-30 0 -59 -18q-66 -41 -92 -41q-15 0 -30 4q-40 10 -40 48q0 14 4.5 28.5t14.5 34.5q17 34 112.5 59.5t189.5 25.5
q100 0 177 -25q117 -38 117 -121t-65 -137q-30 -25 -30 -50q44 -11 66 -25q67 -44 67 -137q0 -103 -94 -170q-105 -75 -292 -75q-63 0 -151 24q-115 32 -115 78q0 8 -2.5 25.5t-2.5 22.5q0 21 11 32q15 14 50 14q58 0 100 -15q93 -33 99 -33q51 0 77.5 22.5t26.5 78.5
q0 49 -22 65q-13 10 -62 18z" />
    <glyph glyph-name="Egrave" unicode="&#xc8;" 
d="M756 425v-260q0 -24 6 -36.5t23.5 -22.5t28.5 -24.5t11 -33.5q0 -28 -45 -43.5t-158 -15.5q-71 0 -98 7q-54 14 -54 61q0 16 16 28q38 29 38 163v20.5t1 21.5q0 17 -2.5 25t-11.5 8q-8 0 -25 -11q-45 -30 -60 -41q-11 -8 -53 -42q-33 -26 -43.5 -42.5t-10.5 -40.5
q0 -4 36 -47q18 -21 18 -51q0 -45 -69 -58q-31 -6 -105 -6h-22t-25 -1q-56 0 -84 9q-44 14 -44 49q0 15 9.5 31t22.5 26q28 21 33.5 48.5t5.5 179.5v98.5t1 80.5q0 54 -4 63.5t-25 21.5q-14 7 -16 9q-15 11 -15 28q0 49 83 71q54 14 125 14q61 0 92 -7q61 -14 61 -53
q0 -22 -8.5 -36t-27.5 -25t-24.5 -30t-5.5 -85v-40q0 -19 2 -32.5t15 -13.5q7 0 22 9.5t25 15.5q58 37 78 52t42 30q21 18 21 47q0 18 -11.5 27.5t-20.5 17.5q-4 6 -25 24q-16 14 -16 29q0 30 17 42q39 28 168 28q93 0 136.5 -17.5t43.5 -53.5q0 -31 -31 -47
q-26 -11 -32 -29q-9 -29 -9 -140z" />
    <glyph glyph-name="Egrave" unicode="&#x418;" 
d="M756 425v-260q0 -24 6 -36.5t23.5 -22.5t28.5 -24.5t11 -33.5q0 -28 -45 -43.5t-158 -15.5q-71 0 -98 7q-54 14 -54 61q0 16 16 28q38 29 38 163v20.5t1 21.5q0 17 -2.5 25t-11.5 8q-8 0 -25 -11q-45 -30 -60 -41q-11 -8 -53 -42q-33 -26 -43.5 -42.5t-10.5 -40.5
q0 -4 36 -47q18 -21 18 -51q0 -45 -69 -58q-31 -6 -105 -6h-22t-25 -1q-56 0 -84 9q-44 14 -44 49q0 15 9.5 31t22.5 26q28 21 33.5 48.5t5.5 179.5v98.5t1 80.5q0 54 -4 63.5t-25 21.5q-14 7 -16 9q-15 11 -15 28q0 49 83 71q54 14 125 14q61 0 92 -7q61 -14 61 -53
q0 -22 -8.5 -36t-27.5 -25t-24.5 -30t-5.5 -85v-40q0 -19 2 -32.5t15 -13.5q7 0 22 9.5t25 15.5q58 37 78 52t42 30q21 18 21 47q0 18 -11.5 27.5t-20.5 17.5q-4 6 -25 24q-16 14 -16 29q0 30 17 42q39 28 168 28q93 0 136.5 -17.5t43.5 -53.5q0 -31 -31 -47
q-26 -11 -32 -29q-9 -29 -9 -140z" />
    <glyph glyph-name="Eacute" unicode="&#xc9;" 
d="M756 425v-260q0 -24 6 -36.5t23.5 -22.5t28.5 -24.5t11 -33.5q0 -28 -45 -43.5t-158 -15.5q-71 0 -98 7q-54 14 -54 61q0 16 16 28q38 29 38 163v20.5t1 21.5q0 17 -2.5 25t-11.5 8q-8 0 -25 -11q-45 -30 -60 -41q-11 -8 -53 -42q-33 -26 -43.5 -42.5t-10.5 -40.5
q0 -4 36 -47q18 -21 18 -51q0 -45 -69 -58q-31 -6 -105 -6h-22t-25 -1q-56 0 -84 9q-44 14 -44 49q0 15 9.5 31t22.5 26q28 21 33.5 48.5t5.5 179.5v98.5t1 80.5q0 54 -4 63.5t-25 21.5q-14 7 -16 9q-15 11 -15 28q0 49 83 71q54 14 125 14q61 0 92 -7q61 -14 61 -53
q0 -22 -8.5 -36t-27.5 -25t-24.5 -30t-5.5 -85v-40q0 -19 2 -32.5t15 -13.5q7 0 22 9.5t25 15.5q58 37 78 52t42 30q21 18 21 47q0 18 -11.5 27.5t-20.5 17.5q-4 6 -25 24q-16 14 -16 29q0 30 17 42q39 28 168 28q93 0 136.5 -17.5t43.5 -53.5q0 -31 -31 -47
q-26 -11 -32 -29q-9 -29 -9 -140zM640 946q18 0 18 -16q0 -35 -56 -88q-67 -63 -146 -63t-146 63q-56 53 -56 88q0 16 18 16q45 -24 91 -42.5t93 -18.5q48 0 95 19q44 21 89 42z" />
    <glyph glyph-name="Eacute" unicode="&#x419;" 
d="M756 425v-260q0 -24 6 -36.5t23.5 -22.5t28.5 -24.5t11 -33.5q0 -28 -45 -43.5t-158 -15.5q-71 0 -98 7q-54 14 -54 61q0 16 16 28q38 29 38 163v20.5t1 21.5q0 17 -2.5 25t-11.5 8q-8 0 -25 -11q-45 -30 -60 -41q-11 -8 -53 -42q-33 -26 -43.5 -42.5t-10.5 -40.5
q0 -4 36 -47q18 -21 18 -51q0 -45 -69 -58q-31 -6 -105 -6h-22t-25 -1q-56 0 -84 9q-44 14 -44 49q0 15 9.5 31t22.5 26q28 21 33.5 48.5t5.5 179.5v98.5t1 80.5q0 54 -4 63.5t-25 21.5q-14 7 -16 9q-15 11 -15 28q0 49 83 71q54 14 125 14q61 0 92 -7q61 -14 61 -53
q0 -22 -8.5 -36t-27.5 -25t-24.5 -30t-5.5 -85v-40q0 -19 2 -32.5t15 -13.5q7 0 22 9.5t25 15.5q58 37 78 52t42 30q21 18 21 47q0 18 -11.5 27.5t-20.5 17.5q-4 6 -25 24q-16 14 -16 29q0 30 17 42q39 28 168 28q93 0 136.5 -17.5t43.5 -53.5q0 -31 -31 -47
q-26 -11 -32 -29q-9 -29 -9 -140zM640 946q18 0 18 -16q0 -35 -56 -88q-67 -63 -146 -63t-146 63q-56 53 -56 88q0 16 18 16q45 -24 91 -42.5t93 -18.5q48 0 95 19q44 21 89 42z" />
    <glyph glyph-name="Ecircumflex" unicode="&#xca;" horiz-adv-x="869" 
d="M332 152q-1 -3 -1 -6.5v-4.5q0 -16 41 -60q20 -21 20 -39q0 -29 -32 -41q-44 -17 -164 -17q-108 0 -143 17q-25 12 -25 44q0 16 30 54q16 21 22 57.5t8 85.5t2 93v48q0 41 -2 78t-8 69q-6 41 -32.5 65.5t-26.5 42.5q0 8 3 22q11 41 23 45q22 7 177 7q64 0 88 -6
q54 -14 54 -59q0 -21 -14 -37q-32 -36 -32 -105q0 -13 2.5 -27.5t16.5 -14.5q19 0 62.5 53.5t43.5 72.5q0 9 -4 20q-9 24 -9 33q0 48 70 63q32 7 107 7q92 0 128 -14.5t36 -51.5q0 -47 -63.5 -51.5t-75.5 -16.5q-37 -30 -60 -53q-45 -44 -45 -70q0 -17 14 -38q4 -6 26 -32
q40 -49 64 -79q75 -92 120 -145q55 -40 75.5 -60.5t20.5 -50.5q0 -33 -27 -48q-15 -8 -58 -17q-32 -6 -52 -6t-41 2.5t-50 6t-58 30.5q-17 17 -35.5 34.5t-44.5 51.5q-8 11 -22 31q-22 34 -39 56q-33 43 -56 43q-7 0 -13 -3q-12 -7 -17 -26t-5 -39v-8t1 -6z" />
    <glyph glyph-name="Ecircumflex" unicode="&#x41a;" horiz-adv-x="869" 
d="M332 152q-1 -3 -1 -6.5v-4.5q0 -16 41 -60q20 -21 20 -39q0 -29 -32 -41q-44 -17 -164 -17q-108 0 -143 17q-25 12 -25 44q0 16 30 54q16 21 22 57.5t8 85.5t2 93v48q0 41 -2 78t-8 69q-6 41 -32.5 65.5t-26.5 42.5q0 8 3 22q11 41 23 45q22 7 177 7q64 0 88 -6
q54 -14 54 -59q0 -21 -14 -37q-32 -36 -32 -105q0 -13 2.5 -27.5t16.5 -14.5q19 0 62.5 53.5t43.5 72.5q0 9 -4 20q-9 24 -9 33q0 48 70 63q32 7 107 7q92 0 128 -14.5t36 -51.5q0 -47 -63.5 -51.5t-75.5 -16.5q-37 -30 -60 -53q-45 -44 -45 -70q0 -17 14 -38q4 -6 26 -32
q40 -49 64 -79q75 -92 120 -145q55 -40 75.5 -60.5t20.5 -50.5q0 -33 -27 -48q-15 -8 -58 -17q-32 -6 -52 -6t-41 2.5t-50 6t-58 30.5q-17 17 -35.5 34.5t-44.5 51.5q-8 11 -22 31q-22 34 -39 56q-33 43 -56 43q-7 0 -13 -3q-12 -7 -17 -26t-5 -39v-8t1 -6z" />
    <glyph glyph-name="Edieresis" unicode="&#xcb;" 
d="M240 324q4 24 19 122q10 68 18.5 98t31 67t49.5 59.5t70.5 39t82.5 16.5q33 0 52 -2q44 -6 93.5 -12t104.5 -11q73 -15 67 -60q-3 -19 -17 -35q-4 -5 -14 -12q-26 -21 -30 -32q-11 -31 -11 -137v-260q0 -24 6 -36.5t24.5 -23t24.5 -17.5q10 -12 10 -29q0 -25 -25 -37
q-44 -22 -174 -33q-8 -1 -17.5 -1h-14.5q-50 0 -81 12q-39 15 -39 49q0 24 21 40q25 19 32 51q3 13 6 172t3 208q0 77 -42 77q-5 -1 -8 -1q-29 -4 -51 -50q-16 -34 -22.5 -72.5t-22 -158t-15.5 -137.5q0 -56 -5 -84q-8 -43 -29 -62q-40 -36 -70 -52t-64 -16h-24.5t-26.5 -1
q-43 0 -69 7q-37 10 -52 37t-15 62q0 29 13 50.5t43 30.5q2 1 11.5 2.5t14.5 1.5q19 0 33.5 -19.5t31.5 -19.5q15 0 40.5 11.5t29 92.5t7.5 105z" />
    <glyph glyph-name="Edieresis" unicode="&#x41b;" 
d="M240 324q4 24 19 122q10 68 18.5 98t31 67t49.5 59.5t70.5 39t82.5 16.5q33 0 52 -2q44 -6 93.5 -12t104.5 -11q73 -15 67 -60q-3 -19 -17 -35q-4 -5 -14 -12q-26 -21 -30 -32q-11 -31 -11 -137v-260q0 -24 6 -36.5t24.5 -23t24.5 -17.5q10 -12 10 -29q0 -25 -25 -37
q-44 -22 -174 -33q-8 -1 -17.5 -1h-14.5q-50 0 -81 12q-39 15 -39 49q0 24 21 40q25 19 32 51q3 13 6 172t3 208q0 77 -42 77q-5 -1 -8 -1q-29 -4 -51 -50q-16 -34 -22.5 -72.5t-22 -158t-15.5 -137.5q0 -56 -5 -84q-8 -43 -29 -62q-40 -36 -70 -52t-64 -16h-24.5t-26.5 -1
q-43 0 -69 7q-37 10 -52 37t-15 62q0 29 13 50.5t43 30.5q2 1 11.5 2.5t14.5 1.5q19 0 33.5 -19.5t31.5 -19.5q15 0 40.5 11.5t29 92.5t7.5 105z" />
    <glyph glyph-name="Igrave" unicode="&#xcc;" horiz-adv-x="929" 
d="M278 281q-7 13 -13 26q-10 17 -22 17t-17.5 -28.5t-5.5 -66.5q0 -16 0.5 -33.5t1.5 -36.5q0 -62 43 -80q21 -9 21 -31q0 -37 -58 -51q-33 -8 -88 -8q-51 0 -73 5q-48 11 -48 45q0 26 29.5 39.5t35 70t10.5 137.5t5 172q0 83 -15 114q-3 6 -30 25.5t-27 43.5q0 39 51 57
q40 14 112 14q80 0 105 -16q12 -8 40 -55q42 -86 67 -135q47 -92 74 -98q19 -4 52 62l56 118q46 84 61 97q32 27 123 27q50 0 88 -12q56 -18 56 -54q0 -19 -14 -34q-40 -43 -41 -48q-5 -16 -10 -86.5t-5 -104.5l10 -218q0 -39 39 -72q19 -16 19 -35q0 -36 -52 -50
q-34 -9 -94 -9h-30h-19q-62 0 -99 9q-60 15 -60 51q0 18 24.5 38t27 31.5t6 49.5t3.5 68q0 34 -4.5 54.5t-15.5 20.5q-15 0 -34 -30q-7 -10 -53 -109q-16 -60 -27 -92q-20 -59 -63 -59q-32 0 -90 130q-19 43 -52 130z" />
    <glyph glyph-name="Igrave" unicode="&#x41c;" horiz-adv-x="929" 
d="M278 281q-7 13 -13 26q-10 17 -22 17t-17.5 -28.5t-5.5 -66.5q0 -16 0.5 -33.5t1.5 -36.5q0 -62 43 -80q21 -9 21 -31q0 -37 -58 -51q-33 -8 -88 -8q-51 0 -73 5q-48 11 -48 45q0 26 29.5 39.5t35 70t10.5 137.5t5 172q0 83 -15 114q-3 6 -30 25.5t-27 43.5q0 39 51 57
q40 14 112 14q80 0 105 -16q12 -8 40 -55q42 -86 67 -135q47 -92 74 -98q19 -4 52 62l56 118q46 84 61 97q32 27 123 27q50 0 88 -12q56 -18 56 -54q0 -19 -14 -34q-40 -43 -41 -48q-5 -16 -10 -86.5t-5 -104.5l10 -218q0 -39 39 -72q19 -16 19 -35q0 -36 -52 -50
q-34 -9 -94 -9h-30h-19q-62 0 -99 9q-60 15 -60 51q0 18 24.5 38t27 31.5t6 49.5t3.5 68q0 34 -4.5 54.5t-15.5 20.5q-15 0 -34 -30q-7 -10 -53 -109q-16 -60 -27 -92q-20 -59 -63 -59q-32 0 -90 130q-19 43 -52 130z" />
    <glyph glyph-name="Iacute" unicode="&#xcd;" 
d="M756 425v-260q0 -24 6 -36.5t24.5 -23t24.5 -16.5q10 -10 10 -26q0 -26 -25 -39q-45 -24 -174 -35q-8 -1 -16 -1.5t-20 -0.5q-51 0 -79 13q-37 17 -37 57q0 16 15 30q35 32 35 165q0 38 -10.5 45t-51.5 7q-91 0 -109 -8.5t-18 -51.5v-34q0 -81 28 -118q14 -19 14 -44
q0 -45 -69 -58q-31 -6 -105 -6h-22t-25 -1q-56 0 -84 9q-44 14 -44 49q0 15 9.5 31t22.5 26q28 21 33.5 48.5t5.5 179.5q0 196 -4 222.5t-32 41.5q-11 6 -17 14.5t-6 22.5q0 49 83 71q54 14 125 14q61 0 92 -7q61 -14 61 -53q0 -22 -8.5 -36t-27.5 -25t-24.5 -30t-5.5 -85
q0 -32 13 -42q9 -7 38 -7h23h51q47 0 55.5 7t8.5 34q0 56 -3 74t-17 39q-14 17 -28 35q-9 14 -9 26q0 30 17 42q39 28 168 28q93 0 136.5 -17.5t43.5 -53.5q0 -31 -31 -47q-26 -11 -32 -29q-9 -29 -9 -140z" />
    <glyph glyph-name="Iacute" unicode="&#x41d;" 
d="M756 425v-260q0 -24 6 -36.5t24.5 -23t24.5 -16.5q10 -10 10 -26q0 -26 -25 -39q-45 -24 -174 -35q-8 -1 -16 -1.5t-20 -0.5q-51 0 -79 13q-37 17 -37 57q0 16 15 30q35 32 35 165q0 38 -10.5 45t-51.5 7q-91 0 -109 -8.5t-18 -51.5v-34q0 -81 28 -118q14 -19 14 -44
q0 -45 -69 -58q-31 -6 -105 -6h-22t-25 -1q-56 0 -84 9q-44 14 -44 49q0 15 9.5 31t22.5 26q28 21 33.5 48.5t5.5 179.5q0 196 -4 222.5t-32 41.5q-11 6 -17 14.5t-6 22.5q0 49 83 71q54 14 125 14q61 0 92 -7q61 -14 61 -53q0 -22 -8.5 -36t-27.5 -25t-24.5 -30t-5.5 -85
q0 -32 13 -42q9 -7 38 -7h23h51q47 0 55.5 7t8.5 34q0 56 -3 74t-17 39q-14 17 -28 35q-9 14 -9 26q0 30 17 42q39 28 168 28q93 0 136.5 -17.5t43.5 -53.5q0 -31 -31 -47q-26 -11 -32 -29q-9 -29 -9 -140z" />
    <glyph glyph-name="Icircumflex" unicode="&#xce;" horiz-adv-x="818" 
d="M399 -14q-160 0 -267.5 101.5t-107.5 260.5t111 263t276 104q128 0 220 -66q77 -55 120 -148q37 -80 37 -153q0 -157 -118 -262q-113 -100 -271 -100zM536 242q0 94 -41 196q-51 128 -130 128q-39 0 -61.5 -33t-22.5 -74q0 -88 43 -194q53 -130 125 -130q43 0 65 31.5
t22 75.5z" />
    <glyph glyph-name="Icircumflex" unicode="&#x41e;" horiz-adv-x="818" 
d="M399 -14q-160 0 -267.5 101.5t-107.5 260.5t111 263t276 104q128 0 220 -66q77 -55 120 -148q37 -80 37 -153q0 -157 -118 -262q-113 -100 -271 -100zM536 242q0 94 -41 196q-51 128 -130 128q-39 0 -61.5 -33t-22.5 -74q0 -88 43 -194q53 -130 125 -130q43 0 65 31.5
t22 75.5z" />
    <glyph glyph-name="Idieresis" unicode="&#xcf;" 
d="M439 722q44 0 97 -1t111.5 -8t113.5 -12q73 -15 67 -60q-3 -19 -17 -35q-4 -5 -14 -12q-26 -21 -30 -32q-11 -31 -11 -137v-260q0 -24 6 -36.5t24.5 -23t24.5 -17.5q10 -12 10 -29q0 -25 -25 -37q-44 -22 -174 -33q-8 -1 -17.5 -1h-14.5q-50 0 -81 12q-39 15 -39 49
q0 24 21 40q25 19 32 51q3 13 6 172t3 208q0 38 -26.5 57t-67.5 19q-54 0 -70 -9q-29 -17 -29 -77q0 -34 3 -192.5t4.5 -173t18.5 -60.5q8 -22 8 -36q0 -45 -69 -58q-31 -6 -105 -6h-22t-25 -1q-56 0 -84 9q-44 14 -44 49q0 15 9.5 31t22.5 26q28 21 33.5 48.5t5.5 179.5v87
q0 127 -3.5 146t-24 30.5t-23.5 14.5q-12 13 -12 41q0 53 120 65q71 5 97 7t92.5 3.5t97.5 1.5z" />
    <glyph glyph-name="Idieresis" unicode="&#x41f;" 
d="M439 722q44 0 97 -1t111.5 -8t113.5 -12q73 -15 67 -60q-3 -19 -17 -35q-4 -5 -14 -12q-26 -21 -30 -32q-11 -31 -11 -137v-260q0 -24 6 -36.5t24.5 -23t24.5 -17.5q10 -12 10 -29q0 -25 -25 -37q-44 -22 -174 -33q-8 -1 -17.5 -1h-14.5q-50 0 -81 12q-39 15 -39 49
q0 24 21 40q25 19 32 51q3 13 6 172t3 208q0 38 -26.5 57t-67.5 19q-54 0 -70 -9q-29 -17 -29 -77q0 -34 3 -192.5t4.5 -173t18.5 -60.5q8 -22 8 -36q0 -45 -69 -58q-31 -6 -105 -6h-22t-25 -1q-56 0 -84 9q-44 14 -44 49q0 15 9.5 31t22.5 26q28 21 33.5 48.5t5.5 179.5v87
q0 127 -3.5 146t-24 30.5t-23.5 14.5q-12 13 -12 41q0 53 120 65q71 5 97 7t92.5 3.5t97.5 1.5z" />
    <glyph glyph-name="Eth" unicode="&#xd0;" horiz-adv-x="730" 
d="M107 158q7 47 12.5 103t5.5 106q0 43 -4 84.5t-14 82.5q-4 17 -66 64q-27 21 -27 49q0 27 22.5 37.5t52.5 10.5l79 3q73 0 139.5 3t130.5 7q111 0 182 -54q80 -60 80 -168q0 -107 -78 -170q-73 -59 -182 -59q-20 0 -33 1q-51 4 -54 4q-16 0 -16 -16q0 -6 -0.5 -14
t-0.5 -20q0 -17 2 -31t52 -72q23 -26 23 -52q0 -42 -77 -63q-55 -15 -112 -15q-59 0 -110 13q-80 21 -80 63q0 25 21 43q50 43 52 60zM474 482q0 50 -25 82.5t-74 32.5q-26 0 -32 -7t-6 -25v-150q-1 -11 -1 -16q0 -14 9 -21t37 -7q47 0 69.5 30.5t22.5 80.5z" />
    <glyph glyph-name="Eth" unicode="&#x420;" horiz-adv-x="730" 
d="M107 158q7 47 12.5 103t5.5 106q0 43 -4 84.5t-14 82.5q-4 17 -66 64q-27 21 -27 49q0 27 22.5 37.5t52.5 10.5l79 3q73 0 139.5 3t130.5 7q111 0 182 -54q80 -60 80 -168q0 -107 -78 -170q-73 -59 -182 -59q-20 0 -33 1q-51 4 -54 4q-16 0 -16 -16q0 -6 -0.5 -14
t-0.5 -20q0 -17 2 -31t52 -72q23 -26 23 -52q0 -42 -77 -63q-55 -15 -112 -15q-59 0 -110 13q-80 21 -80 63q0 25 21 43q50 43 52 60zM474 482q0 50 -25 82.5t-74 32.5q-26 0 -32 -7t-6 -25v-150q-1 -11 -1 -16q0 -14 9 -21t37 -7q47 0 69.5 30.5t22.5 80.5z" />
    <glyph glyph-name="Ntilde" unicode="&#xd1;" horiz-adv-x="756" 
d="M29 348q0 151 117 259t268 108q48 0 95 -15l92 -34q13 0 26 3.5t19 3.5q34 0 62.5 -48t28.5 -126q0 -46 -22 -75.5t-66 -29.5q-42 0 -99.5 88.5t-155.5 88.5q-52 0 -83 -43q-26 -37 -26 -84q0 -115 57 -192q61 -82 162 -82q63 0 102 20q34 23 69 46q21 0 32.5 -15.5
t11.5 -45.5q0 -35 -20 -63t-83 -68q-47 -30 -98.5 -44t-111.5 -14q-158 0 -267.5 105.5t-109.5 256.5z" />
    <glyph glyph-name="Ntilde" unicode="&#x421;" horiz-adv-x="756" 
d="M29 348q0 151 117 259t268 108q48 0 95 -15l92 -34q13 0 26 3.5t19 3.5q34 0 62.5 -48t28.5 -126q0 -46 -22 -75.5t-66 -29.5q-42 0 -99.5 88.5t-155.5 88.5q-52 0 -83 -43q-26 -37 -26 -84q0 -115 57 -192q61 -82 162 -82q63 0 102 20q34 23 69 46q21 0 32.5 -15.5
t11.5 -45.5q0 -35 -20 -63t-83 -68q-47 -30 -98.5 -44t-111.5 -14q-158 0 -267.5 105.5t-109.5 256.5z" />
    <glyph glyph-name="Ograve" unicode="&#xd2;" horiz-adv-x="760" 
d="M258 701h246q24 0 42 1.5t31 4.5t24.5 4t21.5 1q34 0 69 -45q41 -53 41 -127q0 -43 -14 -68q-17 -30 -53 -30q-48 0 -82 63t-55 63q-25 0 -32 -29q-3 -12 -3 -36v-307q0 -71 62 -98q30 -13 30 -34q0 -33 -32 -51q-50 -29 -174 -29q-118 0 -177 19t-59 58q0 21 45 43
q26 13 33.5 28.5t12 50.5t4.5 57l8 221q0 70 -10 93q-6 14 -21 14q-18 0 -58 -58t-85 -58q-27 0 -42 23.5t-15 53.5q0 64 38.5 123.5t80.5 59.5q7 0 14 -0.5t17.5 -2.5t41.5 -5t50 -3z" />
    <glyph glyph-name="Ograve" unicode="&#x422;" horiz-adv-x="760" 
d="M258 701h246q24 0 42 1.5t31 4.5t24.5 4t21.5 1q34 0 69 -45q41 -53 41 -127q0 -43 -14 -68q-17 -30 -53 -30q-48 0 -82 63t-55 63q-25 0 -32 -29q-3 -12 -3 -36v-307q0 -71 62 -98q30 -13 30 -34q0 -33 -32 -51q-50 -29 -174 -29q-118 0 -177 19t-59 58q0 21 45 43
q26 13 33.5 28.5t12 50.5t4.5 57l8 221q0 70 -10 93q-6 14 -21 14q-18 0 -58 -58t-85 -58q-27 0 -42 23.5t-15 53.5q0 64 38.5 123.5t80.5 59.5q7 0 14 -0.5t17.5 -2.5t41.5 -5t50 -3z" />
    <glyph glyph-name="Oacute" unicode="&#xd3;" horiz-adv-x="819" 
d="M212 1q-42 -11 -91 -11q-37 0 -61 8t-34 27q-15 28 -15 50q0 20 13 34t35.5 18.5t34.5 4.5q20 0 36 -10q34 -22 53 -22q15 0 23.5 1t33 8.5t38 39.5t13.5 80q0 34 -5.5 68t-16.5 58q-2 4 -49 77q-21 32 -49 63.5t-55 61.5q-7 9 -54 43q-33 24 -33 49q-3 13 -3 20
q0 19 33 29q47 14 166 14q136 0 181 -22q25 -12 25 -39q0 -13 -18 -36q-10 -13 -10 -21q0 -18 24 -51.5t41 -33.5q14 0 33 18q35 33 35 58q0 9 -19 36q-10 14 -10 32q0 29 38.5 44t115.5 15q89 0 116 -12t27 -47q0 -30 -56 -53q-36 -15 -51 -28q-42 -37 -66 -63
q-30 -32 -56 -70.5t-48 -90.5q-35 -83 -36 -84q-45 -90 -95 -147q-80 -90 -184 -116z" />
    <glyph glyph-name="Oacute" unicode="&#x423;" horiz-adv-x="819" 
d="M212 1q-42 -11 -91 -11q-37 0 -61 8t-34 27q-15 28 -15 50q0 20 13 34t35.5 18.5t34.5 4.5q20 0 36 -10q34 -22 53 -22q15 0 23.5 1t33 8.5t38 39.5t13.5 80q0 34 -5.5 68t-16.5 58q-2 4 -49 77q-21 32 -49 63.5t-55 61.5q-7 9 -54 43q-33 24 -33 49q-3 13 -3 20
q0 19 33 29q47 14 166 14q136 0 181 -22q25 -12 25 -39q0 -13 -18 -36q-10 -13 -10 -21q0 -18 24 -51.5t41 -33.5q14 0 33 18q35 33 35 58q0 9 -19 36q-10 14 -10 32q0 29 38.5 44t115.5 15q89 0 116 -12t27 -47q0 -30 -56 -53q-36 -15 -51 -28q-42 -37 -66 -63
q-30 -32 -56 -70.5t-48 -90.5q-35 -83 -36 -84q-45 -90 -95 -147q-80 -90 -184 -116z" />
    <glyph glyph-name="Ocircumflex" unicode="&#xd4;" horiz-adv-x="995" 
d="M482 712q99 0 140 -6q78 -12 78 -46q0 -26 -40 -36.5t-46.5 -17.5t-6.5 -14q0 -5 2 -8t3 -4q41 6 75 6q53 0 99 -13q36 -10 68 -29q42 -24 67 -61q39 -57 39 -137q0 -83 -68.5 -154t-151.5 -71l-147 -9q-1 -6 -5 -13t-4 -9q0 -4 8 -8q15 -8 73 -23q28 -7 28 -34
q0 -30 -90 -38q-44 -4 -84 -4h-41h-39q-64 0 -97 6q-53 10 -53 36q0 28 38.5 36.5t62.5 20.5q8 4 8 8q0 1 -4 8t-5 14l-147 9q-83 0 -151.5 70.5t-68.5 154.5q0 81 38 136q26 38 68 62q32 19 68 29q45 13 100 13q33 0 74 -6q2 2 3.5 5.5t1.5 6.5q0 7 -5 12q-9 9 -48.5 19.5
t-39.5 36.5q0 39 103 48q46 4 97 4zM240 358q0 -49 22.5 -80t69.5 -31q36 0 47 12q6 7 6 28v150q0 17 -8 25q-11 11 -38 11q-47 0 -73 -33t-26 -82zM742 358q0 50 -25 82.5t-74 32.5q-27 0 -36.5 -9.5t-9.5 -26.5v-150q0 -21 6 -28q10 -12 47 -12q47 0 69.5 30.5t22.5 80.5z
" />
    <glyph glyph-name="Ocircumflex" unicode="&#x424;" horiz-adv-x="995" 
d="M482 712q99 0 140 -6q78 -12 78 -46q0 -26 -40 -36.5t-46.5 -17.5t-6.5 -14q0 -5 2 -8t3 -4q41 6 75 6q53 0 99 -13q36 -10 68 -29q42 -24 67 -61q39 -57 39 -137q0 -83 -68.5 -154t-151.5 -71l-147 -9q-1 -6 -5 -13t-4 -9q0 -4 8 -8q15 -8 73 -23q28 -7 28 -34
q0 -30 -90 -38q-44 -4 -84 -4h-41h-39q-64 0 -97 6q-53 10 -53 36q0 28 38.5 36.5t62.5 20.5q8 4 8 8q0 1 -4 8t-5 14l-147 9q-83 0 -151.5 70.5t-68.5 154.5q0 81 38 136q26 38 68 62q32 19 68 29q45 13 100 13q33 0 74 -6q2 2 3.5 5.5t1.5 6.5q0 7 -5 12q-9 9 -48.5 19.5
t-39.5 36.5q0 39 103 48q46 4 97 4zM240 358q0 -49 22.5 -80t69.5 -31q36 0 47 12q6 7 6 28v150q0 17 -8 25q-11 11 -38 11q-47 0 -73 -33t-26 -82zM742 358q0 50 -25 82.5t-74 32.5q-27 0 -36.5 -9.5t-9.5 -26.5v-150q0 -21 6 -28q10 -12 47 -12q47 0 69.5 30.5t22.5 80.5z
" />
    <glyph glyph-name="Otilde" unicode="&#xd5;" horiz-adv-x="835" 
d="M610 532q-18 -17 -46 -55q-9 -12 -23 -33q-5 -6 -8 -10q-6 -8 -6 -11q0 -4 6 -12t8 -10q15 -21 30 -41q19 -26 71.5 -94t80.5 -100q13 -15 44 -34q48 -30 48 -67v-12q0 -30 -33 -45q-54 -24 -195 -24h-20q-70 0 -105 8q-64 15 -64 53q0 21 20.5 38.5t20.5 25.5
q0 17 -22 52q-11 17 -34 48q-5 7 -8 10.5t-9 3.5q-10 0 -42 -47t-32 -58q0 -9 13.5 -35t13.5 -51q0 -24 -26 -33.5t-126 -9.5q-96 0 -127 21q-20 13 -20 47q0 19 25 37.5t54 25.5t35 15q17 25 44 59l92 115q5 6 9.5 12t4.5 9q0 4 -5 10.5t-9 11.5q-30 42 -48 67
q-56 76 -94 117q-13 14 -48 33q-53 29 -53 65q0 32 26 47q53 31 211 31q100 0 130 -15q24 -12 24 -48q0 -26 -14 -43q-7 -8 -7 -16q0 -12 21.5 -36.5t30.5 -24.5q10 0 31 26t21 35q0 5 -15 30q-8 14 -8 31q0 31 23 43q34 18 134 18q60 0 88 -7q58 -15 58 -56q0 -30 -23 -41
q-13 -6 -49 -9q-21 0 -39 -12q-5 -3 -60 -55z" />
    <glyph glyph-name="Otilde" unicode="&#x425;" horiz-adv-x="835" 
d="M610 532q-18 -17 -46 -55q-9 -12 -23 -33q-5 -6 -8 -10q-6 -8 -6 -11q0 -4 6 -12t8 -10q15 -21 30 -41q19 -26 71.5 -94t80.5 -100q13 -15 44 -34q48 -30 48 -67v-12q0 -30 -33 -45q-54 -24 -195 -24h-20q-70 0 -105 8q-64 15 -64 53q0 21 20.5 38.5t20.5 25.5
q0 17 -22 52q-11 17 -34 48q-5 7 -8 10.5t-9 3.5q-10 0 -42 -47t-32 -58q0 -9 13.5 -35t13.5 -51q0 -24 -26 -33.5t-126 -9.5q-96 0 -127 21q-20 13 -20 47q0 19 25 37.5t54 25.5t35 15q17 25 44 59l92 115q5 6 9.5 12t4.5 9q0 4 -5 10.5t-9 11.5q-30 42 -48 67
q-56 76 -94 117q-13 14 -48 33q-53 29 -53 65q0 32 26 47q53 31 211 31q100 0 130 -15q24 -12 24 -48q0 -26 -14 -43q-7 -8 -7 -16q0 -12 21.5 -36.5t30.5 -24.5q10 0 31 26t21 35q0 5 -15 30q-8 14 -8 31q0 31 23 43q34 18 134 18q60 0 88 -7q58 -15 58 -56q0 -30 -23 -41
q-13 -6 -49 -9q-21 0 -39 -12q-5 -3 -60 -55z" />
    <glyph glyph-name="Odieresis" unicode="&#xd6;" 
d="M439 -14q-65 0 -112 1.5t-97 5.5t-113 9q-85 15 -85 61q0 27 12 40q5 5 25 16t23 38t3 225q0 150 -5.5 178.5t-33.5 49.5q-12 9 -22 25.5t-10 31.5q0 26 25 40q32 18 103 18q13 0 24.5 -0.5t22.5 -0.5q79 0 105 -5q69 -13 69 -59q0 -16 -7 -36q-18 -53 -19.5 -64
t-4.5 -169t-3 -193q0 -61 28 -77q15 -9 71 -9q42 0 66 17q28 20 28 59q0 100 -2.5 230.5t-7.5 154t-38 53.5q-14 13 -14 33q0 33 39 49q30 12 81 12q22 0 32 -1q131 -11 173 -32q26 -13 26 -38q0 -17 -8 -26.5t-26.5 -19.5t-24.5 -23.5t-6 -36.5v-260q0 -108 10 -136
q4 -11 31 -33q10 -7 14 -12q14 -16 16 -28t2 -21v-18q0 -72 -11 -124q-16 -74 -47 -74q-18 0 -82 97q-30 46 -69 46q-23 0 -91 3t-90 3z" />
    <glyph glyph-name="Odieresis" unicode="&#x426;" 
d="M439 -14q-65 0 -112 1.5t-97 5.5t-113 9q-85 15 -85 61q0 27 12 40q5 5 25 16t23 38t3 225q0 150 -5.5 178.5t-33.5 49.5q-12 9 -22 25.5t-10 31.5q0 26 25 40q32 18 103 18q13 0 24.5 -0.5t22.5 -0.5q79 0 105 -5q69 -13 69 -59q0 -16 -7 -36q-18 -53 -19.5 -64
t-4.5 -169t-3 -193q0 -61 28 -77q15 -9 71 -9q42 0 66 17q28 20 28 59q0 100 -2.5 230.5t-7.5 154t-38 53.5q-14 13 -14 33q0 33 39 49q30 12 81 12q22 0 32 -1q131 -11 173 -32q26 -13 26 -38q0 -17 -8 -26.5t-26.5 -19.5t-24.5 -23.5t-6 -36.5v-260q0 -108 10 -136
q4 -11 31 -33q10 -7 14 -12q14 -16 16 -28t2 -21v-18q0 -72 -11 -124q-16 -74 -47 -74q-18 0 -82 97q-30 46 -69 46q-23 0 -91 3t-90 3z" />
    <glyph glyph-name="multiply" unicode="&#xd7;" horiz-adv-x="775" 
d="M20 668q4 20 29 31q14 6 44.5 11t109.5 5q42 0 73.5 -4.5t43.5 -8.5q28 -10 28 -31q0 -12 -19 -33q-11 -12 -14 -33t-3 -44v-25t1 -26q0 -53 17 -80q22 -35 71 -35q21 0 29 9.5t10 27.5l4 52q0 59 -10 94q-13 36 -25 73q0 9 1 14q5 29 13 33.5t54.5 11t94.5 6.5
q66 0 120 -9q32 -6 43 -11q22 -11 22 -33q0 -6 -2 -15t-37 -43q-29 -28 -29 -116q-6 -43 -8 -70q-9 -89 -9 -144q0 -10 0.5 -23t1.5 -29q0 -41 1 -47t16 -44q6 -16 35 -33t29 -37q0 -46 -104 -63q-54 -9 -120 -9q-76 0 -114 9q-69 16 -69 61q0 19 27 31.5t34 16.5
q19 11 25 19.5t6 29.5v81q0 37 -4 48q-7 18 -29 18q-32 -5 -62 -9.5t-54 -4.5h-14h-12q-8 2 -12 2q-68 8 -90.5 16.5t-48.5 30.5q-40 34 -51 53q-17 30 -17 88q0 24 7.5 54t7.5 41v16q-3 9 -5 16.5t-20.5 26.5t-15.5 34z" />
    <glyph glyph-name="multiply" unicode="&#x427;" horiz-adv-x="775" 
d="M20 668q4 20 29 31q14 6 44.5 11t109.5 5q42 0 73.5 -4.5t43.5 -8.5q28 -10 28 -31q0 -12 -19 -33q-11 -12 -14 -33t-3 -44v-25t1 -26q0 -53 17 -80q22 -35 71 -35q21 0 29 9.5t10 27.5l4 52q0 59 -10 94q-13 36 -25 73q0 9 1 14q5 29 13 33.5t54.5 11t94.5 6.5
q66 0 120 -9q32 -6 43 -11q22 -11 22 -33q0 -6 -2 -15t-37 -43q-29 -28 -29 -116q-6 -43 -8 -70q-9 -89 -9 -144q0 -10 0.5 -23t1.5 -29q0 -41 1 -47t16 -44q6 -16 35 -33t29 -37q0 -46 -104 -63q-54 -9 -120 -9q-76 0 -114 9q-69 16 -69 61q0 19 27 31.5t34 16.5
q19 11 25 19.5t6 29.5v81q0 37 -4 48q-7 18 -29 18q-32 -5 -62 -9.5t-54 -4.5h-14h-12q-8 2 -12 2q-68 8 -90.5 16.5t-48.5 30.5q-40 34 -51 53q-17 30 -17 88q0 24 7.5 54t7.5 41v16q-3 9 -5 16.5t-20.5 26.5t-15.5 34z" />
    <glyph glyph-name="Oslash" unicode="&#xd8;" horiz-adv-x="1316" 
d="M1168 -12q-13 -2 -45.5 -3t-72.5 -1q-36 0 -76 0.5t-83 1.5q-46 0 -171.5 -1t-143.5 -1q-116 0 -204.5 2t-127.5 6q-56 2 -92 5q-124 11 -124 68q0 20 16 37q11 11 27.5 20.5t20 21.5t3.5 87v151q0 150 -5.5 178.5t-33.5 49.5q-12 9 -22 25.5t-10 31.5q0 26 25 40
q32 18 103 18q13 0 24.5 -0.5t22.5 -0.5q79 0 105 -5q69 -13 69 -59q0 -16 -7 -36q-18 -53 -19.5 -64t-4.5 -169t-3 -193q0 -61 28 -77q15 -9 71 -9q51 0 73 35q36 59 36 235q0 150 -5.5 178.5t-33.5 49.5q-12 9 -22 25.5t-10 31.5q0 26 25 40q32 18 103 18q13 0 24.5 -0.5
t22.5 -0.5q79 0 105 -5q69 -13 69 -59q0 -16 -7 -36q-18 -53 -19.5 -64t-4.5 -169t-3 -193q0 -61 28 -77q15 -9 71 -9q42 0 66 17q28 20 28 59q0 100 -2.5 230.5t-7.5 154t-38 53.5q-14 13 -14 33q0 33 39 49q30 12 81 12q22 0 32 -1q131 -11 173 -32q26 -13 26 -38
q0 -17 -8 -26.5t-26.5 -19.5t-24.5 -23.5t-6 -36.5v-260q0 -108 10 -136q4 -11 31 -33q11 -10 16 -16q16 -19 19 -35q6 -35 -39 -55q-28 -13 -77 -20z" />
    <glyph glyph-name="Oslash" unicode="&#x428;" horiz-adv-x="1316" 
d="M1168 -12q-13 -2 -45.5 -3t-72.5 -1q-36 0 -76 0.5t-83 1.5q-46 0 -171.5 -1t-143.5 -1q-116 0 -204.5 2t-127.5 6q-56 2 -92 5q-124 11 -124 68q0 20 16 37q11 11 27.5 20.5t20 21.5t3.5 87v151q0 150 -5.5 178.5t-33.5 49.5q-12 9 -22 25.5t-10 31.5q0 26 25 40
q32 18 103 18q13 0 24.5 -0.5t22.5 -0.5q79 0 105 -5q69 -13 69 -59q0 -16 -7 -36q-18 -53 -19.5 -64t-4.5 -169t-3 -193q0 -61 28 -77q15 -9 71 -9q51 0 73 35q36 59 36 235q0 150 -5.5 178.5t-33.5 49.5q-12 9 -22 25.5t-10 31.5q0 26 25 40q32 18 103 18q13 0 24.5 -0.5
t22.5 -0.5q79 0 105 -5q69 -13 69 -59q0 -16 -7 -36q-18 -53 -19.5 -64t-4.5 -169t-3 -193q0 -61 28 -77q15 -9 71 -9q42 0 66 17q28 20 28 59q0 100 -2.5 230.5t-7.5 154t-38 53.5q-14 13 -14 33q0 33 39 49q30 12 81 12q22 0 32 -1q131 -11 173 -32q26 -13 26 -38
q0 -17 -8 -26.5t-26.5 -19.5t-24.5 -23.5t-6 -36.5v-260q0 -108 10 -136q4 -11 31 -33q11 -10 16 -16q16 -19 19 -35q6 -35 -39 -55q-28 -13 -77 -20z" />
    <glyph glyph-name="Ugrave" unicode="&#xd9;" horiz-adv-x="1316" 
d="M244 -8q-65 4 -129 8q-87 13 -87 59q0 27 14 42q7 7 27 18t23 38t3 225q0 150 -5.5 178.5t-33.5 49.5q-12 9 -22 25.5t-10 31.5q0 26 25 40q32 18 103 18q13 0 24.5 -0.5t22.5 -0.5q79 0 105 -5q69 -13 69 -59q0 -16 -7 -36q-18 -53 -19.5 -64t-4.5 -169t-3 -193
q0 -61 28 -77q15 -9 71 -9q51 0 73 35q36 59 36 235q0 150 -5.5 178.5t-33.5 49.5q-12 9 -22 25.5t-10 31.5q0 26 25 40q32 18 103 18q13 0 24.5 -0.5t22.5 -0.5q79 0 105 -5q69 -13 69 -59q0 -16 -7 -36q-18 -53 -19.5 -64t-4.5 -169t-3 -193q0 -61 28 -77q15 -9 71 -9
q42 0 66 17q28 20 28 59q0 100 -2.5 230.5t-7.5 154t-38 53.5q-14 13 -14 33q0 33 39 49q30 12 81 12q22 0 32 -1q131 -11 173 -32q26 -13 26 -38q0 -17 -8 -26.5t-26.5 -19.5t-24.5 -23.5t-6 -36.5v-260q0 -108 10 -136q4 -11 31 -33q11 -8 16 -14q16 -18 18 -29.5t2 -19
v-14.5q0 -67 -13 -124q-17 -76 -49 -76q-18 0 -82 97q-30 46 -69 46q-23 0 -91 3t-90 3q-46 0 -171.5 -1t-143.5 -1q-116 0 -204.5 2t-127.5 6z" />
    <glyph glyph-name="Ugrave" unicode="&#x429;" horiz-adv-x="1316" 
d="M244 -8q-65 4 -129 8q-87 13 -87 59q0 27 14 42q7 7 27 18t23 38t3 225q0 150 -5.5 178.5t-33.5 49.5q-12 9 -22 25.5t-10 31.5q0 26 25 40q32 18 103 18q13 0 24.5 -0.5t22.5 -0.5q79 0 105 -5q69 -13 69 -59q0 -16 -7 -36q-18 -53 -19.5 -64t-4.5 -169t-3 -193
q0 -61 28 -77q15 -9 71 -9q51 0 73 35q36 59 36 235q0 150 -5.5 178.5t-33.5 49.5q-12 9 -22 25.5t-10 31.5q0 26 25 40q32 18 103 18q13 0 24.5 -0.5t22.5 -0.5q79 0 105 -5q69 -13 69 -59q0 -16 -7 -36q-18 -53 -19.5 -64t-4.5 -169t-3 -193q0 -61 28 -77q15 -9 71 -9
q42 0 66 17q28 20 28 59q0 100 -2.5 230.5t-7.5 154t-38 53.5q-14 13 -14 33q0 33 39 49q30 12 81 12q22 0 32 -1q131 -11 173 -32q26 -13 26 -38q0 -17 -8 -26.5t-26.5 -19.5t-24.5 -23.5t-6 -36.5v-260q0 -108 10 -136q4 -11 31 -33q11 -8 16 -14q16 -18 18 -29.5t2 -19
v-14.5q0 -67 -13 -124q-17 -76 -49 -76q-18 0 -82 97q-30 46 -69 46q-23 0 -91 3t-90 3q-46 0 -171.5 -1t-143.5 -1q-116 0 -204.5 2t-127.5 6z" />
    <glyph glyph-name="Uacute" unicode="&#xda;" horiz-adv-x="1048" 
d="M377 213l7 312v16q0 31 -4 42q-7 21 -29 21q-33 0 -72 -11q-22 -6 -71 -25q-18 -7 -34.5 -28.5t-55.5 -32.5q-6 -2 -15.5 -3.5t-18.5 -1.5q-39 0 -62 42q-10 17 -10 37q0 52 69.5 89.5t182.5 37.5q28 0 77 -3.5t63 -3.5q44 0 122 3.5t100 3.5q27 0 49.5 -14.5t18.5 -41.5
q-6 -42 -41 -77t-35 -74q0 -71 7.5 -87t33.5 -16q29 4 60.5 9t55.5 5q25 0 38 -2q68 -8 90.5 -16.5t48.5 -30.5q40 -34 51 -53q17 -30 17 -88q0 -92 -52 -151q-67 -76 -204 -76q-34 0 -100 5.5t-86 5.5q-34 0 -79 -5q-107 -12 -133 -12q-23 0 -40 12.5t-17 35.5q0 7 1 11
q5 22 27 35q40 24 40 130zM626 270v-50q0 -80 13 -103q9 -16 37 -16q40 0 58.5 24.5t18.5 66.5q0 53 -17 80q-22 35 -71 35q-22 0 -30.5 -9.5t-8.5 -27.5z" />
    <glyph glyph-name="Uacute" unicode="&#x42a;" horiz-adv-x="1048" 
d="M377 213l7 312v16q0 31 -4 42q-7 21 -29 21q-33 0 -72 -11q-22 -6 -71 -25q-18 -7 -34.5 -28.5t-55.5 -32.5q-6 -2 -15.5 -3.5t-18.5 -1.5q-39 0 -62 42q-10 17 -10 37q0 52 69.5 89.5t182.5 37.5q28 0 77 -3.5t63 -3.5q44 0 122 3.5t100 3.5q27 0 49.5 -14.5t18.5 -41.5
q-6 -42 -41 -77t-35 -74q0 -71 7.5 -87t33.5 -16q29 4 60.5 9t55.5 5q25 0 38 -2q68 -8 90.5 -16.5t48.5 -30.5q40 -34 51 -53q17 -30 17 -88q0 -92 -52 -151q-67 -76 -204 -76q-34 0 -100 5.5t-86 5.5q-34 0 -79 -5q-107 -12 -133 -12q-23 0 -40 12.5t-17 35.5q0 7 1 11
q5 22 27 35q40 24 40 130zM626 270v-50q0 -80 13 -103q9 -16 37 -16q40 0 58.5 24.5t18.5 66.5q0 53 -17 80q-22 35 -71 35q-22 0 -30.5 -9.5t-8.5 -27.5z" />
    <glyph glyph-name="Ucircumflex" unicode="&#xdb;" horiz-adv-x="1183" 
d="M83 570q-6 16 -35 33t-29 37q0 46 104 63q54 9 120 9q76 0 114 -9q69 -16 69 -61q0 -19 -27 -31.5t-34 -16.5q-19 -11 -25 -19.5t-6 -29.5v-81q0 -37 5.5 -51.5t27.5 -14.5q29 4 60.5 9t55.5 5q25 0 38 -2q68 -8 90.5 -16.5t48.5 -30.5q40 -34 51 -53q17 -30 17 -88
q0 -92 -52 -151q-67 -76 -204 -76q-34 0 -100 5.5t-86 5.5q-34 0 -79 -5q-107 -12 -133 -12q-23 0 -40 12.5t-17 35.5q0 7 1 11q5 22 27 35q40 24 40 130q6 43 8 70q9 89 9 144v27q-2 17 -2 25q0 41 -4 58q-7 18 -13 33zM824 301v99q0 88 -5.5 122.5t-15.5 47.5q-5 7 -39 31
q-23 17 -23 39q0 46 104 63q54 9 120 9q76 0 114 -9q69 -16 69 -61q0 -21 -22 -34q-34 -20 -39 -26q-12 -14 -16 -62.5t-4 -119.5v-99q0 -122 8 -155q5 -19 23 -30t35 -20q15 -11 15 -32q0 -34 -24 -48q-47 -27 -189 -27q-92 0 -137.5 16t-45.5 49q0 21 26 38q20 13 24 18
q10 12 16 55t6 136zM334 270v-50q0 -80 13 -103q9 -16 37 -16q40 0 58.5 24.5t18.5 66.5q0 53 -17 80q-22 35 -71 35q-22 0 -30.5 -9.5t-8.5 -27.5z" />
    <glyph glyph-name="Ucircumflex" unicode="&#x42b;" horiz-adv-x="1183" 
d="M83 570q-6 16 -35 33t-29 37q0 46 104 63q54 9 120 9q76 0 114 -9q69 -16 69 -61q0 -19 -27 -31.5t-34 -16.5q-19 -11 -25 -19.5t-6 -29.5v-81q0 -37 5.5 -51.5t27.5 -14.5q29 4 60.5 9t55.5 5q25 0 38 -2q68 -8 90.5 -16.5t48.5 -30.5q40 -34 51 -53q17 -30 17 -88
q0 -92 -52 -151q-67 -76 -204 -76q-34 0 -100 5.5t-86 5.5q-34 0 -79 -5q-107 -12 -133 -12q-23 0 -40 12.5t-17 35.5q0 7 1 11q5 22 27 35q40 24 40 130q6 43 8 70q9 89 9 144v27q-2 17 -2 25q0 41 -4 58q-7 18 -13 33zM824 301v99q0 88 -5.5 122.5t-15.5 47.5q-5 7 -39 31
q-23 17 -23 39q0 46 104 63q54 9 120 9q76 0 114 -9q69 -16 69 -61q0 -21 -22 -34q-34 -20 -39 -26q-12 -14 -16 -62.5t-4 -119.5v-99q0 -122 8 -155q5 -19 23 -30t35 -20q15 -11 15 -32q0 -34 -24 -48q-47 -27 -189 -27q-92 0 -137.5 16t-45.5 49q0 21 26 38q20 13 24 18
q10 12 16 55t6 136zM334 270v-50q0 -80 13 -103q9 -16 37 -16q40 0 58.5 24.5t18.5 66.5q0 53 -17 80q-22 35 -71 35q-22 0 -30.5 -9.5t-8.5 -27.5z" />
    <glyph glyph-name="Udieresis" unicode="&#xdc;" horiz-adv-x="754" 
d="M83 570q-6 16 -35 33t-29 37q0 46 104 63q54 9 120 9q76 0 114 -9q69 -16 69 -61q0 -19 -27 -31.5t-34 -16.5q-19 -11 -25 -19.5t-6 -29.5v-81q0 -37 5.5 -51.5t27.5 -14.5q29 4 60.5 9t55.5 5q25 0 38 -2q68 -8 90.5 -16.5t48.5 -30.5q40 -34 51 -53q17 -30 17 -88
q0 -92 -52 -151q-67 -76 -204 -76q-34 0 -100 5.5t-86 5.5q-34 0 -79 -5q-107 -12 -133 -12q-23 0 -40 12.5t-17 35.5q0 7 1 11q5 22 27 35q40 24 40 130q6 43 8 70q9 89 9 144v27q-2 17 -2 25q0 41 -4 58q-7 18 -13 33zM334 270v-50q0 -80 13 -103q9 -16 37 -16
q40 0 58.5 24.5t18.5 66.5q0 53 -17 80q-22 35 -71 35q-22 0 -30.5 -9.5t-8.5 -27.5z" />
    <glyph glyph-name="Udieresis" unicode="&#x42c;" horiz-adv-x="754" 
d="M83 570q-6 16 -35 33t-29 37q0 46 104 63q54 9 120 9q76 0 114 -9q69 -16 69 -61q0 -19 -27 -31.5t-34 -16.5q-19 -11 -25 -19.5t-6 -29.5v-81q0 -37 5.5 -51.5t27.5 -14.5q29 4 60.5 9t55.5 5q25 0 38 -2q68 -8 90.5 -16.5t48.5 -30.5q40 -34 51 -53q17 -30 17 -88
q0 -92 -52 -151q-67 -76 -204 -76q-34 0 -100 5.5t-86 5.5q-34 0 -79 -5q-107 -12 -133 -12q-23 0 -40 12.5t-17 35.5q0 7 1 11q5 22 27 35q40 24 40 130q6 43 8 70q9 89 9 144v27q-2 17 -2 25q0 41 -4 58q-7 18 -13 33zM334 270v-50q0 -80 13 -103q9 -16 37 -16
q40 0 58.5 24.5t18.5 66.5q0 53 -17 80q-22 35 -71 35q-22 0 -30.5 -9.5t-8.5 -27.5z" />
    <glyph glyph-name="Yacute" unicode="&#xdd;" horiz-adv-x="705" 
d="M111 194q61 0 125 -58q31 -28 72 -28h12q9 2 14 2q35 4 59 36q19 26 25 57q2 12 4.5 28t2.5 29q0 17 -1.5 25t-7 18t-20.5 10q-14 0 -42 -7q-68 -17 -89 -17q-37 0 -61 12q-35 18 -35 58q0 34 18.5 47t50.5 13q15 0 43 -4.5t42.5 -6.5t20.5 -2q25 0 40 7t15 15
q0 62 -39 104t-90 42q-30 0 -92 -57t-92 -57q-24 0 -45 26q-17 21 -17 48q0 64 88.5 122.5t183.5 58.5q128 0 220 -66q77 -55 120 -148q37 -80 37 -153q0 -157 -118 -262q-113 -100 -271 -100q-99 0 -146 10q-73 15 -99 59q-14 24 -14 49q0 37 27.5 63.5t58.5 26.5z" />
    <glyph glyph-name="Yacute" unicode="&#x42d;" horiz-adv-x="705" 
d="M111 194q61 0 125 -58q31 -28 72 -28h12q9 2 14 2q35 4 59 36q19 26 25 57q2 12 4.5 28t2.5 29q0 17 -1.5 25t-7 18t-20.5 10q-14 0 -42 -7q-68 -17 -89 -17q-37 0 -61 12q-35 18 -35 58q0 34 18.5 47t50.5 13q15 0 43 -4.5t42.5 -6.5t20.5 -2q25 0 40 7t15 15
q0 62 -39 104t-90 42q-30 0 -92 -57t-92 -57q-24 0 -45 26q-17 21 -17 48q0 64 88.5 122.5t183.5 58.5q128 0 220 -66q77 -55 120 -148q37 -80 37 -153q0 -157 -118 -262q-113 -100 -271 -100q-99 0 -146 10q-73 15 -99 59q-14 24 -14 49q0 37 27.5 63.5t58.5 26.5z" />
    <glyph glyph-name="Thorn" unicode="&#xde;" horiz-adv-x="1284" 
d="M349 265q-4 -23 -4 -49q0 -35 8 -62.5t24 -38t33 -20.5q16 -12 16 -31q0 -34 -24 -48q-47 -27 -189 -27q-92 0 -137.5 16t-45.5 49q0 21 26 38q20 13 24 18q10 12 16 55t6 136v99q0 88 -5.5 122.5t-15.5 47.5q-5 7 -39 31q-23 17 -23 39q0 46 104 63q54 9 120 9
q76 0 114 -9q69 -16 69 -61q0 -21 -22 -34q-34 -20 -39 -26q-9 -10 -14.5 -45t-5.5 -74q0 -25 3.5 -42.5t30.5 -17.5q32 0 70.5 14t41.5 27q28 109 127 186q110 85 253 85q128 0 220 -66q77 -55 120 -148q37 -80 37 -153q0 -157 -118 -262q-113 -100 -271 -100
q-146 0 -248 77q-106 80 -126 213q-1 6 -18 10t-41 4q-28 0 -51.5 -6.5t-25.5 -18.5zM996 242q0 94 -41 196q-51 128 -130 128q-39 0 -61.5 -33t-22.5 -74q0 -88 43 -194q53 -130 125 -130q43 0 65 31.5t22 75.5z" />
    <glyph glyph-name="Thorn" unicode="&#x42e;" horiz-adv-x="1284" 
d="M349 265q-4 -23 -4 -49q0 -35 8 -62.5t24 -38t33 -20.5q16 -12 16 -31q0 -34 -24 -48q-47 -27 -189 -27q-92 0 -137.5 16t-45.5 49q0 21 26 38q20 13 24 18q10 12 16 55t6 136v99q0 88 -5.5 122.5t-15.5 47.5q-5 7 -39 31q-23 17 -23 39q0 46 104 63q54 9 120 9
q76 0 114 -9q69 -16 69 -61q0 -21 -22 -34q-34 -20 -39 -26q-9 -10 -14.5 -45t-5.5 -74q0 -25 3.5 -42.5t30.5 -17.5q32 0 70.5 14t41.5 27q28 109 127 186q110 85 253 85q128 0 220 -66q77 -55 120 -148q37 -80 37 -153q0 -157 -118 -262q-113 -100 -271 -100
q-146 0 -248 77q-106 80 -126 213q-1 6 -18 10t-41 4q-28 0 -51.5 -6.5t-25.5 -18.5zM996 242q0 94 -41 196q-51 128 -130 128q-39 0 -61.5 -33t-22.5 -74q0 -88 43 -194q53 -130 125 -130q43 0 65 31.5t22 75.5z" />
    <glyph glyph-name="germandbls" unicode="&#xdf;" horiz-adv-x="825" 
d="M732 208q3 -26 53 -93q22 -30 22 -53q0 -47 -77 -66q-48 -12 -113 -12q-112 0 -154 20q-33 16 -33 48q0 19 27.5 38t31 38.5t5.5 50.5t2 50q0 45 -5.5 55.5t-24.5 10.5q-37 0 -58 -28q-15 -20 -25 -63q-29 -122 -57 -161q-46 -63 -154 -63q-79 0 -117 24q-32 20 -32 54
q0 22 18 29q42 18 49 69q11 81 36 120.5t79 59.5q14 6 17 8q8 6 8 16q0 11 -16 20q-41 20 -63 57t-22 83q0 93 79 144q68 44 165 44q34 0 102.5 -3.5t91.5 -3.5q21 0 46 2q62 5 77 5q43 0 69 -10q39 -15 39 -52q0 -51 -30 -88q-33 -41 -36 -65q-9 -71 -9 -74q-3 -31 -3 -65
q0 -28 3 -62.5t9 -83.5zM496 544q0 29 -5 39q-8 15 -33 15q-40 0 -57 -31q-13 -23 -13 -68q0 -49 19.5 -73.5t66.5 -24.5q19 0 23 8.5t4 18.5q-1 13 -1 21z" />
    <glyph glyph-name="germandbls" unicode="&#x42f;" horiz-adv-x="825" 
d="M732 208q3 -26 53 -93q22 -30 22 -53q0 -47 -77 -66q-48 -12 -113 -12q-112 0 -154 20q-33 16 -33 48q0 19 27.5 38t31 38.5t5.5 50.5t2 50q0 45 -5.5 55.5t-24.5 10.5q-37 0 -58 -28q-15 -20 -25 -63q-29 -122 -57 -161q-46 -63 -154 -63q-79 0 -117 24q-32 20 -32 54
q0 22 18 29q42 18 49 69q11 81 36 120.5t79 59.5q14 6 17 8q8 6 8 16q0 11 -16 20q-41 20 -63 57t-22 83q0 93 79 144q68 44 165 44q34 0 102.5 -3.5t91.5 -3.5q21 0 46 2q62 5 77 5q43 0 69 -10q39 -15 39 -52q0 -51 -30 -88q-33 -41 -36 -65q-9 -71 -9 -74q-3 -31 -3 -65
q0 -28 3 -62.5t9 -83.5zM496 544q0 29 -5 39q-8 15 -33 15q-40 0 -57 -31q-13 -23 -13 -68q0 -49 19.5 -73.5t66.5 -24.5q19 0 23 8.5t4 18.5q-1 13 -1 21z" />
    <glyph glyph-name="agrave" unicode="&#xe0;" horiz-adv-x="596" 
d="M522 339v-100q0 -61 35 -100q16 -18 16 -40q0 -43 -43.5 -78t-98.5 -35q-46 0 -73.5 25.5t-32.5 25.5q-33 -21 -67 -36t-78 -15q-68 0 -111 34q-49 39 -49 109q0 62 53 106q64 53 185 53q28 0 34 3q11 6 11 31q0 56 -11.5 79t-35.5 23q-26 0 -52 -34q-57 -74 -103 -74
q-24 0 -40 15t-16 40q0 59 90 100q82 37 174 37q68 0 128 -32q85 -45 85 -137zM279 215q-29 0 -43 -19t-14 -45q0 -22 11 -38t32 -16q25 0 36 21q8 16 8 44q0 23 -4 34q-7 19 -26 19z" />
    <glyph glyph-name="agrave" unicode="&#x430;" horiz-adv-x="596" 
d="M522 339v-100q0 -61 35 -100q16 -18 16 -40q0 -43 -43.5 -78t-98.5 -35q-46 0 -73.5 25.5t-32.5 25.5q-33 -21 -67 -36t-78 -15q-68 0 -111 34q-49 39 -49 109q0 62 53 106q64 53 185 53q28 0 34 3q11 6 11 31q0 56 -11.5 79t-35.5 23q-26 0 -52 -34q-57 -74 -103 -74
q-24 0 -40 15t-16 40q0 59 90 100q82 37 174 37q68 0 128 -32q85 -45 85 -137zM279 215q-29 0 -43 -19t-14 -45q0 -22 11 -38t32 -16q25 0 36 21q8 16 8 44q0 23 -4 34q-7 19 -26 19z" />
    <glyph glyph-name="aacute" unicode="&#xe1;" horiz-adv-x="665" 
d="M91 68q-22 43 -37 97t-15 101q0 79 3.5 118.5t16.5 115.5q9 49 20 80q18 48 51 75.5t64.5 40.5t70.5 13q44 0 102 -15.5t84 -15.5q22 0 22 15q0 6 -6 23.5t-8 29.5t15 22t45 10q11 0 22 -1.5t27 -9.5t25 -30t9 -50q0 -36 -16 -64q-19 -32 -55 -42q-16 -4 -37 -4
q-20 0 -81 9q-34 5 -54 5q-18 0 -35 -2t-35 -9q-10 -3 -15 -14.5t-5 -26.5t3.5 -34t7.5 -40q0 -16 7 -16q29 24 69 43t83 19q81 0 135.5 -61.5t54.5 -159.5q0 -130 -83 -217t-211 -87q-94 0 -159 22t-85 60zM410 203q0 54 -14 94q-21 60 -65 60q-30 0 -39.5 -18.5
t-9.5 -51.5q0 -141 9.5 -175.5t41.5 -34.5q44 0 63 44q14 32 14 82z" />
    <glyph glyph-name="aacute" unicode="&#x431;" horiz-adv-x="665" 
d="M91 68q-22 43 -37 97t-15 101q0 79 3.5 118.5t16.5 115.5q9 49 20 80q18 48 51 75.5t64.5 40.5t70.5 13q44 0 102 -15.5t84 -15.5q22 0 22 15q0 6 -6 23.5t-8 29.5t15 22t45 10q11 0 22 -1.5t27 -9.5t25 -30t9 -50q0 -36 -16 -64q-19 -32 -55 -42q-16 -4 -37 -4
q-20 0 -81 9q-34 5 -54 5q-18 0 -35 -2t-35 -9q-10 -3 -15 -14.5t-5 -26.5t3.5 -34t7.5 -40q0 -16 7 -16q29 24 69 43t83 19q81 0 135.5 -61.5t54.5 -159.5q0 -130 -83 -217t-211 -87q-94 0 -159 22t-85 60zM410 203q0 54 -14 94q-21 60 -65 60q-30 0 -39.5 -18.5
t-9.5 -51.5q0 -141 9.5 -175.5t41.5 -34.5q44 0 63 44q14 32 14 82z" />
    <glyph glyph-name="acircumflex" unicode="&#xe2;" horiz-adv-x="700" 
d="M640 392q0 -47 -22 -73q-16 -19 -57 -37q-15 -6 -15 -15q0 -6 8 -10.5t18 -5.5q36 -6 65.5 -34.5t29.5 -71.5q0 -61 -53 -101q-64 -48 -183 -48q-30 0 -81 4t-77 4q-30 0 -105 -6t-105 -6q-20 0 -34.5 9t-14.5 26q0 5 1.5 11.5t29 26t27.5 88.5q4 27 6 44q6 53 6 96
q0 40 -5 66t-33.5 55t-28.5 55q0 19 17.5 30t40.5 11q47 0 129.5 -2.5t88.5 -2.5q26 0 69 2.5t50 2.5q109 0 172 -38q56 -34 56 -80zM314 392v-58q0 -26 3 -34t22 -8q36 0 49 18.5t13 51.5q0 31 -11 49q-15 24 -48 24q-18 0 -23 -8t-5 -25v-10zM314 194v-36q0 -56 11 -73
q8 -12 31 -12q34 0 50 18t16 47q0 33 -12 54q-17 29 -55 29q-41 0 -41 -27z" />
    <glyph glyph-name="acircumflex" unicode="&#x432;" horiz-adv-x="700" 
d="M640 392q0 -47 -22 -73q-16 -19 -57 -37q-15 -6 -15 -15q0 -6 8 -10.5t18 -5.5q36 -6 65.5 -34.5t29.5 -71.5q0 -61 -53 -101q-64 -48 -183 -48q-30 0 -81 4t-77 4q-30 0 -105 -6t-105 -6q-20 0 -34.5 9t-14.5 26q0 5 1.5 11.5t29 26t27.5 88.5q4 27 6 44q6 53 6 96
q0 40 -5 66t-33.5 55t-28.5 55q0 19 17.5 30t40.5 11q47 0 129.5 -2.5t88.5 -2.5q26 0 69 2.5t50 2.5q109 0 172 -38q56 -34 56 -80zM314 392v-58q0 -26 3 -34t22 -8q36 0 49 18.5t13 51.5q0 31 -11 49q-15 24 -48 24q-18 0 -23 -8t-5 -25v-10zM314 194v-36q0 -56 11 -73
q8 -12 31 -12q34 0 50 18t16 47q0 33 -12 54q-17 29 -55 29q-41 0 -41 -27z" />
    <glyph glyph-name="atilde" unicode="&#xe3;" horiz-adv-x="644" 
d="M384 401q-57 0 -74.5 -6.5t-22.5 -32.5q-1 -46 -1.5 -105t-0.5 -65v-41q0 -58 22 -85q11 -13 11 -31q0 -34 -65 -43q-29 -4 -61 -4h-21h-32q-67 0 -93.5 10.5t-26.5 31.5q0 10 8.5 22t17.5 19q22 15 26.5 35.5t4.5 128.5v62q0 91 -3.5 104t-23.5 23t-20 27q0 36 66 52
q42 10 100 10h291h29q55 0 75 -10.5t20 -32.5q0 -59 -15 -99.5t-43 -40.5q-10 0 -22 6q-42 29 -62 42q-35 23 -84 23z" />
    <glyph glyph-name="atilde" unicode="&#x433;" horiz-adv-x="644" 
d="M384 401q-57 0 -74.5 -6.5t-22.5 -32.5q-1 -46 -1.5 -105t-0.5 -65v-41q0 -58 22 -85q11 -13 11 -31q0 -34 -65 -43q-29 -4 -61 -4h-21h-32q-67 0 -93.5 10.5t-26.5 31.5q0 10 8.5 22t17.5 19q22 15 26.5 35.5t4.5 128.5v62q0 91 -3.5 104t-23.5 23t-20 27q0 36 66 52
q42 10 100 10h291h29q55 0 75 -10.5t20 -32.5q0 -59 -15 -99.5t-43 -40.5q-10 0 -22 6q-42 29 -62 42q-35 23 -84 23z" />
    <glyph glyph-name="adieresis" unicode="&#xe4;" horiz-adv-x="756" 
d="M675 90q33 -7 42 -16q14 -13 14 -52q0 -40 -4 -69q-8 -59 -31 -65q-8 -2 -12 -2q-21 0 -41 26q-9 13 -18 25q-16 19 -32 37q-16 13 -38 17t-40 5t-42 1q-29 0 -52.5 -1.5t-53.5 -3.5q-20 0 -110 -5q-36 -2 -56 -2q-25 0 -47 -15q-6 -4 -54 -56q-12 -13 -25.5 -21.5
t-26.5 -8.5q-9 0 -16.5 6.5t-10 19.5t-2.5 38q0 44 5 78t17 41q28 5 49 8q41 6 76 42q15 14 23 45q0 1 15 71q1 7 12.5 70.5t19 87t26 49.5t42.5 43t60 28.5t70 11.5q27 0 51.5 -2t77.5 -7t99 -9q62 -11 58 -43q-3 -16 -19 -29q-2 -2 -8 -5q-22 -15 -25 -23q-9 -22 -9 -99
v-153q0 -5 -1 -17.5t-1 -13.5q0 -13 3.5 -21.5t14.5 -10.5zM373 100q36 0 49 4q26 8 26 34q0 6 2 103t2 121q0 60 -42 55q-25 -3 -44 -31q-15 -23 -20 -50q-10 -60 -19 -105t-14 -62.5t-17 -35t-12 -21.5q0 -8 16.5 -10t72.5 -2z" />
    <glyph glyph-name="adieresis" unicode="&#x434;" horiz-adv-x="756" 
d="M675 90q33 -7 42 -16q14 -13 14 -52q0 -40 -4 -69q-8 -59 -31 -65q-8 -2 -12 -2q-21 0 -41 26q-9 13 -18 25q-16 19 -32 37q-16 13 -38 17t-40 5t-42 1q-29 0 -52.5 -1.5t-53.5 -3.5q-20 0 -110 -5q-36 -2 -56 -2q-25 0 -47 -15q-6 -4 -54 -56q-12 -13 -25.5 -21.5
t-26.5 -8.5q-9 0 -16.5 6.5t-10 19.5t-2.5 38q0 44 5 78t17 41q28 5 49 8q41 6 76 42q15 14 23 45q0 1 15 71q1 7 12.5 70.5t19 87t26 49.5t42.5 43t60 28.5t70 11.5q27 0 51.5 -2t77.5 -7t99 -9q62 -11 58 -43q-3 -16 -19 -29q-2 -2 -8 -5q-22 -15 -25 -23q-9 -22 -9 -99
v-153q0 -5 -1 -17.5t-1 -13.5q0 -13 3.5 -21.5t14.5 -10.5zM373 100q36 0 49 4q26 8 26 34q0 6 2 103t2 121q0 60 -42 55q-25 -3 -44 -31q-15 -23 -20 -50q-10 -60 -19 -105t-14 -62.5t-17 -35t-12 -21.5q0 -8 16.5 -10t72.5 -2z" />
    <glyph glyph-name="aring" unicode="&#xe5;" horiz-adv-x="557" 
d="M474 237q-27 -8 -48.5 -11t-41.5 -3q-5 0 -47.5 3.5t-72.5 3.5h-18q-9 -2 -9 -14q0 -36 37 -64t75 -28q36 0 68.5 14.5t64.5 30.5q14 0 26.5 -17.5t12.5 -32.5q0 -54 -81 -95q-75 -38 -150 -38q-126 0 -196 81q-62 72 -62 178q0 116 76 191t190 75q115 0 180 -68
q52 -55 52 -124q0 -45 -15 -62q-10 -12 -41 -20zM292 323q31 0 40 3q19 6 19 30q0 28 -16 46t-43 18q-24 0 -42 -20.5t-18 -45.5q0 -15 8 -23t35 -8h17z" />
    <glyph glyph-name="aring" unicode="&#x435;" horiz-adv-x="557" 
d="M474 237q-27 -8 -48.5 -11t-41.5 -3q-5 0 -47.5 3.5t-72.5 3.5h-18q-9 -2 -9 -14q0 -36 37 -64t75 -28q36 0 68.5 14.5t64.5 30.5q14 0 26.5 -17.5t12.5 -32.5q0 -54 -81 -95q-75 -38 -150 -38q-126 0 -196 81q-62 72 -62 178q0 116 76 191t190 75q115 0 180 -68
q52 -55 52 -124q0 -45 -15 -62q-10 -12 -41 -20zM292 323q31 0 40 3q19 6 19 30q0 28 -16 46t-43 18q-24 0 -42 -20.5t-18 -45.5q0 -15 8 -23t35 -8h17z" />
    <glyph glyph-name="ae" unicode="&#xe6;" horiz-adv-x="1090" 
d="M412 48q0 18 20 36t20 68q0 15 -4 27.5t-10 12.5t-17 -13.5t-21 -26.5q-13 -14 -43 -64q-22 -36 -50 -55q-41 -28 -94 -38q-32 -6 -55 -6q-31 0 -61 11q-26 8 -52 17q-26 12 -26 36q0 25 25 46q31 26 63 52q38 36 77 73q61 65 61 103q0 18 -39 45.5t-58 27.5q-34 0 -54 9
q-32 14 -32 49q0 41 71 51q28 4 67 4h22q50 0 86 -8q61 -14 61 -47q0 -12 -7.5 -27t-7.5 -20q0 -11 34 -44t46 -33t17 9t5 37q0 15 -21 32t-21 45q0 29 43 41.5t94 12.5q42 0 75 -10q48 -15 48 -44q0 -27 -21 -44t-21 -33q0 -22 3.5 -34t18.5 -12q12 0 46 33t34 44
q0 7 -7.5 22t-7.5 25q0 26 38.5 40.5t108.5 14.5h23q56 0 87 -8q50 -13 50 -47t-31 -48q-22 -10 -55 -10q-20 0 -58.5 -29t-38.5 -52q0 -31 61 -95q67 -63 77 -73q48 -39 63 -52q25 -21 25 -46q0 -27 -38 -40q-20 -7 -40 -13q-30 -11 -61 -11q-23 0 -54 6t-50.5 13.5
t-46 25.5t-48.5 54q-30 50 -43 64q-14 18 -20 26q-11 14 -18 14t-10.5 -15t-3.5 -25q0 -52 26 -74q14 -12 14 -30q0 -26 -26 -42q-33 -21 -102 -21q-75 0 -110 21q-26 16 -26 42z" />
    <glyph glyph-name="ae" unicode="&#x436;" horiz-adv-x="1090" 
d="M412 48q0 18 20 36t20 68q0 15 -4 27.5t-10 12.5t-17 -13.5t-21 -26.5q-13 -14 -43 -64q-22 -36 -50 -55q-41 -28 -94 -38q-32 -6 -55 -6q-31 0 -61 11q-26 8 -52 17q-26 12 -26 36q0 25 25 46q31 26 63 52q38 36 77 73q61 65 61 103q0 18 -39 45.5t-58 27.5q-34 0 -54 9
q-32 14 -32 49q0 41 71 51q28 4 67 4h22q50 0 86 -8q61 -14 61 -47q0 -12 -7.5 -27t-7.5 -20q0 -11 34 -44t46 -33t17 9t5 37q0 15 -21 32t-21 45q0 29 43 41.5t94 12.5q42 0 75 -10q48 -15 48 -44q0 -27 -21 -44t-21 -33q0 -22 3.5 -34t18.5 -12q12 0 46 33t34 44
q0 7 -7.5 22t-7.5 25q0 26 38.5 40.5t108.5 14.5h23q56 0 87 -8q50 -13 50 -47t-31 -48q-22 -10 -55 -10q-20 0 -58.5 -29t-38.5 -52q0 -31 61 -95q67 -63 77 -73q48 -39 63 -52q25 -21 25 -46q0 -27 -38 -40q-20 -7 -40 -13q-30 -11 -61 -11q-23 0 -54 6t-50.5 13.5
t-46 25.5t-48.5 54q-30 50 -43 64q-14 18 -20 26q-11 14 -18 14t-10.5 -15t-3.5 -25q0 -52 26 -74q14 -12 14 -30q0 -26 -26 -42q-33 -21 -102 -21q-75 0 -110 21q-26 16 -26 42z" />
    <glyph glyph-name="ccedilla" unicode="&#xe7;" horiz-adv-x="616" 
d="M244 225q-12 0 -29 -4q-44 -10 -54 -10q-14 0 -21 3q-37 13 -37 43q0 17 15.5 29.5t90.5 27.5q56 11 56 50q0 21 -8.5 27t-53.5 10q-26 0 -55 -25t-57 -25q-14 0 -37 6q-34 10 -34 46q0 26 16 50q14 24 96 42.5t160 18.5h35q98 0 151 -15q88 -25 88 -90q0 -57 -35 -87
q-39 -24 -77 -48q46 -7 68 -17q69 -31 69 -99q0 -87 -88 -132t-257 -45q-56 0 -128 17q-98 23 -98 57q0 4 -2 17t-2 21q0 19 9 28q13 13 43 13q50 0 85 -9q81 -21 84 -21q50 0 65 7q24 11 24 50q0 36 -22.5 50t-59.5 14z" />
    <glyph glyph-name="ccedilla" unicode="&#x437;" horiz-adv-x="616" 
d="M244 225q-12 0 -29 -4q-44 -10 -54 -10q-14 0 -21 3q-37 13 -37 43q0 17 15.5 29.5t90.5 27.5q56 11 56 50q0 21 -8.5 27t-53.5 10q-26 0 -55 -25t-57 -25q-14 0 -37 6q-34 10 -34 46q0 26 16 50q14 24 96 42.5t160 18.5h35q98 0 151 -15q88 -25 88 -90q0 -57 -35 -87
q-39 -24 -77 -48q46 -7 68 -17q69 -31 69 -99q0 -87 -88 -132t-257 -45q-56 0 -128 17q-98 23 -98 57q0 4 -2 17t-2 21q0 19 9 28q13 13 43 13q50 0 85 -9q81 -21 84 -21q50 0 65 7q24 11 24 50q0 36 -22.5 50t-59.5 14z" />
    <glyph glyph-name="egrave" unicode="&#xe8;" horiz-adv-x="720" 
d="M433 378q0 30 -6 37q-10 4 -15 7q-22 14 -22 40q0 14 7 22q26 29 149 29q60 0 92 -6q64 -12 64 -45q0 -23 -24 -34q-20 -8 -25 -22q-8 -23 -8 -100v-187q0 -18 4.5 -27t19 -16t21.5 -13t7 -18q0 -22 -22 -35q-38 -22 -141 -22q-58 0 -87 7q-51 12 -51 46q0 15 17 37
q21 27 26 70q2 9 2 18v13q0 28 -13 28q-8 0 -22 -9q-27 -17 -76 -44q-41 -23 -41 -35q0 -30 14.5 -46.5t14.5 -37.5q0 -34 -65 -43q-29 -4 -61 -4h-21h-32q-67 0 -93.5 10.5t-26.5 31.5q0 10 8.5 22t17.5 19q22 15 26.5 35.5t4.5 128.5v62q0 91 -3.5 104t-23.5 23t-20 27
q0 36 66 52q42 10 100 10q73 0 108 -10.5t35 -33.5q0 -16 -6.5 -25.5t-21.5 -17.5t-20 -21.5t-5 -46.5v-41t2.5 -35.5t17.5 -15.5q18 0 47 17q8 5 28 18q29 19 38 31q15 19 15 46z" />
    <glyph glyph-name="egrave" unicode="&#x438;" horiz-adv-x="720" 
d="M433 378q0 30 -6 37q-10 4 -15 7q-22 14 -22 40q0 14 7 22q26 29 149 29q60 0 92 -6q64 -12 64 -45q0 -23 -24 -34q-20 -8 -25 -22q-8 -23 -8 -100v-187q0 -18 4.5 -27t19 -16t21.5 -13t7 -18q0 -22 -22 -35q-38 -22 -141 -22q-58 0 -87 7q-51 12 -51 46q0 15 17 37
q21 27 26 70q2 9 2 18v13q0 28 -13 28q-8 0 -22 -9q-27 -17 -76 -44q-41 -23 -41 -35q0 -30 14.5 -46.5t14.5 -37.5q0 -34 -65 -43q-29 -4 -61 -4h-21h-32q-67 0 -93.5 10.5t-26.5 31.5q0 10 8.5 22t17.5 19q22 15 26.5 35.5t4.5 128.5v62q0 91 -3.5 104t-23.5 23t-20 27
q0 36 66 52q42 10 100 10q73 0 108 -10.5t35 -33.5q0 -16 -6.5 -25.5t-21.5 -17.5t-20 -21.5t-5 -46.5v-41t2.5 -35.5t17.5 -15.5q18 0 47 17q8 5 28 18q29 19 38 31q15 19 15 46z" />
    <glyph glyph-name="eacute" unicode="&#xe9;" horiz-adv-x="720" 
d="M433 378q0 30 -6 37q-10 4 -15 7q-22 14 -22 40q0 14 7 22q26 29 149 29q60 0 92 -6q64 -12 64 -45q0 -23 -24 -34q-20 -8 -25 -22q-8 -23 -8 -100v-187q0 -18 4.5 -27t19 -16t21.5 -13t7 -18q0 -22 -22 -35q-38 -22 -141 -22q-58 0 -87 7q-51 12 -51 46q0 15 17 37
q21 27 26 70q2 9 2 18v13q0 28 -13 28q-8 0 -22 -9q-27 -17 -76 -44q-41 -23 -41 -35q0 -30 14.5 -46.5t14.5 -37.5q0 -34 -65 -43q-29 -4 -61 -4h-21h-32q-67 0 -93.5 10.5t-26.5 31.5q0 10 8.5 22t17.5 19q22 15 26.5 35.5t4.5 128.5v62q0 91 -3.5 104t-23.5 23t-20 27
q0 36 66 52q42 10 100 10q73 0 108 -10.5t35 -33.5q0 -16 -6.5 -25.5t-21.5 -17.5t-20 -21.5t-5 -46.5v-41t2.5 -35.5t17.5 -15.5q18 0 47 17q8 5 28 18q29 19 38 31q15 19 15 46zM530 722q10 0 20 -10q5 -5 4 -10q-12 -55 -69 -89q-47 -28 -113 -28q-63 0 -110 27
q-64 37 -64 78q0 7 6 20.5t12 13.5q38 -18 78 -31t80 -13q41 0 81 13q37 14 75 29z" />
    <glyph glyph-name="eacute" unicode="&#x439;" horiz-adv-x="720" 
d="M433 378q0 30 -6 37q-10 4 -15 7q-22 14 -22 40q0 14 7 22q26 29 149 29q60 0 92 -6q64 -12 64 -45q0 -23 -24 -34q-20 -8 -25 -22q-8 -23 -8 -100v-187q0 -18 4.5 -27t19 -16t21.5 -13t7 -18q0 -22 -22 -35q-38 -22 -141 -22q-58 0 -87 7q-51 12 -51 46q0 15 17 37
q21 27 26 70q2 9 2 18v13q0 28 -13 28q-8 0 -22 -9q-27 -17 -76 -44q-41 -23 -41 -35q0 -30 14.5 -46.5t14.5 -37.5q0 -34 -65 -43q-29 -4 -61 -4h-21h-32q-67 0 -93.5 10.5t-26.5 31.5q0 10 8.5 22t17.5 19q22 15 26.5 35.5t4.5 128.5v62q0 91 -3.5 104t-23.5 23t-20 27
q0 36 66 52q42 10 100 10q73 0 108 -10.5t35 -33.5q0 -16 -6.5 -25.5t-21.5 -17.5t-20 -21.5t-5 -46.5v-41t2.5 -35.5t17.5 -15.5q18 0 47 17q8 5 28 18q29 19 38 31q15 19 15 46zM530 722q10 0 20 -10q5 -5 4 -10q-12 -55 -69 -89q-47 -28 -113 -28q-63 0 -110 27
q-64 37 -64 78q0 7 6 20.5t12 13.5q38 -18 78 -31t80 -13q41 0 81 13q37 14 75 29z" />
    <glyph glyph-name="ecircumflex" unicode="&#xea;" horiz-adv-x="771" 
d="M312 380q0 -22 3.5 -34t18.5 -12q12 0 46 33t34 44q0 7 -7.5 22t-7.5 25q0 26 38.5 40.5t108.5 14.5h23q56 0 87 -8q50 -13 50 -47t-31 -48q-22 -10 -55 -10q-20 0 -58.5 -29t-38.5 -52q0 -31 61 -95q67 -63 77 -73q48 -39 63 -52q25 -21 25 -46q0 -27 -38 -40
q-20 -7 -40 -13q-30 -11 -61 -11q-23 0 -54 6t-50.5 13.5t-46 25.5t-48.5 54q-30 50 -43 64q-14 18 -20 26q-11 14 -18 14t-10.5 -15t-3.5 -25q0 -52 26 -74q14 -12 14 -30q0 -29 -20 -40q-34 -19 -138 -19h-43q-80 0 -103.5 14t-23.5 44q0 19 31.5 39t31.5 67
q0 48 1.5 103.5t1.5 60.5q0 40 -35 71.5t-30 52.5q10 44 66 60q35 10 101 10h29q38 0 74 -10q55 -15 55 -44q0 -27 -21 -44t-21 -33z" />
    <glyph glyph-name="ecircumflex" unicode="&#x43a;" horiz-adv-x="771" 
d="M312 380q0 -22 3.5 -34t18.5 -12q12 0 46 33t34 44q0 7 -7.5 22t-7.5 25q0 26 38.5 40.5t108.5 14.5h23q56 0 87 -8q50 -13 50 -47t-31 -48q-22 -10 -55 -10q-20 0 -58.5 -29t-38.5 -52q0 -31 61 -95q67 -63 77 -73q48 -39 63 -52q25 -21 25 -46q0 -27 -38 -40
q-20 -7 -40 -13q-30 -11 -61 -11q-23 0 -54 6t-50.5 13.5t-46 25.5t-48.5 54q-30 50 -43 64q-14 18 -20 26q-11 14 -18 14t-10.5 -15t-3.5 -25q0 -52 26 -74q14 -12 14 -30q0 -29 -20 -40q-34 -19 -138 -19h-43q-80 0 -103.5 14t-23.5 44q0 19 31.5 39t31.5 67
q0 48 1.5 103.5t1.5 60.5q0 40 -35 71.5t-30 52.5q10 44 66 60q35 10 101 10h29q38 0 74 -10q55 -15 55 -44q0 -27 -21 -44t-21 -33z" />
    <glyph glyph-name="edieresis" unicode="&#xeb;" horiz-adv-x="752" 
d="M204 233q1 7 12.5 70.5t19 87t26 49.5t42.5 43t60 28.5t70 11.5h27q23 0 44 -0.5t70 -5t95 -8.5q62 -11 58 -43q-3 -16 -19 -29q-2 -2 -8 -5q-22 -15 -25 -23q-9 -22 -9 -99v-187q0 -18 4.5 -27t20.5 -16t23 -14t7 -20q0 -21 -28 -35q-44 -23 -145 -23q-59 0 -93 7
q-57 12 -57 40q0 18 18 29q22 14 28 37q2 10 4.5 99t2.5 138q0 61 -50 55q-25 -3 -35 -19q-6 -11 -13 -42q-3 -16 -17 -103.5t-14 -100.5q0 -34 -8.5 -62t-28.5 -43q-34 -26 -59.5 -37.5t-53.5 -11.5h-24.5t-26.5 -1q-42 0 -62 7t-29 20q-15 22 -15 53q0 23 10.5 40t34.5 23
q8 2 20 2q23 0 39.5 -20.5t26.5 -20.5q12 0 29 13t21 71t7 72z" />
    <glyph glyph-name="edieresis" unicode="&#x43b;" horiz-adv-x="752" 
d="M204 233q1 7 12.5 70.5t19 87t26 49.5t42.5 43t60 28.5t70 11.5h27q23 0 44 -0.5t70 -5t95 -8.5q62 -11 58 -43q-3 -16 -19 -29q-2 -2 -8 -5q-22 -15 -25 -23q-9 -22 -9 -99v-187q0 -18 4.5 -27t20.5 -16t23 -14t7 -20q0 -21 -28 -35q-44 -23 -145 -23q-59 0 -93 7
q-57 12 -57 40q0 18 18 29q22 14 28 37q2 10 4.5 99t2.5 138q0 61 -50 55q-25 -3 -35 -19q-6 -11 -13 -42q-3 -16 -17 -103.5t-14 -100.5q0 -34 -8.5 -62t-28.5 -43q-34 -26 -59.5 -37.5t-53.5 -11.5h-24.5t-26.5 -1q-42 0 -62 7t-29 20q-15 22 -15 53q0 23 10.5 40t34.5 23
q8 2 20 2q23 0 39.5 -20.5t26.5 -20.5q12 0 29 13t21 71t7 72z" />
    <glyph glyph-name="igrave" unicode="&#xec;" horiz-adv-x="790" 
d="M236 202q-6 9 -11 19q-8 12 -18 12t-14.5 -19.5t-4.5 -48.5v-28t1 -23q0 -43 27 -54t27 -25q0 -27 -49 -37q-28 -6 -75 -6q-56 0 -79.5 8.5t-23.5 27.5q0 17 15 24q35 16 39 46q6 62 10 113.5t4 118.5q0 60 -13 82q-2 3 -25 17.5t-23 32.5q0 28 38.5 39.5t99.5 11.5
q67 0 90 -12q9 -5 34 -39q35 -62 56 -97q41 -67 64 -71q16 -3 44 45q23 42 47 84q34 52 39 58q29 32 118 32q42 0 75 -9q47 -13 47 -39q0 -16 -19.5 -36.5t-23.5 -31.5t-8 -59t-4 -73l8 -153q0 -29 30 -52q15 -12 15 -25q0 -32 -66 -40q-25 -3 -61 -3h-22h-17q-55 0 -84 6
q-50 10 -50 37q0 13 20.5 28t22.5 22t5.5 38t3.5 47q0 27 -3.5 40.5t-14.5 13.5q-19 0 -48 -51q-13 -25 -26 -49q-13 -44 -22 -67q-17 -42 -54 -42q-27 0 -76 93q-16 31 -45 94z" />
    <glyph glyph-name="igrave" unicode="&#x43c;" horiz-adv-x="790" 
d="M236 202q-6 9 -11 19q-8 12 -18 12t-14.5 -19.5t-4.5 -48.5v-28t1 -23q0 -43 27 -54t27 -25q0 -27 -49 -37q-28 -6 -75 -6q-56 0 -79.5 8.5t-23.5 27.5q0 17 15 24q35 16 39 46q6 62 10 113.5t4 118.5q0 60 -13 82q-2 3 -25 17.5t-23 32.5q0 28 38.5 39.5t99.5 11.5
q67 0 90 -12q9 -5 34 -39q35 -62 56 -97q41 -67 64 -71q16 -3 44 45q23 42 47 84q34 52 39 58q29 32 118 32q42 0 75 -9q47 -13 47 -39q0 -16 -19.5 -36.5t-23.5 -31.5t-8 -59t-4 -73l8 -153q0 -29 30 -52q15 -12 15 -25q0 -32 -66 -40q-25 -3 -61 -3h-22h-17q-55 0 -84 6
q-50 10 -50 37q0 13 20.5 28t22.5 22t5.5 38t3.5 47q0 27 -3.5 40.5t-14.5 13.5q-19 0 -48 -51q-13 -25 -26 -49q-13 -44 -22 -67q-17 -42 -54 -42q-27 0 -76 93q-16 31 -45 94z" />
    <glyph glyph-name="iacute" unicode="&#xed;" horiz-adv-x="720" 
d="M645 306v-187q0 -18 4.5 -27t19 -16t21.5 -13t7 -18q0 -22 -22 -35q-38 -22 -141 -22q-58 0 -87 7q-51 12 -51 46q0 11 12 21q28 23 28 119q0 27 -9 32.5t-41 5.5q-71 0 -86 -6t-15 -37v-25q0 -58 22 -85q11 -13 11 -31q0 -34 -65 -43q-29 -4 -61 -4h-21h-32
q-67 0 -93.5 10.5t-26.5 31.5q0 10 8.5 22t17.5 19q22 15 26.5 35.5t4.5 128.5v62q0 91 -3.5 104t-23.5 23t-20 27q0 36 66 52q42 10 100 10q73 0 108 -10.5t35 -33.5q0 -16 -6.5 -25.5t-22 -18t-20 -22t-4.5 -60.5q0 -23 9 -29.5t30 -6.5h20h41q37 0 44 5.5t7 24.5
q0 52 -5 67q-8 10 -11 14q-13 15 -19 21q-11 12 -11 23q0 14 7 22q26 29 149 29q60 0 92 -6q64 -12 64 -45q0 -23 -24 -34q-20 -8 -25 -22q-8 -23 -8 -100z" />
    <glyph glyph-name="iacute" unicode="&#x43d;" horiz-adv-x="720" 
d="M645 306v-187q0 -18 4.5 -27t19 -16t21.5 -13t7 -18q0 -22 -22 -35q-38 -22 -141 -22q-58 0 -87 7q-51 12 -51 46q0 11 12 21q28 23 28 119q0 27 -9 32.5t-41 5.5q-71 0 -86 -6t-15 -37v-25q0 -58 22 -85q11 -13 11 -31q0 -34 -65 -43q-29 -4 -61 -4h-21h-32
q-67 0 -93.5 10.5t-26.5 31.5q0 10 8.5 22t17.5 19q22 15 26.5 35.5t4.5 128.5v62q0 91 -3.5 104t-23.5 23t-20 27q0 36 66 52q42 10 100 10q73 0 108 -10.5t35 -33.5q0 -16 -6.5 -25.5t-22 -18t-20 -22t-4.5 -60.5q0 -23 9 -29.5t30 -6.5h20h41q37 0 44 5.5t7 24.5
q0 52 -5 67q-8 10 -11 14q-13 15 -19 21q-11 12 -11 23q0 14 7 22q26 29 149 29q60 0 92 -6q64 -12 64 -45q0 -23 -24 -34q-20 -8 -25 -22q-8 -23 -8 -100z" />
    <glyph glyph-name="icircumflex" unicode="&#xee;" horiz-adv-x="633" 
d="M292 -14q-116 0 -187 60q-76 64 -76 179q0 130 93 210q88 76 218 76q123 0 198 -84q66 -74 66 -177q0 -116 -101 -193q-93 -71 -211 -71zM385 174q0 60 -18 126q-26 93 -70 93q-23 0 -36 -18t-13 -42q0 -70 19 -134q26 -87 72 -87q26 0 36 17t10 45z" />
    <glyph glyph-name="icircumflex" unicode="&#x43e;" horiz-adv-x="633" 
d="M292 -14q-116 0 -187 60q-76 64 -76 179q0 130 93 210q88 76 218 76q123 0 198 -84q66 -74 66 -177q0 -116 -101 -193q-93 -71 -211 -71zM385 174q0 60 -18 126q-26 93 -70 93q-23 0 -36 -18t-13 -42q0 -70 19 -134q26 -87 72 -87q26 0 36 17t10 45z" />
    <glyph glyph-name="idieresis" unicode="&#xef;" horiz-adv-x="720" 
d="M546 513q60 0 92 -6q64 -12 64 -45q0 -23 -24 -34q-20 -8 -25 -22q-8 -23 -8 -100v-187q0 -18 4.5 -27t19 -16t21.5 -13t7 -18q0 -22 -22 -35q-38 -22 -141 -22q-58 0 -87 7q-51 12 -51 46q0 12 12 20q27 18 27 83l3 219q0 26 -12 32t-46 6q-56 0 -72 -6.5t-21 -32.5
q-1 -46 -1.5 -105t-0.5 -65v-41q0 -58 22 -85q11 -13 11 -31q0 -34 -65 -43q-29 -4 -61 -4h-21h-32q-67 0 -93.5 10.5t-26.5 31.5q0 10 8.5 22t17.5 19q22 15 26.5 35.5t4.5 128.5v62q0 91 -3.5 104t-23.5 23t-20 27q0 36 66 52q42 10 100 10h351z" />
    <glyph glyph-name="idieresis" unicode="&#x43f;" horiz-adv-x="720" 
d="M546 513q60 0 92 -6q64 -12 64 -45q0 -23 -24 -34q-20 -8 -25 -22q-8 -23 -8 -100v-187q0 -18 4.5 -27t19 -16t21.5 -13t7 -18q0 -22 -22 -35q-38 -22 -141 -22q-58 0 -87 7q-51 12 -51 46q0 12 12 20q27 18 27 83l3 219q0 26 -12 32t-46 6q-56 0 -72 -6.5t-21 -32.5
q-1 -46 -1.5 -105t-0.5 -65v-41q0 -58 22 -85q11 -13 11 -31q0 -34 -65 -43q-29 -4 -61 -4h-21h-32q-67 0 -93.5 10.5t-26.5 31.5q0 10 8.5 22t17.5 19q22 15 26.5 35.5t4.5 128.5v62q0 91 -3.5 104t-23.5 23t-20 27q0 36 66 52q42 10 100 10h351z" />
    <glyph glyph-name="eth" unicode="&#xf0;" horiz-adv-x="699" 
d="M321 455q25 11 50 23q62 33 110 33q92 0 147 -80q49 -71 49 -168q0 -111 -55 -191q-63 -91 -166 -91q-24 0 -55.5 9.5t-62.5 20.5q-9 0 -12.5 -10.5t-3.5 -21.5q0 -41 26 -63t26 -43q0 -36 -68 -50q-39 -8 -97 -8q-96 0 -142.5 24.5t-46.5 65.5q0 25 20 41q26 21 34.5 37
t11.5 39.5t3 52.5q0 14 -0.5 28.5t-0.5 30.5v9v55q0 12 1 33t1 30q0 20 -1.5 28t-7.5 23q-26 16 -40.5 32.5t-14.5 45.5q0 46 95 83q84 33 151 33q36 0 49 -51zM435 236q0 64 -19.5 90.5t-53.5 26.5q-29 0 -37 -25q-11 -35 -11 -162q0 -50 51 -50q41 0 58 42q12 29 12 78z
" />
    <glyph glyph-name="eth" unicode="&#x440;" horiz-adv-x="699" 
d="M321 455q25 11 50 23q62 33 110 33q92 0 147 -80q49 -71 49 -168q0 -111 -55 -191q-63 -91 -166 -91q-24 0 -55.5 9.5t-62.5 20.5q-9 0 -12.5 -10.5t-3.5 -21.5q0 -41 26 -63t26 -43q0 -36 -68 -50q-39 -8 -97 -8q-96 0 -142.5 24.5t-46.5 65.5q0 25 20 41q26 21 34.5 37
t11.5 39.5t3 52.5q0 14 -0.5 28.5t-0.5 30.5v9v55q0 12 1 33t1 30q0 20 -1.5 28t-7.5 23q-26 16 -40.5 32.5t-14.5 45.5q0 46 95 83q84 33 151 33q36 0 49 -51zM435 236q0 64 -19.5 90.5t-53.5 26.5q-29 0 -37 -25q-11 -35 -11 -162q0 -50 51 -50q41 0 58 42q12 29 12 78z
" />
    <glyph glyph-name="ntilde" unicode="&#xf1;" horiz-adv-x="553" 
d="M20 250q0 109 83 185t207 76q105 0 169 -51q57 -45 57 -105q0 -42 -26 -69t-69 -27q-57 0 -79 62t-58 62q-31 0 -49.5 -26t-18.5 -59q0 -58 38.5 -103.5t95.5 -45.5q30 0 55.5 8.5t51.5 17.5q20 0 31.5 -18t11.5 -39q0 -48 -62 -88q-69 -44 -168 -44q-115 0 -192.5 74.5
t-77.5 189.5z" />
    <glyph glyph-name="ntilde" unicode="&#x441;" horiz-adv-x="553" 
d="M20 250q0 109 83 185t207 76q105 0 169 -51q57 -45 57 -105q0 -42 -26 -69t-69 -27q-57 0 -79 62t-58 62q-31 0 -49.5 -26t-18.5 -59q0 -58 38.5 -103.5t95.5 -45.5q30 0 55.5 8.5t51.5 17.5q20 0 31.5 -18t11.5 -39q0 -48 -62 -88q-69 -44 -168 -44q-115 0 -192.5 74.5
t-77.5 189.5z" />
    <glyph glyph-name="ograve" unicode="&#xf2;" horiz-adv-x="628" 
d="M206 505h217l63 5q11 3 32 3q29 0 56 -32q32 -38 32 -92q0 -31 -12 -51t-41 -20q-39 0 -66.5 45.5t-43.5 45.5q-15 0 -21.5 -12t-6.5 -35v-221q0 -51 50 -70q24 -9 24 -25q0 -22 -36 -37q-50 -21 -149 -21q-68 0 -110 7q-79 13 -79 49q0 21 29 31t35 21t9 35.5t3 41.5
l7 159q0 51 -6.5 64t-18.5 13q-14 0 -46 -42t-69 -42q-22 0 -33.5 17t-11.5 39q0 46 30 89t65 43h10.5t19.5 -3z" />
    <glyph glyph-name="ograve" unicode="&#x442;" horiz-adv-x="628" 
d="M206 505h217l63 5q11 3 32 3q29 0 56 -32q32 -38 32 -92q0 -31 -12 -51t-41 -20q-39 0 -66.5 45.5t-43.5 45.5q-15 0 -21.5 -12t-6.5 -35v-221q0 -51 50 -70q24 -9 24 -25q0 -22 -36 -37q-50 -21 -149 -21q-68 0 -110 7q-79 13 -79 49q0 21 29 31t35 21t9 35.5t3 41.5
l7 159q0 51 -6.5 64t-18.5 13q-14 0 -46 -42t-69 -42q-22 0 -33.5 17t-11.5 39q0 46 30 89t65 43h10.5t19.5 -3z" />
    <glyph glyph-name="oacute" unicode="&#xf3;" horiz-adv-x="651" 
d="M504 232q-12 -30 -22 -57q-30 -84 -37 -101q-32 -82 -59 -126q-37 -61 -85 -92q-55 -35 -132 -35q-61 0 -103 28q-49 33 -49 92q0 38 23.5 62.5t60.5 24.5q52 0 73 -50.5t35 -50.5q18 0 28.5 15.5t10.5 33.5q0 27 -8 64t-29 87q-29 70 -59 121q-21 35 -76 112
q-9 12 -29 27q-32 24 -32 52q0 31 27 45q48 24 187 24q64 0 88.5 -13.5t24.5 -42.5q0 -12 -4 -28q-9 -37 -9 -46q0 -27 24 -70t37 -43q20 0 38 42t18 66t-13.5 42.5t-13.5 33.5q0 34 49 49q33 10 76 10q36 0 58 -8q34 -13 34 -43q0 -33 -39 -63q-27 -21 -41 -44t-27 -54.5
t-25 -63.5z" />
    <glyph glyph-name="oacute" unicode="&#x443;" horiz-adv-x="651" 
d="M504 232q-12 -30 -22 -57q-30 -84 -37 -101q-32 -82 -59 -126q-37 -61 -85 -92q-55 -35 -132 -35q-61 0 -103 28q-49 33 -49 92q0 38 23.5 62.5t60.5 24.5q52 0 73 -50.5t35 -50.5q18 0 28.5 15.5t10.5 33.5q0 27 -8 64t-29 87q-29 70 -59 121q-21 35 -76 112
q-9 12 -29 27q-32 24 -32 52q0 31 27 45q48 24 187 24q64 0 88.5 -13.5t24.5 -42.5q0 -12 -4 -28q-9 -37 -9 -46q0 -27 24 -70t37 -43q20 0 38 42t18 66t-13.5 42.5t-13.5 33.5q0 34 49 49q33 10 76 10q36 0 58 -8q34 -13 34 -43q0 -33 -39 -63q-27 -21 -41 -44t-27 -54.5
t-25 -63.5z" />
    <glyph glyph-name="ocircumflex" unicode="&#xf4;" horiz-adv-x="995" 
d="M310 -95q0 24 32 42t32 32q0 15 -3 23.5t-13 8.5q-32 -12 -64.5 -21t-53.5 -9q-103 0 -165 90q-56 81 -56 192q0 98 48 168q55 80 148 80q48 0 110 -33q25 -12 50 -23q2 10 2 17q0 11 -1.5 21t-4.5 19q-26 16 -40.5 32.5t-14.5 45.5q0 46 95 83q84 33 151 33q12 0 27 -23
q19 -29 19 -71v-71q0 -27 0.5 -52t2.5 -34q25 11 50 23q62 33 110 33q92 0 147 -80q49 -71 49 -168q0 -111 -55 -191q-63 -91 -166 -91q-24 0 -55.5 9.5t-62.5 20.5q-9 0 -12.5 -10.5t-3.5 -21.5q0 -41 26 -63t26 -43q0 -36 -68 -50q-39 -8 -97 -8q-96 0 -142.5 24.5
t-46.5 65.5zM725 236q0 64 -19.5 90.5t-53.5 26.5q-29 0 -37 -25q-11 -35 -11 -162q0 -50 51 -50q41 0 58 42q12 29 12 78zM261 236q0 -65 19 -92.5t51 -27.5q51 0 51 50q0 130 -9 158.5t-39 28.5q-42 0 -60 -40q-13 -29 -13 -77z" />
    <glyph glyph-name="ocircumflex" unicode="&#x444;" horiz-adv-x="995" 
d="M310 -95q0 24 32 42t32 32q0 15 -3 23.5t-13 8.5q-32 -12 -64.5 -21t-53.5 -9q-103 0 -165 90q-56 81 -56 192q0 98 48 168q55 80 148 80q48 0 110 -33q25 -12 50 -23q2 10 2 17q0 11 -1.5 21t-4.5 19q-26 16 -40.5 32.5t-14.5 45.5q0 46 95 83q84 33 151 33q12 0 27 -23
q19 -29 19 -71v-71q0 -27 0.5 -52t2.5 -34q25 11 50 23q62 33 110 33q92 0 147 -80q49 -71 49 -168q0 -111 -55 -191q-63 -91 -166 -91q-24 0 -55.5 9.5t-62.5 20.5q-9 0 -12.5 -10.5t-3.5 -21.5q0 -41 26 -63t26 -43q0 -36 -68 -50q-39 -8 -97 -8q-96 0 -142.5 24.5
t-46.5 65.5zM725 236q0 64 -19.5 90.5t-53.5 26.5q-29 0 -37 -25q-11 -35 -11 -162q0 -50 51 -50q41 0 58 42q12 29 12 78zM261 236q0 -65 19 -92.5t51 -27.5q51 0 51 50q0 130 -9 158.5t-39 28.5q-42 0 -60 -40q-13 -29 -13 -77z" />
    <glyph glyph-name="otilde" unicode="&#xf5;" horiz-adv-x="632" 
d="M482 231q18 -29 41 -61q13 -19 27 -37q37 -33 51.5 -49.5t14.5 -35.5q0 -30 -17 -39q-37 -20 -168 -20h-31q-59 0 -88 8q-49 13 -49 49q0 19 20.5 30.5t20.5 25.5q0 15 -20.5 45.5t-33.5 30.5t-36.5 -38.5t-23.5 -53.5q0 -6 15 -28q8 -12 8 -25q0 -28 -42 -38
q-24 -6 -65 -6q-40 0 -59 5q-34 9 -34 35q0 25 22 46q29 23 59 46q27 45 41 66q27 42 40 66l9 13.5t3 8.5q0 6 -6.5 12.5t-8.5 9.5q-13 19 -26.5 38.5t-32.5 35.5q-12 10 -44 24q-47 20 -47 52t51 46.5t154 14.5q65 0 91 -4q67 -10 67 -46q0 -10 -6 -21q-14 -25 -14 -28
q0 -10 15.5 -31.5t24.5 -21.5t27 24t18 34q0 7 -10.5 22.5t-10.5 24.5q0 23 25.5 35t80.5 12q53 0 69 -13q11 -9 11 -33q0 -20 -26 -40q-37 -28 -46 -39.5t-28 -39.5q-22 -33 -27 -41t-12 -17q-13 -18 -13 -22q0 -3 7 -13t12 -19z" />
    <glyph glyph-name="otilde" unicode="&#x445;" horiz-adv-x="632" 
d="M482 231q18 -29 41 -61q13 -19 27 -37q37 -33 51.5 -49.5t14.5 -35.5q0 -30 -17 -39q-37 -20 -168 -20h-31q-59 0 -88 8q-49 13 -49 49q0 19 20.5 30.5t20.5 25.5q0 15 -20.5 45.5t-33.5 30.5t-36.5 -38.5t-23.5 -53.5q0 -6 15 -28q8 -12 8 -25q0 -28 -42 -38
q-24 -6 -65 -6q-40 0 -59 5q-34 9 -34 35q0 25 22 46q29 23 59 46q27 45 41 66q27 42 40 66l9 13.5t3 8.5q0 6 -6.5 12.5t-8.5 9.5q-13 19 -26.5 38.5t-32.5 35.5q-12 10 -44 24q-47 20 -47 52t51 46.5t154 14.5q65 0 91 -4q67 -10 67 -46q0 -10 -6 -21q-14 -25 -14 -28
q0 -10 15.5 -31.5t24.5 -21.5t27 24t18 34q0 7 -10.5 22.5t-10.5 24.5q0 23 25.5 35t80.5 12q53 0 69 -13q11 -9 11 -33q0 -20 -26 -40q-37 -28 -46 -39.5t-28 -39.5q-22 -33 -27 -41t-12 -17q-13 -18 -13 -22q0 -3 7 -13t12 -19z" />
    <glyph glyph-name="odieresis" unicode="&#xf6;" horiz-adv-x="723" 
d="M447 -12q-49 0 -120 1t-132 2q-81 0 -123.5 16.5t-42.5 45.5q0 17 18 26q23 12 26 30t3 160q0 111 -4 130t-27 34q-9 6 -17.5 18.5t-8.5 22.5q0 23 31 31.5t76 8.5q12 0 23.5 -0.5t21.5 -0.5h32q48 0 81.5 -8.5t33.5 -35.5q0 -19 -10 -31q-23 -28 -23 -85v-137.5t3.5 -82
t19 -24t72.5 -6.5q36 0 44 4q14 7 14 34l-3 219q0 60 -19.5 77.5t-19.5 25.5q0 28 29.5 36t87.5 8h45q63 0 101 -16t38 -32q0 -12 -5.5 -17.5t-21.5 -13t-20.5 -16.5t-4.5 -27v-187q0 -80 7 -100q4 -13 27 -23t23 -33q0 -74 -13 -140t-31 -60q-23 7 -41 36q-27 45 -53 89
q-15 15 -41 18t-76 3z" />
    <glyph glyph-name="odieresis" unicode="&#x446;" horiz-adv-x="723" 
d="M447 -12q-49 0 -120 1t-132 2q-81 0 -123.5 16.5t-42.5 45.5q0 17 18 26q23 12 26 30t3 160q0 111 -4 130t-27 34q-9 6 -17.5 18.5t-8.5 22.5q0 23 31 31.5t76 8.5q12 0 23.5 -0.5t21.5 -0.5h32q48 0 81.5 -8.5t33.5 -35.5q0 -19 -10 -31q-23 -28 -23 -85v-137.5t3.5 -82
t19 -24t72.5 -6.5q36 0 44 4q14 7 14 34l-3 219q0 60 -19.5 77.5t-19.5 25.5q0 28 29.5 36t87.5 8h45q63 0 101 -16t38 -32q0 -12 -5.5 -17.5t-21.5 -13t-20.5 -16.5t-4.5 -27v-187q0 -80 7 -100q4 -13 27 -23t23 -33q0 -74 -13 -140t-31 -60q-23 7 -41 36q-27 45 -53 89
q-15 15 -41 18t-76 3z" />
    <glyph glyph-name="divide" unicode="&#xf7;" horiz-adv-x="724" 
d="M306 470v-146q0 -44 8 -64q14 -34 53 -34q58 0 58 74v26v20q-3 11 -4 18q-4 23 -21 38q-36 32 -36 49q0 29 65 46q75 20 174 20q26 0 38.5 -18t12.5 -47l-2 -95v-201q0 -31 27.5 -44t27.5 -36q0 -44 -95 -69q-69 -18 -137 -18q-43 0 -45 86t-17 86q-35 -20 -72.5 -38
t-78.5 -22q-11 -1 -23.5 -1.5t-17.5 -0.5q-71 0 -102 30q-35 34 -35 160q0 92 -46 115q-23 11 -23 37q0 37 84 55q60 13 130 13q15 -1 19 -1q58 0 58 -38z" />
    <glyph glyph-name="divide" unicode="&#x447;" horiz-adv-x="724" 
d="M306 470v-146q0 -44 8 -64q14 -34 53 -34q58 0 58 74v26v20q-3 11 -4 18q-4 23 -21 38q-36 32 -36 49q0 29 65 46q75 20 174 20q26 0 38.5 -18t12.5 -47l-2 -95v-201q0 -31 27.5 -44t27.5 -36q0 -44 -95 -69q-69 -18 -137 -18q-43 0 -45 86t-17 86q-35 -20 -72.5 -38
t-78.5 -22q-11 -1 -23.5 -1.5t-17.5 -0.5q-71 0 -102 30q-35 34 -35 160q0 92 -46 115q-23 11 -23 37q0 37 84 55q60 13 130 13q15 -1 19 -1q58 0 58 -38z" />
    <glyph glyph-name="oslash" unicode="&#xf8;" horiz-adv-x="1100" 
d="M911 -4q-67 0 -302.5 -1.5t-413.5 -3.5q-81 0 -123.5 16.5t-42.5 45.5q0 17 18 26q23 12 26 30t3 160q0 111 -4 130t-27 34q-9 6 -17.5 18.5t-8.5 22.5q0 30 60 38q30 4 60 4h32q64 0 88 -4q59 -10 59 -43q0 -19 -10 -31q-23 -28 -23 -85v-137.5t3.5 -82t19 -24
t72.5 -6.5q15 -1 21 -1q27 0 37 25q14 35 14 142q0 111 -4 130t-27 34q-9 6 -17.5 18.5t-8.5 22.5q0 30 60 38q30 4 60 4h32q64 0 88 -4q59 -10 59 -43q0 -19 -10 -31q-23 -28 -23 -85v-137.5t3.5 -82t19 -24t72.5 -6.5q36 0 44 4q14 7 14 34l-3 219q0 60 -19.5 77.5
t-19.5 25.5q0 33 51 45q33 8 87 8q102 0 140 -22q23 -13 23 -35q0 -12 -5.5 -17.5t-21.5 -13t-20.5 -16.5t-4.5 -27v-187q0 -80 7 -100q4 -13 27 -23t19 -33q-5 -26 -50 -38q-34 -9 -84 -9q-21 0 -29 1z" />
    <glyph glyph-name="oslash" unicode="&#x448;" horiz-adv-x="1100" 
d="M911 -4q-67 0 -302.5 -1.5t-413.5 -3.5q-81 0 -123.5 16.5t-42.5 45.5q0 17 18 26q23 12 26 30t3 160q0 111 -4 130t-27 34q-9 6 -17.5 18.5t-8.5 22.5q0 30 60 38q30 4 60 4h32q64 0 88 -4q59 -10 59 -43q0 -19 -10 -31q-23 -28 -23 -85v-137.5t3.5 -82t19 -24
t72.5 -6.5q15 -1 21 -1q27 0 37 25q14 35 14 142q0 111 -4 130t-27 34q-9 6 -17.5 18.5t-8.5 22.5q0 30 60 38q30 4 60 4h32q64 0 88 -4q59 -10 59 -43q0 -19 -10 -31q-23 -28 -23 -85v-137.5t3.5 -82t19 -24t72.5 -6.5q36 0 44 4q14 7 14 34l-3 219q0 60 -19.5 77.5
t-19.5 25.5q0 33 51 45q33 8 87 8q102 0 140 -22q23 -13 23 -35q0 -12 -5.5 -17.5t-21.5 -13t-20.5 -16.5t-4.5 -27v-187q0 -80 7 -100q4 -13 27 -23t19 -33q-5 -26 -50 -38q-34 -9 -84 -9q-21 0 -29 1z" />
    <glyph glyph-name="ugrave" unicode="&#xf9;" horiz-adv-x="1104" 
d="M195 -9q-81 0 -123.5 16.5t-42.5 45.5q0 17 18 26q23 12 26 30t3 160q0 111 -4 130t-27 34q-9 6 -17.5 18.5t-8.5 22.5q0 30 60 38q30 4 60 4h32q64 0 88 -4q59 -10 59 -43q0 -19 -10 -31q-23 -28 -23 -85v-137.5t3.5 -82t19 -24t72.5 -6.5q15 -1 21 -1q27 0 37 25
q14 35 14 142q0 111 -4 130t-27 34q-9 6 -17.5 18.5t-8.5 22.5q0 30 60 38q30 4 60 4h32q64 0 88 -4q59 -10 59 -43q0 -19 -10 -31q-23 -28 -23 -85v-137.5t3.5 -82t19 -24t72.5 -6.5q36 0 44 4q14 7 14 34l-3 219q0 60 -19.5 77.5t-19.5 25.5q0 33 51 45q33 8 87 8
q102 0 140 -22q23 -13 23 -35q0 -12 -5.5 -17.5t-21.5 -13t-20.5 -16.5t-4.5 -27v-187q0 -80 7 -100q4 -13 27 -23t23 -33q0 -74 -13 -140t-31 -60q-23 7 -41 36q-27 45 -53 89q-14 14 -67 18.5t-74 6.5h-303t-301 -1z" />
    <glyph glyph-name="ugrave" unicode="&#x449;" horiz-adv-x="1104" 
d="M195 -9q-81 0 -123.5 16.5t-42.5 45.5q0 17 18 26q23 12 26 30t3 160q0 111 -4 130t-27 34q-9 6 -17.5 18.5t-8.5 22.5q0 30 60 38q30 4 60 4h32q64 0 88 -4q59 -10 59 -43q0 -19 -10 -31q-23 -28 -23 -85v-137.5t3.5 -82t19 -24t72.5 -6.5q15 -1 21 -1q27 0 37 25
q14 35 14 142q0 111 -4 130t-27 34q-9 6 -17.5 18.5t-8.5 22.5q0 30 60 38q30 4 60 4h32q64 0 88 -4q59 -10 59 -43q0 -19 -10 -31q-23 -28 -23 -85v-137.5t3.5 -82t19 -24t72.5 -6.5q36 0 44 4q14 7 14 34l-3 219q0 60 -19.5 77.5t-19.5 25.5q0 33 51 45q33 8 87 8
q102 0 140 -22q23 -13 23 -35q0 -12 -5.5 -17.5t-21.5 -13t-20.5 -16.5t-4.5 -27v-187q0 -80 7 -100q4 -13 27 -23t23 -33q0 -74 -13 -140t-31 -60q-23 7 -41 36q-27 45 -53 89q-14 14 -67 18.5t-74 6.5h-303t-301 -1z" />
    <glyph glyph-name="uacute" unicode="&#xfa;" horiz-adv-x="940" 
d="M245 397q-49 0 -82 -22t-64 -43q-12 -6 -22 -6q-27 0 -42.5 41t-15.5 99q0 27 33 37q20 6 65 6h26h23h28h29h27h25h22h18h15h13h30t30 1l131 1q33 0 64.5 -13.5t31.5 -31.5q0 -17 -10.5 -29.5t-29.5 -23.5t-25.5 -25.5t-6.5 -33.5v-20v-16q0 -18 4 -28t17 -10l28 2
q87 9 127 9q26 0 49 -5.5t53.5 -22t50.5 -43.5q24 -33 24 -75q0 -61 -53 -101q-64 -48 -183 -48q-30 0 -81 4t-77 4q-30 0 -105 -6t-105 -6q-20 0 -34.5 9t-14.5 26q0 5 1.5 11.5t29 26t27.5 88.5q4 27 6 44q6 53 6 96q0 40 -6 72q0 22 -6 27t-36 5h-35zM558 194v-36
q0 -56 11 -73q8 -12 31 -12q34 0 50 18t16 47q0 33 -12 54q-17 29 -55 29q-41 0 -41 -27z" />
    <glyph glyph-name="uacute" unicode="&#x44a;" horiz-adv-x="940" 
d="M245 397q-49 0 -82 -22t-64 -43q-12 -6 -22 -6q-27 0 -42.5 41t-15.5 99q0 27 33 37q20 6 65 6h26h23h28h29h27h25h22h18h15h13h30t30 1l131 1q33 0 64.5 -13.5t31.5 -31.5q0 -17 -10.5 -29.5t-29.5 -23.5t-25.5 -25.5t-6.5 -33.5v-20v-16q0 -18 4 -28t17 -10l28 2
q87 9 127 9q26 0 49 -5.5t53.5 -22t50.5 -43.5q24 -33 24 -75q0 -61 -53 -101q-64 -48 -183 -48q-30 0 -81 4t-77 4q-30 0 -105 -6t-105 -6q-20 0 -34.5 9t-14.5 26q0 5 1.5 11.5t29 26t27.5 88.5q4 27 6 44q6 53 6 96q0 40 -6 72q0 22 -6 27t-36 5h-35zM558 194v-36
q0 -56 11 -73q8 -12 31 -12q34 0 50 18t16 47q0 33 -12 54q-17 29 -55 29q-41 0 -41 -27z" />
    <glyph glyph-name="ucircumflex" unicode="&#xfb;" horiz-adv-x="1029" 
d="M968 464q-5 -33 -8 -67t-3 -66q0 -30 3 -67t7 -70t24 -72.5t20 -67.5q0 -44 -61 -58q-30 -7 -95 -7q-112 0 -147 19q-19 10 -19 37q0 15 9 29q15 23 31 47q7 20 12 55.5t5 73.5q0 30 -4.5 55.5t-27.5 50.5t-23 63q0 35 75 59q92 30 171 30q17 0 24.5 -9.5t7.5 -23.5
q0 -8 -1 -11zM335 280l28 2q87 9 127 9q26 0 49 -5.5t53.5 -22t50.5 -43.5q24 -33 24 -75q0 -61 -53 -101q-64 -48 -183 -48q-30 0 -81 4t-77 4q-30 0 -105 -6t-105 -6q-20 0 -34.5 9t-14.5 26q0 5 1.5 11.5t29 26t27.5 88.5q4 27 6 44q6 53 6 96q0 40 -5 66t-33.5 55
t-28.5 55q0 19 17.5 30t40.5 11l215 1q33 0 64.5 -13.5t31.5 -31.5q0 -17 -10.5 -29.5t-29.5 -23.5t-25.5 -25.5t-6.5 -33.5v-20v-16q0 -18 4 -28t17 -10zM314 194v-36q0 -56 11 -73q8 -12 31 -12q34 0 50 18t16 47q0 33 -12 54q-17 29 -55 29q-41 0 -41 -27z" />
    <glyph glyph-name="ucircumflex" unicode="&#x44b;" horiz-adv-x="1029" 
d="M968 464q-5 -33 -8 -67t-3 -66q0 -30 3 -67t7 -70t24 -72.5t20 -67.5q0 -44 -61 -58q-30 -7 -95 -7q-112 0 -147 19q-19 10 -19 37q0 15 9 29q15 23 31 47q7 20 12 55.5t5 73.5q0 30 -4.5 55.5t-27.5 50.5t-23 63q0 35 75 59q92 30 171 30q17 0 24.5 -9.5t7.5 -23.5
q0 -8 -1 -11zM335 280l28 2q87 9 127 9q26 0 49 -5.5t53.5 -22t50.5 -43.5q24 -33 24 -75q0 -61 -53 -101q-64 -48 -183 -48q-30 0 -81 4t-77 4q-30 0 -105 -6t-105 -6q-20 0 -34.5 9t-14.5 26q0 5 1.5 11.5t29 26t27.5 88.5q4 27 6 44q6 53 6 96q0 40 -5 66t-33.5 55
t-28.5 55q0 19 17.5 30t40.5 11l215 1q33 0 64.5 -13.5t31.5 -31.5q0 -17 -10.5 -29.5t-29.5 -23.5t-25.5 -25.5t-6.5 -33.5v-20v-16q0 -18 4 -28t17 -10zM314 194v-36q0 -56 11 -73q8 -12 31 -12q34 0 50 18t16 47q0 33 -12 54q-17 29 -55 29q-41 0 -41 -27z" />
    <glyph glyph-name="udieresis" unicode="&#xfc;" horiz-adv-x="695" 
d="M335 280l28 2q87 9 127 9q26 0 49 -5.5t53.5 -22t50.5 -43.5q24 -33 24 -75q0 -61 -53 -101q-64 -48 -183 -48q-30 0 -81 4t-77 4q-30 0 -105 -6t-105 -6q-20 0 -34.5 9t-14.5 26q0 5 1.5 11.5t29 26t27.5 88.5q4 27 6 44q6 53 6 96q0 40 -5 66t-33.5 55t-28.5 55
q0 19 17.5 30t40.5 11l215 1q33 0 64.5 -13.5t31.5 -31.5q0 -17 -10.5 -29.5t-29.5 -23.5t-25.5 -25.5t-6.5 -33.5v-20v-16q0 -18 4 -28t17 -10zM314 194v-36q0 -56 11 -73q8 -12 31 -12q34 0 50 18t16 47q0 33 -12 54q-17 29 -55 29q-41 0 -41 -27z" />
    <glyph glyph-name="udieresis" unicode="&#x44c;" horiz-adv-x="695" 
d="M335 280l28 2q87 9 127 9q26 0 49 -5.5t53.5 -22t50.5 -43.5q24 -33 24 -75q0 -61 -53 -101q-64 -48 -183 -48q-30 0 -81 4t-77 4q-30 0 -105 -6t-105 -6q-20 0 -34.5 9t-14.5 26q0 5 1.5 11.5t29 26t27.5 88.5q4 27 6 44q6 53 6 96q0 40 -5 66t-33.5 55t-28.5 55
q0 19 17.5 30t40.5 11l215 1q33 0 64.5 -13.5t31.5 -31.5q0 -17 -10.5 -29.5t-29.5 -23.5t-25.5 -25.5t-6.5 -33.5v-20v-16q0 -18 4 -28t17 -10zM314 194v-36q0 -56 11 -73q8 -12 31 -12q34 0 50 18t16 47q0 33 -12 54q-17 29 -55 29q-41 0 -41 -27z" />
    <glyph glyph-name="yacute" unicode="&#xfd;" horiz-adv-x="595" 
d="M58 164q30 15 65 15q27 0 45 -10q5 -3 39 -38q22 -23 61 -23q14 0 34 3t36 27t16 48q0 13 -4.5 19.5t-14.5 6.5q-7 0 -24 -3q-39 -7 -57 -7q-36 0 -59.5 19t-23.5 38q0 8 4 18t7.5 19t14 14.5t26.5 5.5q14 0 34 -4q51 -10 59 -10q13 0 21.5 3.5t13 12t4.5 17.5
q0 23 -27.5 42.5t-64.5 19.5q-18 0 -53.5 -27t-47 -28.5t-25.5 -1.5q-75 0 -82 70q-7 58 81 83q63 18 162 18q123 0 198 -84q66 -74 66 -177q0 -116 -101 -193q-93 -71 -211 -71q-75 0 -136 23.5t-84 65.5q-7 11 -7 29q0 41 35 60z" />
    <glyph glyph-name="yacute" unicode="&#x44d;" horiz-adv-x="595" 
d="M58 164q30 15 65 15q27 0 45 -10q5 -3 39 -38q22 -23 61 -23q14 0 34 3t36 27t16 48q0 13 -4.5 19.5t-14.5 6.5q-7 0 -24 -3q-39 -7 -57 -7q-36 0 -59.5 19t-23.5 38q0 8 4 18t7.5 19t14 14.5t26.5 5.5q14 0 34 -4q51 -10 59 -10q13 0 21.5 3.5t13 12t4.5 17.5
q0 23 -27.5 42.5t-64.5 19.5q-18 0 -53.5 -27t-47 -28.5t-25.5 -1.5q-75 0 -82 70q-7 58 81 83q63 18 162 18q123 0 198 -84q66 -74 66 -177q0 -116 -101 -193q-93 -71 -211 -71q-75 0 -136 23.5t-84 65.5q-7 11 -7 29q0 41 35 60z" />
    <glyph glyph-name="thorn" unicode="&#xfe;" horiz-adv-x="990" 
d="M390 299q13 103 103 160q82 52 201 52q123 0 198 -84q66 -74 66 -177q0 -116 -101 -193q-93 -71 -211 -71q-107 0 -185 69.5t-78 151.5q0 4 -21 10t-37 6q-24 0 -24 -12q0 -28 7 -55.5t25 -52.5q15 -20 15 -49q0 -44 -61 -58q-30 -7 -95 -7q-113 0 -151 22q-22 13 -22 41
q0 16 19 34q23 22 29 38.5t11 52t5 73.5q0 30 -4.5 55t-31 47t-26.5 60q0 35 77 61q102 35 176 35q17 0 24.5 -9.5t7.5 -23.5q0 -8 -1 -11q-4 -23 -6 -57.5t-2 -57.5v-39q0 -8 22 -13t45 -5q25 0 26 7zM739 174q0 60 -18 126q-26 93 -70 93q-23 0 -36 -18t-13 -42
q0 -70 19 -134q26 -87 72 -87q26 0 36 17t10 45z" />
    <glyph glyph-name="thorn" unicode="&#x44e;" horiz-adv-x="990" 
d="M390 299q13 103 103 160q82 52 201 52q123 0 198 -84q66 -74 66 -177q0 -116 -101 -193q-93 -71 -211 -71q-107 0 -185 69.5t-78 151.5q0 4 -21 10t-37 6q-24 0 -24 -12q0 -28 7 -55.5t25 -52.5q15 -20 15 -49q0 -44 -61 -58q-30 -7 -95 -7q-113 0 -151 22q-22 13 -22 41
q0 16 19 34q23 22 29 38.5t11 52t5 73.5q0 30 -4.5 55t-31 47t-26.5 60q0 35 77 61q102 35 176 35q17 0 24.5 -9.5t7.5 -23.5q0 -8 -1 -11q-4 -23 -6 -57.5t-2 -57.5v-39q0 -8 22 -13t45 -5q25 0 26 7zM739 174q0 60 -18 126q-26 93 -70 93q-23 0 -36 -18t-13 -42
q0 -70 19 -134q26 -87 72 -87q26 0 36 17t10 45z" />
    <glyph glyph-name="ydieresis" unicode="&#xff;" horiz-adv-x="716" 
d="M635 144q0 -25 28.5 -45.5t28.5 -54.5q0 -26 -46.5 -40.5t-129.5 -14.5q-101 0 -127.5 8t-26.5 40q0 22 20 42q25 25 29.5 37.5t4.5 29.5v21q0 30 -4.5 36t-19.5 6q-31 0 -48 -20q-11 -13 -21 -44q-24 -88 -47 -115q-37 -44 -127 -44q-66 0 -100.5 17.5t-34.5 41.5
q0 15 25.5 24.5t30.5 45.5q10 67 17 83q13 28 53 41q5 1 13 4t8 13q0 7 -13 14q-47 20 -64 34q-30 26 -30 73q0 83 91 112q56 18 162 18q37 0 92.5 -2.5t62.5 -2.5q16 0 50 4q77 9 89 9q31 0 62 -14.5t31 -41.5q0 -30 -18 -52q-41 -50 -41 -73v-190zM420 382q0 20 -7 31.5
t-28 11.5q-78 0 -78 -63q0 -38 24.5 -57.5t67.5 -19.5q21 0 21 18q-1 10 -1 16z" />
    <glyph glyph-name="ydieresis" unicode="&#x44f;" horiz-adv-x="716" 
d="M635 144q0 -25 28.5 -45.5t28.5 -54.5q0 -26 -46.5 -40.5t-129.5 -14.5q-101 0 -127.5 8t-26.5 40q0 22 20 42q25 25 29.5 37.5t4.5 29.5v21q0 30 -4.5 36t-19.5 6q-31 0 -48 -20q-11 -13 -21 -44q-24 -88 -47 -115q-37 -44 -127 -44q-66 0 -100.5 17.5t-34.5 41.5
q0 15 25.5 24.5t30.5 45.5q10 67 17 83q13 28 53 41q5 1 13 4t8 13q0 7 -13 14q-47 20 -64 34q-30 26 -30 73q0 83 91 112q56 18 162 18q37 0 92.5 -2.5t62.5 -2.5q16 0 50 4q77 9 89 9q31 0 62 -14.5t31 -41.5q0 -30 -18 -52q-41 -50 -41 -73v-190zM420 382q0 20 -7 31.5
t-28 11.5q-78 0 -78 -63q0 -38 24.5 -57.5t67.5 -19.5q21 0 21 18q-1 10 -1 16z" />
    <glyph glyph-name="OE" unicode="&#x152;" horiz-adv-x="1210" 
d="M455 310h-38q-59 0 -74 -14q-21 -19 -21 -89q0 -81 28 -118q14 -19 14 -44q0 -45 -69 -58q-31 -6 -105 -6h-22t-25 -1q-56 0 -84 9q-44 14 -44 49q0 15 9.5 31t22.5 26q28 21 33.5 48.5t5.5 179.5q0 196 -4 222.5t-32 41.5q-11 6 -17 14.5t-6 22.5q0 49 83 71
q54 14 125 14q61 0 92 -7q61 -14 61 -53q0 -22 -8.5 -36t-27.5 -25t-24.5 -30t-5.5 -85q0 -39 19 -50q13 -8 55 -8q22 -4 36 -6q42 -6 71 -6q37 0 42 10t6.5 32t1.5 43q0 43 -5 57q-9 15 -16 26.5t-38 31.5q-25 16 -25 37q0 46 104 63q54 9 120 9q76 0 114 -9q69 -16 69 -61
q0 -19 -27 -31.5t-34 -16.5q-19 -11 -25 -19.5t-6 -29.5v-81q0 -37 5.5 -51.5t27.5 -14.5q29 4 60.5 9t55.5 5q25 0 38 -2q68 -8 90.5 -16.5t48.5 -30.5q40 -34 51 -53q17 -30 17 -88q0 -92 -52 -151q-67 -76 -204 -76q-34 0 -100 5.5t-86 5.5q-34 0 -79 -5
q-107 -12 -133 -12q-23 0 -40 12.5t-17 35.5q0 7 1 11q5 23 29 31q47 15 47 119q1 13 2 34t1 26q0 24 -3 33q-6 12 -14.5 16.5t-23.5 4.5q-5 0 -22 -1t-29 -1zM784 270v-50q0 -80 13 -103q9 -16 37 -16q40 0 58.5 24.5t18.5 66.5q0 53 -17 80q-22 35 -71 35
q-22 0 -30.5 -9.5t-8.5 -27.5z" />
    <glyph glyph-name="oe" unicode="&#x153;" horiz-adv-x="1060" 
d="M436 181q0 27 -9 32.5t-41 5.5q-71 0 -86 -6t-15 -37v-25q0 -58 22 -85q11 -13 11 -31q0 -34 -65 -43q-29 -4 -61 -4h-21h-32q-67 0 -93.5 10.5t-26.5 31.5q0 10 8.5 22t17.5 19q22 15 26.5 35.5t4.5 128.5v62q0 91 -3.5 104t-23.5 23t-20 27q0 36 66 52q42 10 100 10
q73 0 108 -10.5t35 -33.5q0 -15 -6.5 -24t-22.5 -19.5t-20 -23t-4 -59.5q0 -23 9 -29.5t30 -6.5h20h41q37 0 44 5.5t7 24.5q0 52 -5 67q-8 10 -11 14q-13 15 -19 21q-11 12 -11 23q0 15 30 33q19 11 32 11q53 0 125.5 2.5t81.5 2.5q33 0 64.5 -13.5t31.5 -31.5
q0 -17 -10.5 -29.5t-29.5 -23.5t-25.5 -25.5t-6.5 -33.5v-20v-16q0 -18 4 -28t17 -10l28 2q87 9 127 9q26 0 49 -5.5t53.5 -22t50.5 -43.5q24 -33 24 -75q0 -61 -53 -101q-64 -48 -183 -48q-30 0 -81 4t-77 4q-30 0 -103 -6t-103 -6q-44 0 -44 43q0 26 13 36q31 24 31 110z
M683 194v-36q0 -56 11 -73q8 -12 31 -12q34 0 50 18t16 47q0 33 -12 54q-17 29 -55 29q-41 0 -41 -27z" />
    <glyph glyph-name="Scaron" unicode="&#x160;" horiz-adv-x="1205" 
d="M482 596q-29 -4 -51 -50q-16 -34 -22.5 -72.5t-22 -158t-15.5 -137.5q0 -56 -5 -84q-8 -43 -29 -62q-40 -36 -70 -52t-64 -16h-24.5t-26.5 -1q-43 0 -69 7q-37 10 -52 37t-15 62q0 29 13 50.5t43 30.5q2 1 11.5 2.5t14.5 1.5q19 0 33.5 -19.5t31.5 -19.5q15 0 40.5 11.5
t29 92.5t7.5 105t19 122q10 68 18.5 98t31 67t51.5 61q21 17 83 27t105 10l230 -1q27 0 49.5 -14.5t18.5 -41.5q-6 -42 -41 -77t-35 -74q0 -71 7.5 -87t33.5 -16q29 4 60.5 9t55.5 5q25 0 38 -2q68 -8 90.5 -16.5t48.5 -30.5q40 -34 51 -53q17 -30 17 -88q0 -92 -52 -151
q-67 -76 -204 -76q-34 0 -100 5.5t-86 5.5q-34 0 -79 -5q-107 -12 -133 -12q-23 0 -40 12.5t-17 35.5q0 7 1 11q5 22 27 35q40 24 40 130l7 312q0 72 -44 72q-7 -1 -10 -1zM778 270v-50q0 -80 13 -103q9 -16 37 -16q40 0 58.5 24.5t18.5 66.5q0 53 -17 80q-22 35 -71 35
q-22 0 -30.5 -9.5t-8.5 -27.5z" />
    <glyph glyph-name="scaron" unicode="&#x161;" horiz-adv-x="1040" 
d="M411 23q0 30 21.5 47.5t21.5 37.5q0 8 -1 14.5t-1 44v54.5v117q0 61 -50 55q-25 -3 -35 -19q-6 -11 -13 -42q-3 -16 -17 -103.5t-14 -100.5q0 -34 -8.5 -62t-28.5 -43q-34 -26 -59.5 -37.5t-53.5 -11.5h-24.5t-26.5 -1q-42 0 -62 7t-29 20q-15 22 -15 53q0 23 10.5 40
t34.5 23q8 2 20 2q23 0 39.5 -20.5t26.5 -20.5q12 0 29 13t21 71t6 68.5t13.5 74t19 87t26 49.5t44.5 44q19 14 43 20t54 6l227 -3q33 0 64.5 -13.5t31.5 -31.5q0 -17 -10.5 -29.5t-29.5 -23.5t-25.5 -25.5t-6.5 -33.5v-20v-16q0 -18 4 -28t17 -10l28 2q87 9 127 9
q26 0 49 -5.5t53.5 -22t50.5 -43.5q24 -33 24 -75q0 -61 -53 -101q-64 -48 -183 -48q-30 0 -81 4t-77 4q-19 0 -64.5 -2.5t-55.5 -2.5q-40 0 -61 6t-21 22zM654 190v-36q0 -56 11 -73q8 -12 31 -12q34 0 50 18t16 47q0 33 -12 54q-17 29 -55 29q-41 0 -41 -27z" />
    <glyph glyph-name="Ydieresis" unicode="&#x178;" horiz-adv-x="720" 
d="M574 -7q-19 0 -70 -2.5t-61 -2.5q-22 0 -49.5 -72.5t-49.5 -72.5q-32 0 -50 74t-41 74q-85 0 -140 10q-84 15 -84 52q0 17 18 26q23 12 26 30t3 160q0 111 -4 130t-27 34q-9 6 -17.5 18.5t-8.5 22.5q0 30 60 38q30 4 60 4h32q64 0 88 -4q59 -10 59 -43q0 -19 -10 -31
q-23 -28 -23 -85v-137.5t3.5 -82t19 -24t72.5 -6.5q36 0 44 4q14 7 14 34l-3 219q0 60 -19.5 77.5t-19.5 25.5q0 33 51 45q33 8 87 8q102 0 140 -22q23 -13 23 -35q0 -12 -5.5 -17.5t-21.5 -13t-20.5 -16.5t-4.5 -27v-187q0 -80 7 -100q4 -13 27 -23t23 -33q0 -20 -35 -34.5
t-93 -14.5z" />
    <glyph glyph-name="florin" unicode="&#x192;" horiz-adv-x="644" 
d="M384 401q-57 0 -74.5 -6.5t-22.5 -32.5q-1 -46 -1.5 -105t-0.5 -65v-41q0 -58 22 -85q11 -13 11 -31q0 -34 -65 -43q-29 -4 -61 -4h-21h-32q-67 0 -93.5 10.5t-26.5 31.5q0 10 8.5 22t17.5 19q22 15 26.5 35.5t4.5 128.5v62q0 91 -3.5 104t-23.5 23t-20 27q0 36 66 52
q42 10 100 10h291h29q55 0 75 -10.5t20 -32.5q0 -59 -15 -99.5t-43 -40.5q-10 0 -22 6q-42 29 -62 42q-35 23 -84 23zM290 579q-32 0 -43 9.5t-11 27.5q0 19 22 37q48 40 48 46q0 4 -4 11t-4 12q0 19 50 27q19 3 34 3q39 0 72 -10q50 -15 50 -46q0 -28 -56 -68
q-68 -49 -158 -49z" />
    <glyph glyph-name="circumflex" unicode="&#x2c6;" horiz-adv-x="557" 
d="M474 237q-27 -8 -48.5 -11t-41.5 -3q-5 0 -47.5 3.5t-72.5 3.5h-18q-9 -2 -9 -14q0 -36 37 -64t75 -28q36 0 68.5 14.5t64.5 30.5q14 0 26.5 -17.5t12.5 -32.5q0 -54 -81 -95q-75 -38 -150 -38q-126 0 -196 81q-62 72 -62 178q0 116 76 191t190 75q115 0 180 -68
q52 -55 52 -124q0 -45 -15 -62q-10 -12 -41 -20zM236 561q-32 0 -43 9.5t-11 27.5q0 19 22 37q48 40 48 46q0 4 -4 11t-4 12q0 19 50 27q19 3 34 3q39 0 72 -10q50 -15 50 -46q0 -28 -56 -68q-68 -49 -158 -49zM292 323q31 0 40 3q19 6 19 30q0 28 -16 46t-43 18
q-24 0 -42 -20.5t-18 -45.5q0 -15 8 -23t35 -8h17z" />
    <glyph glyph-name="tilde" unicode="&#x2dc;" horiz-adv-x="651" 
d="M504 247l-59 -163q-29 -80 -57 -127q-38 -65 -85 -97q-57 -39 -134 -39q-61 0 -105 28q-52 33 -52 92q0 38 25 65t64 27q52 0 73 -53t35 -53q18 0 28.5 15.5t10.5 33.5q0 16 -4.5 30t-27.5 61l-140 293q-8 18 -42 34t-34 40q0 31 35 48q54 26 194 26q47 0 78 -9
q50 -15 50 -52q0 -12 -15 -36q-8 -13 -8 -23q0 -28 24 -68t37 -40q20 0 37 37q14 31 14 56q0 23 -21 49q-11 13 -11 27q0 34 51 49q34 10 79 10q40 0 66 -8q41 -13 41 -43q0 -31 -34 -46q-45 -20 -60.5 -45t-29.5 -58q-7 -18 -23 -61zM246 561q-32 0 -43 9.5t-11 27.5
q0 19 22 37q48 40 48 46q0 4 -4 11t-4 12q0 19 50 27q19 3 34 3q39 0 72 -10q50 -15 50 -46q0 -28 -56 -68q-68 -49 -158 -49z" />
    <glyph glyph-name="endash" unicode="&#x2013;" horiz-adv-x="500" 
d="M203 354h187q45 0 65 1t37 3q12 0 21 -8t9 -22q0 -18 -14.5 -60t-25.5 -64q-19 -36 -54 -36q-27 3 -63 5.5t-68 2.5h-187q-45 0 -68 -1q-17 -2 -34 -3q-12 0 -21 8t-9 22q0 18 16 64q13 39 24 60q19 36 54 36q27 -3 63 -5.5t68 -2.5z" />
    <glyph glyph-name="emdash" unicode="&#x2014;" horiz-adv-x="1000" 
d="M203 354h687q45 0 65 1t37 3q12 0 21 -8t9 -22q0 -18 -14.5 -60t-25.5 -64q-19 -36 -54 -36q-27 3 -63 5.5t-68 2.5h-687q-45 0 -68 -1q-17 -2 -34 -3q-12 0 -21 8t-9 22q0 18 16 64q13 39 24 60q19 36 54 36q27 -3 63 -5.5t68 -2.5z" />
    <glyph glyph-name="quoteleft" unicode="&#x2018;" horiz-adv-x="695" 
d="M337 198q0 -85 66 -102q31 -8 31 -40q0 -40 -55.5 -56t-178.5 -16q-111 0 -148 17q-28 13 -28 49q0 25 15 38q45 38 50.5 53t9 57t3.5 72v139v73v19q0 29 -3 52q-6 46 -34 61.5t-28 39.5q0 27 17 40.5t44 13.5q6 0 123 -5t166 -5h230q29 0 44.5 -29.5t15.5 -82.5
q0 -28 -16 -50.5t-43 -22.5q-26 0 -41 25q-34 57 -154 57q-42 0 -64 -44q-18 -35 -22.5 -87.5t-4.5 -95.5q0 -36 2.5 -92.5t2.5 -77.5zM327 793q-32 0 -43 9.5t-11 27.5q0 19 22 37q48 40 48 46q0 4 -4 11t-4 12q0 19 50 27q19 3 34 3q39 0 72 -10q50 -15 50 -46
q0 -28 -56 -68q-68 -49 -158 -49z" />
    <glyph glyph-name="quoteright" unicode="&#x2019;" horiz-adv-x="869" 
d="M332 152q-1 -3 -1 -6.5v-4.5q0 -16 41 -60q20 -21 20 -39q0 -29 -32 -41q-44 -17 -164 -17q-108 0 -143 17q-25 12 -25 44q0 16 30 54q16 21 22 57.5t8 85.5t2 93v48q0 41 -2 78t-8 69q-6 41 -32.5 65.5t-26.5 42.5q0 8 3 22q11 41 23 45q22 7 177 7q64 0 88 -6
q54 -14 54 -59q0 -21 -14 -37q-32 -36 -32 -105q0 -13 2.5 -27.5t16.5 -14.5q19 0 62.5 53.5t43.5 72.5q0 9 -4 20q-9 24 -9 33q0 48 70 63q32 7 107 7q92 0 128 -14.5t36 -51.5q0 -47 -63.5 -51.5t-75.5 -16.5q-37 -30 -60 -53q-45 -44 -45 -70q0 -17 14 -38q4 -6 26 -32
q40 -49 64 -79q75 -92 120 -145q55 -40 75.5 -60.5t20.5 -50.5q0 -33 -27 -48q-15 -8 -58 -17q-32 -6 -52 -6t-41 2.5t-50 6t-58 30.5q-17 17 -35.5 34.5t-44.5 51.5q-8 11 -22 31q-22 34 -39 56q-33 43 -56 43q-7 0 -13 -3q-12 -7 -17 -26t-5 -39v-8t1 -6zM418 779
q-32 0 -43 9.5t-11 27.5q0 19 22 37q48 40 48 46q0 4 -4 11t-4 12q0 19 50 27q19 3 34 3q39 0 72 -10q50 -15 50 -46q0 -28 -56 -68q-68 -49 -158 -49z" />
    <glyph glyph-name="quotesinglbase" unicode="&#x201a;" horiz-adv-x="596" 
d="M522 339v-100q0 -113 30 -114t30 -20q0 -43 -48 -81t-103 -38q-46 0 -73.5 25.5t-32.5 25.5q-33 -21 -67 -36t-78 -15q-69 0 -114 34q-52 39 -52 109q0 61 56 106q67 53 188 53q28 0 34 3q11 6 11 31q0 56 -11.5 79t-35.5 23q-26 0 -52 -34q-57 -74 -103 -74
q-24 0 -40 15t-16 40q0 59 96 102q84 38 168 38q73 0 128 -29q85 -44 85 -143zM218 561q-32 0 -43 9.5t-11 27.5q0 19 22 37q48 40 48 46q0 4 -4 11t-4 12q0 19 50 27q19 3 34 3q39 0 72 -10q50 -15 50 -46q0 -28 -56 -68q-68 -49 -158 -49zM279 215q-24 0 -40.5 -19.5
t-16.5 -44.5q0 -22 11 -38t32 -16q26 0 35 24q6 15 6 47q0 23 -4 35t-23 12z" />
    <glyph glyph-name="quotedblleft" unicode="&#x201c;" horiz-adv-x="771" 
d="M312 380q0 -22 3.5 -34t18.5 -12q12 0 46 33t34 44q0 7 -7.5 22t-7.5 25q0 26 38.5 40.5t108.5 14.5h23q56 0 87 -8q50 -13 50 -47t-31 -48q-22 -10 -55 -10q-20 0 -58.5 -29t-38.5 -52q0 -31 61 -95q67 -63 77 -73q48 -39 63 -52q25 -21 25 -46q0 -27 -38 -40
q-20 -7 -40 -13q-30 -11 -61 -11q-23 0 -54 6t-50.5 13.5t-46 25.5t-48.5 54q-30 50 -43 64q-14 18 -20 26q-11 14 -18 14t-10.5 -15t-3.5 -25q0 -52 26 -74q14 -12 14 -30q0 -29 -20 -40q-34 -19 -138 -19h-43q-80 0 -103.5 14t-23.5 44q0 19 31.5 39t31.5 67
q0 48 1.5 103.5t1.5 60.5q0 40 -35 71.5t-30 52.5q10 44 66 60q35 10 101 10h29q38 0 74 -10q55 -15 55 -44q0 -27 -21 -44t-21 -33zM380 567q-32 0 -43 9.5t-11 27.5q0 19 22 37q48 40 48 46q0 4 -4 11t-4 12q0 19 50 27q19 3 34 3q39 0 72 -10q50 -15 50 -46
q0 -28 -56 -68q-68 -49 -158 -49z" />
    <glyph glyph-name="quotedblright" unicode="&#x201d;" horiz-adv-x="825" 
d="M755 310q0 -24 -0.5 -45.5t-0.5 -41.5q0 -16 1 -34t4.5 -44t25.5 -74q8 -18 8 -40q0 -29 -39 -40q-28 -8 -78 -8q-12 0 -23 0.5t-20 0.5q-49 0 -77 6q-55 12 -55 45q0 14 11 36t15.5 47t5.5 46t1 55q0 54 -10 81q-17 45 -64 45q-29 0 -40.5 -20t-15.5 -52.5t-4 -49.5
q0 -16 1.5 -42.5t1.5 -30.5q0 -19 20 -64q10 -23 10 -38q0 -38 -56 -56q-40 -13 -86 -13q-99 0 -135 14q-27 10 -31 37q-3 19 7 34q34 53 40 77t8.5 97.5t2.5 132.5q0 6 1 28t1 34q0 23 -3.5 30.5t-19.5 10.5t-37 3q-25 0 -49 -1t-25 -1q-32 7 -32 31q0 3 3.5 11.5
t16.5 13.5q18 4 23.5 5.5t14.5 1.5q8 0 52 -5q17 -2 30 -2t16 4q7 12 -18 27t-25 38q0 49 123 80q41 10 123 21q20 0 28 -9q4 -5 7.5 -21t4.5 -21t1 -13t-2 -18q-5 -23 -6 -33l-1 -40q4 -4 19 -4q8 0 50.5 4t56.5 4q42 0 72.5 -6.5t41.5 -17.5q8 -7 8 -16q0 -8 -6 -15
t-10 -8q-16 -5 -127 -8t-111 -6q0 -25 3.5 -38t20.5 -13q31 15 67.5 27t89.5 12q79 0 124.5 -38t45.5 -113z" />
    <glyph glyph-name="quotedblbase" unicode="&#x201e;" horiz-adv-x="1080" 
d="M996 162q0 -24 6 -36.5t24.5 -23t24.5 -16.5q10 -10 10 -26q0 -26 -25 -39q-45 -24 -174 -35q-17 -2 -27.5 -2.5t-24.5 -0.5q-44 0 -67 10q-30 13 -30 43q0 17 14.5 32.5t14.5 45.5v16v11q0 14 -0.5 27t-0.5 24q0 51 -21 80q-25 35 -77 35q-22 0 -30.5 -9.5t-8.5 -27.5
v-102q0 -65 28 -93q14 -14 14 -42q0 -23 -29 -35t-61 -12h-90t-90 -1q-42 0 -67 14t-25 45q0 18 24 32q55 31 55 137q1 60 1.5 133.5t0.5 142.5q0 6 1 19t1 20q0 19 -8 32.5t-31 23.5q-12 4 -22 4q-23 0 -56 -10q-13 -4 -40 -14q-18 -7 -34.5 -28.5t-55.5 -32.5
q-6 -2 -15.5 -3.5t-18.5 -1.5q-39 0 -62 42q-10 17 -10 37q0 52 71 89.5t185 37.5q57 4 88 4q44 0 122 -3.5t100 -3.5q28 0 72.5 3.5t59.5 3.5q113 0 182.5 -37t69.5 -90q0 -20 -10 -37q-23 -42 -62 -42q-19 0 -34 5q-39 11 -54 31q-18 23 -36 30q-32 12 -64 25
q-33 11 -67 11q-17 0 -25 -8t-8 -37v-14v-81q0 -37 5.5 -51.5t27.5 -14.5q29 4 60.5 9t55.5 5q25 0 38 -2q47 -6 72 -13q38 -11 71 -34.5t47.5 -71.5t14.5 -129z" />
    <glyph glyph-name="dagger" unicode="&#x2020;" horiz-adv-x="869" 
d="M772 -43q-13 -18 -13 -31q0 -11 12 -22q5 -5 18 -5q21 2 32 2q14 0 21.5 -6.5t7.5 -25.5q0 -23 -29 -36q-35 -11 -47.5 -15.5t-49.5 -4.5q-36 0 -62.5 6t-34.5 20q-3 6 -7 15t-4 25q0 23 14 45q6 10 33 30.5t27 26.5q0 8 -26 8q-47 0 -69 9q-4 2 -66 54q-21 18 -46 51
q-8 11 -22 32q-22 34 -39 56q-33 43 -56 43q-7 0 -13 -3q-12 -7 -17 -26t-5 -39v-8t1 -6q-1 -3 -1 -6.5v-4.5q0 -16 41 -60q20 -21 20 -39q0 -29 -32 -41q-44 -17 -164 -17q-108 0 -143 17q-25 12 -25 44q0 16 30 54q16 21 22 57.5t8 85.5t2 93v48q0 41 -2 78t-8 69
q-6 41 -32.5 65.5t-26.5 42.5q0 8 3 22q11 41 23 45q22 7 177 7q64 0 88 -6q54 -14 54 -59q0 -21 -14 -37q-32 -36 -32 -105q0 -13 2.5 -27.5t16.5 -14.5q19 0 62.5 53.5t43.5 72.5q0 9 -4 20q-9 24 -9 33q0 48 70 63q32 7 107 7q92 0 128 -14.5t36 -51.5q0 -47 -63.5 -51.5
t-75.5 -16.5q-37 -30 -60 -53q-45 -44 -45 -70q0 -17 14 -38q4 -6 26 -32l32 -38q36 -43 73 -88q44 -54 79 -98q4 -5 63 -59q35 -32 35 -68q0 -25 -33 -45q-42 -26 -46 -32z" />
    <glyph glyph-name="daggerdbl" unicode="&#x2021;" horiz-adv-x="771" 
d="M461 33q-29 20 -50 55q-31 50 -44 66t-19 24q-11 14 -18 14t-10.5 -15t-3.5 -25q0 -52 26 -74q14 -12 14 -30q0 -29 -20 -40q-34 -19 -138 -19h-43q-80 0 -103.5 14t-23.5 44q0 19 31.5 39t31.5 67q0 48 1.5 103.5t1.5 60.5q0 40 -35 71.5t-30 52.5q10 44 66 60
q35 10 101 10h29q38 0 74 -10q55 -15 55 -44q0 -27 -21 -44t-21 -33q0 -22 3.5 -34t18.5 -12q12 0 46 33t34 44q0 7 -7.5 22t-7.5 25q0 26 38.5 40.5t108.5 14.5h23q56 0 87 -8q50 -13 50 -47t-31 -48q-22 -10 -55 -10q-20 0 -58.5 -29t-38.5 -52q0 -31 61 -95
q67 -63 77 -73q48 -39 63 -52q25 -21 25 -46q0 -20 -24.5 -33t-25.5 -14q-24 -15 -26 -17q-16 -13 -27.5 -29.5t-11.5 -27.5t11 -20q4 -4 11 -4q5 0 16 2.5t14 2.5q10 0 17.5 -6.5t13.5 -26.5q6 -21 -35 -36q-25 -8 -36 -11.5t-45 -3.5q-30 0 -54.5 5.5t-31 16.5t-9 18.5
t-2.5 18.5q0 10 1.5 19t11.5 23q6 9 35 26t29 24t-18 11q-36 9 -56 16.5t-46 25.5z" />
    <glyph glyph-name="bullet" unicode="&#x2022;" horiz-adv-x="348" 
d="M288 107q0 -51 -35 -86t-86 -35t-86 35t-35 86t35 86t86 35t86 -35t35 -86z" />
    <glyph glyph-name="ellipsis" unicode="&#x2026;" horiz-adv-x="660" 
d="M417 401q-57 0 -74.5 -6.5t-22.5 -32.5q-4 -8 -4 -30q0 -9 2.5 -13t88 -4t100.5 -12q4 -3 4 -9q0 -8 -11 -17t-29.5 -13.5t-38.5 -5.5t-47 -1q-23 0 -44 -0.5t-22.5 -9t-3 -49t-1.5 -71.5q0 -38 18.5 -55.5t18.5 -36.5q0 -34 -65 -43q-29 -4 -61 -4h-21h-32
q-67 0 -93.5 10.5t-26.5 31.5q0 10 8.5 22t17.5 19q20 13 25.5 45t5.5 127q0 13 -24 13q-21 -1 -31 -1q-17 0 -23 5q-11 9 -11 32q0 8 3.5 16.5t23 11t46.5 2.5h10.5h5.5q0 70 -4 81.5t-23.5 21t-19.5 26.5q0 36 66 52q42 10 100 10h291h29q55 0 75 -10.5t20 -32.5
q0 -59 -15 -99.5t-43 -40.5q-10 0 -22 6q-42 29 -62 42q-35 23 -84 23z" />
    <glyph glyph-name="perthousand" unicode="&#x2030;" horiz-adv-x="720" 
d="M433 378q0 30 -6 37q-10 4 -15 7q-22 14 -22 40q0 14 7 22q26 29 149 29q60 0 92 -6q64 -12 64 -45q0 -23 -24 -34q-20 -8 -25 -22q-8 -23 -8 -100v-187q0 -18 4.5 -27t19 -16t21.5 -13t7 -18q0 -22 -22 -35q-38 -22 -141 -22q-58 0 -87 7q-51 12 -51 46q0 15 17 37
q21 27 26 70q2 9 2 18v13q0 28 -13 28q-8 0 -22 -9q-27 -17 -76 -44q-41 -23 -41 -35q0 -30 14.5 -46.5t14.5 -37.5q0 -34 -65 -43q-29 -4 -61 -4h-21h-32q-67 0 -93.5 10.5t-26.5 31.5q0 10 8.5 22t17.5 19q22 15 26.5 35.5t4.5 128.5v62q0 91 -3.5 104t-23.5 23t-20 27
q0 36 66 52q42 10 100 10q73 0 108 -10.5t35 -33.5q0 -16 -6.5 -25.5t-21.5 -17.5t-20 -21.5t-5 -46.5v-41t2.5 -35.5t17.5 -15.5q18 0 47 17q8 5 28 18q29 19 38 31q15 19 15 46zM338 567q-32 0 -43 9.5t-11 27.5q0 19 22 37q48 40 48 46q0 4 -4 11t-4 12q0 19 50 27
q19 3 34 3q39 0 72 -10q50 -15 50 -46q0 -28 -56 -68q-68 -49 -158 -49z" />
    <glyph glyph-name="guilsinglleft" unicode="&#x2039;" horiz-adv-x="633" 
d="M292 -14q-116 0 -187 60q-76 64 -76 179q0 130 93 210q88 76 218 76q123 0 198 -84q66 -74 66 -177q0 -116 -101 -193q-93 -71 -211 -71zM289 560q-32 0 -43 9.5t-11 27.5q0 19 22 37q48 40 48 46q0 4 -4 11t-4 12q0 19 50 27q19 3 34 3q39 0 72 -10q50 -15 50 -46
q0 -28 -56 -68q-68 -49 -158 -49zM385 174q0 60 -18 126q-26 93 -70 93q-23 0 -36 -18t-13 -42q0 -70 19 -134q26 -87 72 -87q26 0 36 17t10 45z" />
    <glyph glyph-name="guilsinglright" unicode="&#x203a;" horiz-adv-x="1029" 
d="M968 464q-5 -33 -8 -67t-3 -66q0 -30 3 -67t7 -70t24 -72.5t20 -67.5q0 -44 -61 -58q-30 -7 -95 -7q-112 0 -147 19q-19 10 -19 37q0 15 9 29q15 23 31 47q7 20 12 55.5t5 73.5q0 30 -4.5 55.5t-27.5 50.5t-23 63q0 35 75 59q92 30 171 30q17 0 24.5 -9.5t7.5 -23.5
q0 -8 -1 -11zM335 280l28 2q87 9 127 9q26 0 49 -5.5t53.5 -22t50.5 -43.5q24 -33 24 -75q0 -61 -53 -101q-64 -48 -183 -48q-30 0 -81 4t-77 4q-30 0 -105 -6t-105 -6q-20 0 -34.5 9t-14.5 26q0 5 1.5 11.5t29 26t27.5 88.5q4 27 6 44q6 53 6 96q0 40 -5 66t-33.5 55
t-28.5 55q0 19 17.5 30t40.5 11l215 1q33 0 64.5 -13.5t31.5 -31.5q0 -17 -10.5 -29.5t-29.5 -23.5t-25.5 -25.5t-6.5 -33.5v-20v-16q0 -18 4 -28t17 -10zM569 560q-32 0 -43 9.5t-11 27.5q0 19 22 37q48 40 48 46q0 4 -4 11t-4 12q0 19 50 27q19 3 34 3q39 0 72 -10
q50 -15 50 -46q0 -28 -56 -68q-68 -49 -158 -49zM314 194v-36q0 -56 11 -73q8 -12 31 -12q34 0 50 18t16 47q0 33 -12 54q-17 29 -55 29q-41 0 -41 -27z" />
    <glyph glyph-name="trademark" unicode="&#x2122;" horiz-adv-x="835" 
d="M398 45q0 21 20.5 38.5t20.5 25.5q0 17 -22 52q-11 17 -34 48q-5 7 -8 10.5t-9 3.5q-10 0 -42 -47t-32 -58q0 -9 13.5 -35t13.5 -51q0 -24 -26 -33.5t-126 -9.5q-96 0 -127 21q-20 13 -20 47q0 19 25 37.5t54 25.5t35 15q17 25 44 59l92 115q5 6 9.5 12t4.5 9
q0 4 -5 10.5t-9 11.5q-30 42 -48 67q-56 76 -94 117q-13 14 -48 33q-53 29 -53 65q0 32 26 47q53 31 211 31q100 0 130 -15q24 -12 24 -48q0 -26 -14 -43q-7 -8 -7 -16q0 -12 21.5 -36.5t30.5 -24.5q10 0 31 26t21 35q0 5 -15 30q-8 14 -8 31q0 31 23 43q34 18 134 18
q60 0 88 -7q58 -15 58 -56q0 -30 -23 -41q-13 -6 -49 -9q-21 0 -39 -12q-5 -3 -60 -55q-18 -17 -46 -55q-9 -12 -23 -33q-5 -6 -8 -10q-6 -8 -6 -11q0 -4 6 -12t8 -10q15 -21 30 -41q19 -26 71.5 -94t80.5 -100q13 -15 44 -34q48 -30 48 -67q0 -17 -3.5 -31.5t-17.5 -22.5
t-31 -23t-29.5 -33t-12.5 -31q0 -11 12 -22q5 -5 18 -5q21 2 32 2q14 0 21.5 -6.5t7.5 -25.5q0 -23 -29 -36q-35 -11 -47.5 -15.5t-49.5 -4.5q-36 0 -62.5 6t-34.5 20q-3 6 -7 15t-4 25q0 23 14 45q5 8 23 23q35 30 35 36q0 7 -17 7q-6 -1 -9 -1h-40q-81 0 -120 8
q-66 14 -66 50z" />
    <glyph glyph-name="NAK" unicode="&#xf015;" horiz-adv-x="946" 
d="M112 383v72q0 22 -6 30t-28 8h-21q-29 0 -29 19q0 32 93 55q78 19 149 19q25 0 39.5 -4.5t14.5 -22.5q0 -13 -25 -23t-25 -50v-64q0 -28 1 -56t6 -51t44.5 -26t39.5 -23q0 -18 -25 -27q-41 -15 -145 -15q-182 0 -182 45q0 10 9 17t21 7q5 0 18.5 -2t14.5 -2q19 0 27.5 17
t8.5 77zM794 0h-214q-19 0 -28.5 2t-9.5 14q0 7 5 13t43 39.5t67 67.5q44 51 44 78q0 34 -36 34q-19 0 -50 -23q-15 -11 -28 -11q-15 0 -28.5 10.5t-13.5 23.5q0 38 69.5 71.5t132.5 33.5q77 0 119 -29q37 -26 37 -65q0 -37 -34 -75q-38 -38 -76 -75q0 -10 8.5 -15.5
t20.5 -5.5q26 0 49 18t30 18q16 0 23 -14t7 -31q0 -47 -25 -77.5t-48 -30.5q-15 0 -23.5 14.5t-40.5 14.5zM585 404l-189 -323q-35 -61 -69 -122q-17 -28 -39 -28q-20 0 -35 4q-24 7 -24 21q0 13 46 83t99 162l234 405q12 21 17 27q15 17 44 17q19 0 33 -4t14 -19
q0 -18 -25 -55q-56 -83 -106 -168z" />
    <glyph glyph-name="SYN" unicode="&#xf016;" horiz-adv-x="946" 
d="M112 383v72q0 22 -6 30t-28 8h-21q-29 0 -29 19q0 32 93 55q78 19 149 19q25 0 39.5 -4.5t14.5 -22.5q0 -13 -25 -23t-25 -50v-64q0 -28 1 -56t6 -51t44.5 -26t39.5 -23q0 -18 -25 -27q-41 -15 -145 -15q-182 0 -182 45q0 10 9 17t21 7q5 0 18.5 -2t14.5 -2q19 0 27.5 17
t8.5 77zM889 337v-199v-15q2 -9 19 -9q18 0 21.5 -3.5t3.5 -20.5v-48q0 -13 -3 -19t-15.5 -7t-15 -5t-2.5 -20v-10v-17q0 -22 -27 -22h-99h-15q-12 2 -12 16v20q0 28 -2 31q-5 8 -30 8h-114q-29 0 -39.5 7t-10.5 33q0 33 10.5 52.5t55.5 69.5l150 160q23 19 44.5 28.5
t49.5 9.5q21 0 26 -9t5 -31zM625 404l-189 -323q-35 -61 -69 -122q-17 -28 -39 -28q-20 0 -35 4q-24 7 -24 21q0 13 46 83t99 162l234 405q12 21 17 27q15 17 44 17q19 0 33 -4t14 -19q0 -18 -25 -55q-56 -83 -106 -168zM683 106h20q35 0 40.5 4.5t5.5 33.5l1 50q0 16 -1 20
q-4 13 -16 13q-9 0 -14.5 -4t-14.5 -14l-41 -47q-13 -14 -20 -25.5t-7 -17.5q0 -7 11.5 -10t23.5 -3h12z" />
    <glyph glyph-name="ETB" unicode="&#xf017;" horiz-adv-x="378" 
d="M112 386v72q0 22 -6 30t-28 8h-21q-29 0 -29 19q0 32 93 55q78 19 149 19q25 0 39.5 -4.5t14.5 -22.5q0 -13 -25 -23t-25 -50v-64q0 -28 1 -56t6 -51t44.5 -26t39.5 -23q0 -18 -25 -27q-41 -15 -145 -15q-182 0 -182 45q0 10 9 17t21 7q5 0 18.5 -2t14.5 -2q19 0 27.5 17
t8.5 77z" />
    <glyph glyph-name="CAN" unicode="&#xf018;" horiz-adv-x="946" 
d="M181 586q56 0 98 -15q60 -21 60 -64q0 -31 -24.5 -52.5t-24.5 -23.5q27 -11 55 -22q55 -22 55 -84q0 -63 -59 -106q-69 -50 -189 -50q-67 0 -107 13.5t-40 35.5q0 15 10 24t26 9q8 0 34.5 -5.5t46.5 -5.5q35 0 61 15t26 42q0 25 -20.5 38t-48.5 13q-17 0 -26.5 -2
t-20.5 -4q-10 0 -18.5 18t-8.5 29q0 8 43.5 27t43.5 51q0 16 -15 28t-35 12q-19 0 -41 -10.5t-25 -10.5q-9 0 -16.5 12.5t-7.5 21.5q0 24 54.5 45t113.5 21zM897 337v-199v-15q2 -9 19 -9q18 0 21.5 -3.5t3.5 -20.5v-48q0 -13 -3 -19t-15.5 -7t-15 -5t-2.5 -20v-10v-17
q0 -22 -27 -22h-99h-15q-12 2 -12 16v20q0 28 -2 31q-5 8 -30 8h-114q-29 0 -39.5 7t-10.5 33q0 33 10.5 52.5t55.5 69.5l150 160q23 19 44.5 28.5t49.5 9.5q21 0 26 -9t5 -31zM650 404l-189 -323q-35 -61 -69 -122q-17 -28 -39 -28q-20 0 -35 4q-24 7 -24 21q0 13 46 83
t99 162l234 405q12 21 17 27q15 17 44 17q19 0 33 -4t14 -19q0 -18 -25 -55q-56 -83 -106 -168zM691 106h20q35 0 40.5 4.5t5.5 33.5l1 50q0 16 -1 20q-4 13 -16 13q-9 0 -14.5 -4t-14.5 -14l-41 -47q-13 -14 -20 -25.5t-7 -17.5q0 -7 11.5 -10t23.5 -3h12z" />
    <glyph glyph-name="EM" unicode="&#xf019;" horiz-adv-x="378" 
d="M386 325q0 -56 -51 -98q-67 -55 -197 -55q-47 0 -85 8q-62 13 -62 41q0 14 10.5 23.5t26.5 9.5q6 0 33.5 -5.5t47.5 -5.5q46 0 69 20q18 16 18 37q0 25 -20.5 38t-48.5 13q-19 0 -31 -3t-16 -3q-10 0 -18.5 18t-8.5 29q0 9 43.5 27.5t43.5 47.5q0 18 -15.5 30.5
t-35.5 12.5q-19 0 -41 -10.5t-25 -10.5q-8 0 -15.5 12.5t-7.5 21.5q0 22 45 42q53 24 122 24q56 0 99 -15q60 -21 60 -64q0 -31 -24.5 -52.5t-24.5 -23.5l54 -22q55 -22 55 -87z" />
    <glyph glyph-name="SUB" unicode="&#xf01a;" horiz-adv-x="378" 
d="M359 359q16 0 22.5 -13.5t6.5 -31.5q0 -39 -21.5 -73t-50.5 -34q-15 0 -24.5 14.5t-42.5 14.5h-212q-17 0 -27 2t-10 13q0 8 6.5 16t40.5 36q39 34 68 68q44 51 44 79q0 34 -37 34q-19 0 -33 -10q-36 -25 -44 -25q-15 0 -28.5 10.5t-13.5 24.5q0 31 59 66q67 39 143 39
q71 0 110 -23q45 -27 45 -71q0 -37 -34 -75q-38 -38 -75 -76q0 -10 8.5 -15.5t20.5 -5.5q26 0 49 18t30 18z" />
    <glyph glyph-name="ESC" unicode="&#xf01b;" horiz-adv-x="496" 
d="M189 523v127q0 41 5 49q10 16 54 16q43 0 53 -15q6 -9 6 -50v-127v-16q0 -29 -8 -37q-12 -12 -51 -12t-49 10t-10 39v16zM189 51v127q0 41 5 49q10 16 54 16q43 0 53 -15q6 -9 6 -50v-127v-16q0 -29 -8 -37q-12 -12 -51 -12t-49 10t-10 39v16z" />
    <glyph glyph-name="FS" unicode="&#xf01c;" horiz-adv-x="630" 
d="M492 198h-354h-16q-28 0 -37 8q-12 11 -12 50q0 38 10 48t39 10h16h354q41 0 49 -5q16 -10 16 -53q0 -42 -15 -52q-9 -6 -50 -6z" />
    <glyph glyph-name="GS" unicode="&#xf01d;" horiz-adv-x="630" 
d="M511 370l-78 -78q-9 -9 -19 -19.5t-10 -16.5q0 -5 7 -13q13 -13 22 -23l78 -78q11 -12 23 -23q9 -10 9 -19q0 -17 -26.5 -44.5t-45.5 -27.5q-10 0 -23 13l-19 19l-78 78q-9 8 -17 17q-12 12 -19 12q-5 0 -13 -7q-13 -13 -23 -22l-78 -78l-23 -23q-11 -9 -19 -9
q-20 0 -46 27t-26 45q0 11 13 23.5t19 18.5l78 78q29 29 29 36t-29 36l-78 78q-12 11 -22 22t-10 20q0 17 26.5 44.5t45.5 27.5q10 0 23 -13q9 -10 19 -19l78 -78q29 -29 36 -29q8 0 36 29l78 78l23 23q11 9 19 9q20 0 46 -27t26 -45q0 -11 -13 -23.5t-19 -18.5z" />
  </font>
</defs>
</svg>
